<svg width="56" height="56" viewBox="0 0 56 56" fill="none" xmlns="http://www.w3.org/2000/svg">
<circle cx="28" cy="28" r="27.5" stroke="#CFCFCF"/>
<g clip-path="url(#clip0_798_2214)">
<path d="M18.9 35.2C22.5 35.1 25.6 33.9 27.9 32.4" stroke="#CFCFCF" stroke-miterlimit="10" stroke-linecap="round" stroke-linejoin="round"/>
<path d="M32.4 28.7C33.7 27 35.5 23.7 35.8 21.1" stroke="#CFCFCF" stroke-miterlimit="10" stroke-linecap="round" stroke-linejoin="round"/>
<path d="M18.5 32.5C24.5 31.9 28.6 29.6 30.8 25.8" stroke="#CFCFCF" stroke-miterlimit="10" stroke-linecap="round" stroke-linejoin="round"/>
<path d="M32 23.7C32.3 23.1 33 22.1 33.6 18.9" stroke="#CFCFCF" stroke-miterlimit="10" stroke-linecap="round" stroke-linejoin="round"/>
<path d="M29.9 31.8C30 31.6 30.5 31.6 30.7 31.7C30.9 31.8 31.7 32.6 31.6 32.8C31.5 33 30.5 32.7 30.2 32.5C29.9 32.4 29.7 32 29.9 31.8Z" fill="#CFCFCF"/>
<path d="M30.1001 35.3C29.9001 35.1 30.1001 34.7 30.3001 34.5C30.5001 34.3 31.5001 33.8 31.6001 34.1C31.7001 34.4 31.1001 35.1 30.9001 35.3C30.7001 35.4 30.3001 35.5 30.1001 35.3Z" fill="#CFCFCF"/>
<path d="M33.1 30.5C33.4 30.6 33.5 31 33.5 31.3C33.4 31.6 33 32.5 32.8 32.5C32.6 32.5 32.5 31.4 32.6 31.1C32.5 30.8 32.8 30.4 33.1 30.5Z" fill="#CFCFCF"/>
<path d="M33.5 36.1C33.2 36.2 32.9 35.9 32.8 35.7C32.7 35.4 32.5 34.4 32.8 34.3C33.1 34.2 33.7 35.1 33.8 35.3C33.9 35.6 33.8 36 33.5 36.1Z" fill="#CFCFCF"/>
<path d="M35.4 33.1C35.4 33.4 35 33.6 34.8 33.6C34.5 33.6 33.5 33.5 33.5 33.2C33.5 32.9 34.5 32.6 34.8 32.6C35 32.6 35.4 32.8 35.4 33.1Z" fill="#CFCFCF"/>
<path d="M32.4 37.8C34.8853 37.8 36.9 35.7853 36.9 33.3C36.9 30.8147 34.8853 28.8 32.4 28.8C29.9147 28.8 27.9 30.8147 27.9 33.3C27.9 35.7853 29.9147 37.8 32.4 37.8Z" stroke="#CFCFCF" stroke-miterlimit="10" stroke-linecap="round" stroke-linejoin="round"/>
<path d="M28.3 35.4C27.3 36 26.3 36.5 25.2 36.9C23.5 37.6 21.6 38 19.8 37.8C18 37.6 15.6 36.6 14.8 34.8C13.5 32 16.5 29.5 19.1 29.4C20.2 29.3 21.2 29.2 22.2 28.9C25.9 27.9 28.7 25.4 30.1 21.3C30.5 20 30.7 18.7 31.3 17.5C32.4 15.4 34.9 14.8 36.5 16.6C37.4 17.5 38 18.8 38.1 20C38.3 21.6 37.9 23.3 37.3 24.8C36.7 26.5 35.8 28.1 34.7 29.5" stroke="#CFCFCF" stroke-miterlimit="10" stroke-linecap="round" stroke-linejoin="round"/>
</g>
<defs>
<clipPath id="clip0_798_2214">
<rect width="24.7" height="23.3" fill="white" transform="translate(14 15)"/>
</clipPath>
</defs>
</svg>
