<svg width="56" height="56" viewBox="0 0 56 56" fill="none" xmlns="http://www.w3.org/2000/svg">
<circle cx="28" cy="28" r="27.5" stroke="#CFCFCF"/>
<g clip-path="url(#clip0_787_2394)">
<path d="M31.4 18.5C29.9 20.5 27.7 22 25.4 23.1C24 23.8 22.5 24.4 21.1 25C19.9 25.5 18.8 26.1 17.8 26.9C15.9 28.4 14.6 30.6 14.6 33C14.6 36 16.8 38.2 19.6 38.7C24.6 39.7 29.2 36.3 32 32.5C34.2 29.7 35.8 26.4 37.2 23.1" stroke="#CFCFCF" stroke-miterlimit="10" stroke-linecap="round"/>
<path d="M34.1 21.1C34.5 21.2 35.3 20.9 35.5 20.8C35.7 20.7 35.9 20.6 36.1 20.5C36.1 20.5 36.4 20.4 36.4 20.3C36.2 22.2 37.4 23.3 37.4 23.3C38.6 22.4 39.3 21 39.1 19.5C38.9 17.7 37.4 16.1 35.7 15.7C35.2 15.6 34.8 15.6 34.3 15.6C32.8 15.8 31.5 16.8 30.9 18.1C30.9 18.1 32.2 19 34.1 18.4C34 18.4 33.9 18.9 33.9 19C33.8 19.2 33.8 19.5 33.8 19.7C33.8 20.2 33.7 21 34.1 21.1Z" stroke="#CFCFCF" stroke-miterlimit="10" stroke-linecap="round" stroke-linejoin="round"/>
<path d="M40.7999 16C40.7999 16 39.4 14.8 38.2 16.3L37.7 16.9" stroke="#CFCFCF" stroke-miterlimit="10" stroke-linecap="round"/>
<path d="M19.6 36.1C21.9 36.6 24.4 35.9 26 34.2" stroke="#CFCFCF" stroke-miterlimit="10" stroke-linecap="round"/>
<path d="M27.5 32.9L28 32.3" stroke="#CFCFCF" stroke-miterlimit="10" stroke-linecap="round"/>
</g>
<circle cx="28" cy="28" r="27.5" stroke="#395C37"/>
<g clip-path="url(#clip1_787_2394)">
<g clip-path="url(#clip2_787_2394)">
<path d="M37.1 24.1C36.8 23.7 36.2 22.7 36.3 21.4C36.3 21.4 36.1 21.5 36 21.6C35.8 21.7 35.6 21.8 35.4 21.9C35.2 22 34.4 22.3 34 22.2C33.6 22.1 33.7 21.3 33.7 20.9C33.7 20.7 33.8 20.4 33.8 20.2C33.8 20.1 33.9 19.6 34 19.6C32.8 20 31.9 19.7 31.3 19.5V19.6C29.8 21.6 27.6 23.1 25.3 24.2C24 24.8 22.5 25.4 21 26.1C19.8 26.6 18.7 27.2 17.7 28C15.8 29.5 14.5 31.7 14.5 34.1C14.5 37.1 16.7 39.3 19.5 39.8C24.5 40.8 29.1 37.4 31.9 33.6C34.1 30.7 35.7 27.4 37.1 24.1Z" fill="#B787C9"/>
<path d="M34.1 22.1C34.5 22.2 35.3 21.9 35.5 21.8C35.7 21.7 35.9 21.6 36.1 21.5C36.1 21.5 36.4 21.4 36.4 21.3C36.2 23.2 37.4 24.3 37.4 24.3C38.6 23.4 39.3 22 39.1 20.5C38.9 18.7 37.4 17.1 35.7 16.7C35.2 16.6 34.8 16.6 34.3 16.6C32.8 16.8 31.5 17.8 30.9 19.1C30.9 19.1 32.2 20 34.1 19.4C34 19.4 33.9 19.9 33.9 20C33.8 20.2 33.8 20.5 33.8 20.7C33.8 21.2 33.7 22 34.1 22.1Z" fill="#97D382"/>
<path d="M31.4 19.5C29.9 21.5 27.7 23 25.4 24.1C24 24.8 22.5 25.4 21.1 26C19.9 26.5 18.8 27.1 17.8 27.9C15.9 29.4 14.6 31.6 14.6 34C14.6 37 16.8 39.2 19.6 39.7C24.6 40.7 29.2 37.3 32 33.5C34.2 30.7 35.8 27.4 37.2 24.1" stroke="#395C37" stroke-miterlimit="10" stroke-linecap="round"/>
<path d="M34.1 22.1C34.5 22.2 35.3 21.9 35.5 21.8C35.7 21.7 35.9 21.6 36.1 21.5C36.1 21.5 36.4 21.4 36.4 21.3C36.2 23.2 37.4 24.3 37.4 24.3C38.6 23.4 39.3 22 39.1 20.5C38.9 18.7 37.4 17.1 35.7 16.7C35.2 16.6 34.8 16.6 34.3 16.6C32.8 16.8 31.5 17.8 30.9 19.1C30.9 19.1 32.2 20 34.1 19.4C34 19.4 33.9 19.9 33.9 20C33.8 20.2 33.8 20.5 33.8 20.7C33.8 21.2 33.7 22 34.1 22.1Z" stroke="#395C37" stroke-miterlimit="10" stroke-linecap="round" stroke-linejoin="round"/>
<path d="M40.8 17C40.8 17 39.4 15.8 38.2 17.3L37.7 17.9" stroke="#395C37" stroke-miterlimit="10" stroke-linecap="round"/>
<path d="M19.6 37.1C21.9 37.6 24.4 36.9 26 35.2" stroke="#395C37" stroke-miterlimit="10" stroke-linecap="round"/>
<path d="M27.5 33.9L28 33.3" stroke="#395C37" stroke-miterlimit="10" stroke-linecap="round"/>
</g>
</g>
<defs>
<clipPath id="clip0_787_2394">
<rect width="27.3" height="24.4" fill="white" transform="translate(14 15)"/>
</clipPath>
<clipPath id="clip1_787_2394">
<rect width="27.3" height="24.4" fill="white" transform="translate(14 16)"/>
</clipPath>
<clipPath id="clip2_787_2394">
<rect width="27.3" height="24.4" fill="white" transform="translate(14 16)"/>
</clipPath>
</defs>
</svg>
