<svg width="56" height="56" viewBox="0 0 56 56" fill="none" xmlns="http://www.w3.org/2000/svg">
<circle cx="28" cy="28" r="27.5" stroke="#395C37"/>
<g clip-path="url(#clip0_798_2315)">
<path d="M28.5 33.4H28H27.6L18.7 33.9L20.9 41.1H27.6H28.5H35.1L37.4 33.9L28.5 33.4Z" fill="#604635"/>
<path d="M37.2 35.2H18.8C17.6 35.2 16.7 34.2 16.7 33.1V31.5H39.4V33.1C39.4 34.3 38.4 35.2 37.2 35.2Z" fill="#604635"/>
<path d="M38.8 26.5H38.3V24.1C38.3 18.8 33.4 14.5 28.1 14.5C22.8 14.5 17.9 18.8 17.9 24.1V26.5H17.3C15.8 26.5 14.5 27.7 14.5 29.3C14.5 30.8 15.7 32.1 17.3 32.1H23.6V38C23.6 39.2 24.6 40.2 25.8 40.2C27 40.2 28 39.2 28 38V34.9C28 36.1 29 37.1 30.2 37.1C31.4 37.1 32.4 36.1 32.4 34.9V32H38.7C40.2 32 41.5 30.8 41.5 29.2C41.5 27.7 40.3 26.5 38.8 26.5Z" fill="#B6E9DB"/>
<path d="M30.2 19.3C30.5313 19.3 30.8 19.0314 30.8 18.7C30.8 18.3686 30.5313 18.1 30.2 18.1C29.8686 18.1 29.6 18.3686 29.6 18.7C29.6 19.0314 29.8686 19.3 30.2 19.3Z" fill="#604635"/>
<path d="M25.8 19.3C26.1314 19.3 26.4 19.0314 26.4 18.7C26.4 18.3686 26.1314 18.1 25.8 18.1C25.4686 18.1 25.2 18.3686 25.2 18.7C25.2 19.0314 25.4686 19.3 25.8 19.3Z" fill="#604635"/>
<path d="M28 20.9C28.3314 20.9 28.6 20.6314 28.6 20.3C28.6 19.9686 28.3314 19.7 28 19.7C27.6687 19.7 27.4 19.9686 27.4 20.3C27.4 20.6314 27.6687 20.9 28 20.9Z" fill="#604635"/>
<path d="M32.7 20.9C33.0313 20.9 33.3 20.6314 33.3 20.3C33.3 19.9686 33.0313 19.7 32.7 19.7C32.3686 19.7 32.1 19.9686 32.1 20.3C32.1 20.6314 32.3686 20.9 32.7 20.9Z" fill="#604635"/>
<path d="M23.4 20.9C23.7314 20.9 24 20.6314 24 20.3C24 19.9686 23.7314 19.7 23.4 19.7C23.0686 19.7 22.8 19.9686 22.8 20.3C22.8 20.6314 23.0686 20.9 23.4 20.9Z" fill="#604635"/>
<path d="M30.2 22.8C30.5313 22.8 30.8 22.5314 30.8 22.2C30.8 21.8686 30.5313 21.6 30.2 21.6C29.8686 21.6 29.6 21.8686 29.6 22.2C29.6 22.5314 29.8686 22.8 30.2 22.8Z" fill="#604635"/>
<path d="M25.8 22.8C26.1314 22.8 26.4 22.5314 26.4 22.2C26.4 21.8686 26.1314 21.6 25.8 21.6C25.4686 21.6 25.2 21.8686 25.2 22.2C25.2 22.5314 25.4686 22.8 25.8 22.8Z" fill="#604635"/>
<path d="M19.1 35.2L20.9 41.1H27.6H28.5H35.1L36.9 35.2" stroke="#395C37" stroke-miterlimit="10" stroke-linecap="round" stroke-linejoin="round"/>
<path d="M23.6 35.2H18.4C17.5 35.2 16.7 34.4 16.7 33.5V32.1" stroke="#395C37" stroke-miterlimit="10" stroke-linecap="round" stroke-linejoin="round"/>
<path d="M39.4 32.1V33.5C39.4 34.4 38.6 35.2 37.7 35.2H32.4" stroke="#395C37" stroke-miterlimit="10" stroke-linecap="round" stroke-linejoin="round"/>
<path d="M38.8 26.5H38.3V24.1C38.3 18.8 33.4 14.5 28.1 14.5C22.8 14.5 17.9 18.8 17.9 24.1V26.5H17.3C15.8 26.5 14.5 27.7 14.5 29.3C14.5 30.8 15.7 32.1 17.3 32.1H23.6V38C23.6 39.2 24.6 40.2 25.8 40.2C27 40.2 28 39.2 28 38V34.9C28 36.1 29 37.1 30.2 37.1C31.4 37.1 32.4 36.1 32.4 34.9V32H38.7C40.2 32 41.5 30.8 41.5 29.2C41.5 27.7 40.3 26.5 38.8 26.5Z" stroke="#395C37" stroke-miterlimit="10" stroke-linecap="round" stroke-linejoin="round"/>
<path d="M30.2 19.3C30.5313 19.3 30.8 19.0314 30.8 18.7C30.8 18.3686 30.5313 18.1 30.2 18.1C29.8686 18.1 29.6 18.3686 29.6 18.7C29.6 19.0314 29.8686 19.3 30.2 19.3Z" fill="#395C37"/>
<path d="M25.8 19.3C26.1314 19.3 26.4 19.0314 26.4 18.7C26.4 18.3686 26.1314 18.1 25.8 18.1C25.4686 18.1 25.2 18.3686 25.2 18.7C25.2 19.0314 25.4686 19.3 25.8 19.3Z" fill="#395C37"/>
<path d="M28 20.9C28.3314 20.9 28.6 20.6314 28.6 20.3C28.6 19.9686 28.3314 19.7 28 19.7C27.6687 19.7 27.4 19.9686 27.4 20.3C27.4 20.6314 27.6687 20.9 28 20.9Z" fill="#395C37"/>
<path d="M32.7 20.9C33.0313 20.9 33.3 20.6314 33.3 20.3C33.3 19.9686 33.0313 19.7 32.7 19.7C32.3686 19.7 32.1 19.9686 32.1 20.3C32.1 20.6314 32.3686 20.9 32.7 20.9Z" fill="#395C37"/>
<path d="M23.4 20.9C23.7314 20.9 24 20.6314 24 20.3C24 19.9686 23.7314 19.7 23.4 19.7C23.0686 19.7 22.8 19.9686 22.8 20.3C22.8 20.6314 23.0686 20.9 23.4 20.9Z" fill="#395C37"/>
<path d="M30.2 22.8C30.5313 22.8 30.8 22.5314 30.8 22.2C30.8 21.8686 30.5313 21.6 30.2 21.6C29.8686 21.6 29.6 21.8686 29.6 22.2C29.6 22.5314 29.8686 22.8 30.2 22.8Z" fill="#395C37"/>
<path d="M25.8 22.8C26.1314 22.8 26.4 22.5314 26.4 22.2C26.4 21.8686 26.1314 21.6 25.8 21.6C25.4686 21.6 25.2 21.8686 25.2 22.2C25.2 22.5314 25.4686 22.8 25.8 22.8Z" fill="#395C37"/>
</g>
<defs>
<clipPath id="clip0_798_2315">
<rect width="28" height="27.6" fill="white" transform="translate(14 14)"/>
</clipPath>
</defs>
</svg>
