<svg width="56" height="56" viewBox="0 0 56 56" fill="none" xmlns="http://www.w3.org/2000/svg">
<circle cx="28" cy="28" r="27.5" stroke="#CFCFCF"/>
<path d="M19.6 34.7L21.4 40.6H28.1H29H35.6L37.4 34.7" stroke="#CFCFCF" stroke-miterlimit="10" stroke-linecap="round" stroke-linejoin="round"/>
<path d="M24.1 34.7H18.9C18 34.7 17.2 33.9 17.2 33V31.6" stroke="#CFCFCF" stroke-miterlimit="10" stroke-linecap="round" stroke-linejoin="round"/>
<path d="M39.9 31.6V33C39.9 33.9 39.1 34.7 38.2 34.7H32.9" stroke="#CFCFCF" stroke-miterlimit="10" stroke-linecap="round" stroke-linejoin="round"/>
<path d="M39.3 26H38.8V23.6C38.8 18.3 33.9 14 28.6 14C23.3 14 18.4 18.3 18.4 23.6V26H17.8C16.3 26 15 27.2 15 28.8C15 30.3 16.2 31.6 17.8 31.6H24.1V37.5C24.1 38.7 25.1 39.7 26.3 39.7C27.5 39.7 28.5 38.7 28.5 37.5V34.4C28.5 35.6 29.5 36.6 30.7 36.6C31.9 36.6 32.9 35.6 32.9 34.4V31.5H39.2C40.7 31.5 42 30.3 42 28.7C42 27.2 40.8 26 39.3 26Z" stroke="#CFCFCF" stroke-miterlimit="10" stroke-linecap="round" stroke-linejoin="round"/>
<path d="M30.8 18.2C30.8 18.2552 30.7552 18.3 30.7 18.3C30.6448 18.3 30.6 18.2552 30.6 18.2C30.6 18.1448 30.6448 18.1 30.7 18.1C30.7552 18.1 30.8 18.1448 30.8 18.2Z" fill="#CFCFCF" stroke="#CFCFCF"/>
<path d="M26.4 18.2C26.4 18.2552 26.3552 18.3 26.3 18.3C26.2448 18.3 26.2 18.2552 26.2 18.2C26.2 18.1448 26.2448 18.1 26.3 18.1C26.3552 18.1 26.4 18.1448 26.4 18.2Z" fill="#CFCFCF" stroke="#CFCFCF"/>
<path d="M28.6 19.8C28.6 19.8552 28.5552 19.9 28.5 19.9C28.4448 19.9 28.4 19.8552 28.4 19.8C28.4 19.7448 28.4448 19.7 28.5 19.7C28.5552 19.7 28.6 19.7448 28.6 19.8Z" fill="#CFCFCF" stroke="#CFCFCF"/>
<path d="M33.3 19.8C33.3 19.8552 33.2552 19.9 33.2 19.9C33.1448 19.9 33.1 19.8552 33.1 19.8C33.1 19.7448 33.1448 19.7 33.2 19.7C33.2552 19.7 33.3 19.7448 33.3 19.8Z" fill="#CFCFCF" stroke="#CFCFCF"/>
<path d="M24 19.8C24 19.8552 23.9552 19.9 23.9 19.9C23.8448 19.9 23.8 19.8552 23.8 19.8C23.8 19.7448 23.8448 19.7 23.9 19.7C23.9552 19.7 24 19.7448 24 19.8Z" fill="#CFCFCF" stroke="#CFCFCF"/>
<path d="M30.8 21.7C30.8 21.7552 30.7552 21.8 30.7 21.8C30.6448 21.8 30.6 21.7552 30.6 21.7C30.6 21.6448 30.6448 21.6 30.7 21.6C30.7552 21.6 30.8 21.6448 30.8 21.7Z" fill="#CFCFCF" stroke="#CFCFCF"/>
<path d="M26.4 21.7C26.4 21.7552 26.3552 21.8 26.3 21.8C26.2448 21.8 26.2 21.7552 26.2 21.7C26.2 21.6448 26.2448 21.6 26.3 21.6C26.3552 21.6 26.4 21.6448 26.4 21.7Z" fill="#CFCFCF" stroke="#CFCFCF"/>
</svg>
