<svg width="257" height="298" viewBox="0 0 257 298" fill="none" xmlns="http://www.w3.org/2000/svg">
<path d="M248.549 171.495C246.016 168.819 214.5 139.22 214.5 139.22L94.1784 169.448C65.1699 161.766 55.3014 159.375 25.9937 152.922L12.1779 171.366C43.3556 180.713 61.209 185.657 92.812 193.443L92.8075 193.448C100.444 201.852 109.158 209.399 118.264 216.419C155.923 245.452 201.027 265.957 248.595 275.335L248.549 171.495Z" fill="white"/>
<path d="M216.579 139.546C216.579 139.546 209.506 151.068 204.933 154.697L226.712 148.788L216.579 139.546Z" fill="#93AF8E"/>
<path d="M213.614 86.7662C216.153 68.6182 217.625 41.6961 217.625 41.6961C209.688 43.2264 187.119 54.0328 175.439 59.793C166.584 56.7716 156.907 54.8671 146.763 54.2928C124.432 53.0317 109.03 55.7133 98.1784 61.5893C89.284 53.2181 77.3322 42.129 75.9823 41.6961C75.9823 41.6961 74.5378 69.3533 76.7489 88.5851C74.0297 96.4137 72.2935 105.355 70.8159 115.186C65.8117 148.468 74.5287 176.077 146.763 176.077C188.707 176.077 222.71 148.815 222.71 115.186C222.71 104.728 219.412 95.118 213.614 86.7662Z" fill="white"/>
<path d="M187.905 64.5356L209.057 53.8013C209.768 53.4406 210.594 54.0208 210.497 54.8115L207.656 77.8569C207.564 78.5949 206.728 78.9768 206.11 78.5619L187.8 66.2507C187.169 65.8253 187.226 64.8783 187.905 64.5356Z" fill="#FFC08D"/>
<path d="M113.72 144.145C134.453 146.162 149.007 135.994 147.376 124.015C145.586 110.87 135.438 100.86 118.096 99.1736L118.256 99.1886C100.914 97.5021 89.027 105.368 84.7369 117.921C80.8256 129.361 93.1472 142.142 113.881 144.16" fill="#FFF3E5"/>
<path d="M86.7798 106.838C88.2907 106.838 89.5156 105.09 89.5156 102.933C89.5156 100.776 88.2907 99.0277 86.7798 99.0277C85.2688 99.0277 84.0439 100.776 84.0439 102.933C84.0439 105.09 85.2688 106.838 86.7798 106.838Z" fill="#3A3A3A"/>
<path d="M155.877 109.251C157.388 109.251 158.613 107.503 158.613 105.346C158.613 103.189 157.388 101.44 155.877 101.44C154.366 101.44 153.141 103.189 153.141 105.346C153.141 107.503 154.366 109.251 155.877 109.251Z" fill="#3A3A3A"/>
<path d="M116.346 113.583C116.416 112.481 114.842 111.484 112.831 111.356C110.821 111.228 109.134 112.018 109.064 113.12C108.994 114.222 110.567 115.219 112.578 115.347C114.589 115.474 116.276 114.685 116.346 113.583Z" fill="#3A3A3A"/>
<path d="M238.656 137.047C228.765 140.687 221.058 154.805 223.014 164.256C224.867 173.206 235.426 183.563 245.037 181.078C254.106 178.733 256.137 168.489 255.905 160.278C255.705 153.206 254.453 138.015 245.72 136.379C243.31 135.928 240.926 136.211 238.656 137.047Z" fill="white"/>
<path d="M163.336 56.0455C164.713 47.9193 163.702 38.619 156.919 32.8273C151.179 27.9269 142.901 26.1095 135.34 26.7393C121.261 27.9118 110.747 41.5473 111.785 55.3766L111.784 55.3721C119.121 53.3052 127.264 52.2334 136.105 52.2334C145.98 52.2334 154.982 53.5698 162.966 56.1357" fill="#93AF8E"/>
<path d="M139.832 25.4616C136.436 22.5034 132.426 19.6458 128.038 18.4417C127.143 18.1967 126.207 18.0103 125.293 18.1606C123.503 18.4538 122.506 20.0201 122.861 21.7503C123.464 24.689 128.783 26.6522 131.549 27.1663L131.808 27.1016C132.956 26.8265 134.135 26.6341 135.34 26.5334C139.721 26.1681 144.343 26.6251 148.571 28.0276L148.57 28.0306C151.203 27.3046 157.479 25.6405 158.115 22.5169C158.521 20.5222 156.822 18.5695 154.861 18.0224C149.216 16.4455 143.537 21.4977 140.188 25.5819L139.832 25.4616Z" fill="#93AF8E"/>
<path d="M108.731 56.2244C106.778 57.672 105.095 59.5916 104.865 61.9636C104.57 65.0031 106.874 67.8276 109.664 69.0707C112.454 70.3138 115.624 70.3033 118.674 70.1395C128.761 69.6013 138.9 68.7761 148.725 66.3123C153.56 65.0993 158.773 63.6472 163.182 61.2616C166.274 59.5886 165.89 57.6615 162.679 56.0816C154.769 53.5758 145.864 52.2711 136.108 52.2711C126.051 52.2711 116.896 53.6585 108.804 56.3191L108.731 56.2244Z" fill="#93AF8E"/>
<path d="M96.2589 169.412C114.879 172.498 132.326 175.803 149.968 182.51C151.527 183.103 144.196 187 143.776 187.223C139.387 189.562 135.211 192.627 130.632 194.558C129.798 194.91 128.932 195.269 128.026 195.248C126.536 195.214 125.282 194.181 124.146 193.215C113.467 184.122 108.72 175.848 96.2589 169.412Z" fill="#93AF8E"/>
<path d="M225.437 170.279C224.271 168.307 223.427 166.246 223.015 164.256C222.037 159.531 223.475 153.639 226.393 148.472L226.71 148.788C199.896 154.59 173.59 165.376 148.971 183.987C154.752 187.605 161.693 189.185 168.48 190.668C188.896 195.131 212.003 185.578 224.849 169.801" fill="#93AF8E"/>
<path d="M132.344 225.59C123.755 226.253 115.131 226.814 106.556 226.068C97.2645 225.26 87.9477 222.835 80.1522 217.714C76.0755 215.036 72.4859 211.672 68.4213 208.977C64.3566 206.28 59.59 204.23 54.7332 204.67C60.5175 200.198 69.6704 193.231 75.4532 188.759C81.499 190.309 87.6471 191.853 93.959 193.407L93.9544 193.412C101.589 201.816 110.305 209.363 119.411 216.383C123.364 219.43 127.399 222.384 131.512 225.242" fill="#93AF8E"/>
<path d="M141.819 52.271C141.183 43.7164 140.758 34.9693 143.405 26.837L143.3 27.1677C140.37 26.6521 137.361 26.5334 134.458 26.7754L133.996 26.8942C131.303 30.6416 129.839 35.1602 129.129 39.7209C128.484 43.8652 128.432 48.0741 128.436 52.2725L128.949 52.4589C130.999 52.3356 133.09 52.2725 135.223 52.2725C137.66 52.2725 140.044 52.3537 142.374 52.5145L141.819 52.271Z" fill="#EDEDD9"/>
<path d="M105.639 58.1666C102.625 59.1722 99.8815 60.3567 97.3802 61.7111C88.4858 53.3398 76.534 42.2508 75.1841 41.8179C75.1841 41.8179 73.7396 69.4766 75.9507 88.7069C73.2315 96.5355 71.4953 105.476 70.0177 115.307C66.4235 139.213 69.9079 160.191 98.924 170.114" stroke="#3A3A3A" stroke-width="3" stroke-miterlimit="10" stroke-linecap="round"/>
<path d="M203.538 155.016C214.988 144.355 221.91 130.478 221.91 115.304C221.91 104.848 218.612 95.2383 212.815 86.8866C215.354 68.7385 216.825 41.8164 216.825 41.8164C208.888 43.3467 186.319 54.1531 174.64 59.9133C170.882 58.6311 166.976 57.5503 162.949 56.686" stroke="#3A3A3A" stroke-width="3" stroke-miterlimit="10" stroke-linecap="round"/>
<path d="M125.092 175.292C131.376 175.886 138.314 176.196 145.963 176.196C151.206 176.196 156.325 175.77 161.269 174.958" stroke="#3A3A3A" stroke-width="3" stroke-miterlimit="10" stroke-linecap="round"/>
<path d="M161.876 55.9629C165.087 57.5427 165.472 59.4698 162.38 61.1429C157.972 63.5284 152.759 64.9805 147.922 66.1936C138.097 68.6588 127.958 69.4841 117.872 70.0207C114.822 70.183 111.652 70.1951 108.862 68.9519C106.072 67.7088 103.769 64.8843 104.063 61.8448C104.627 56.017 111.423 54.9602 115.969 53.8704C121.388 52.5717 126.939 52.2335 132.496 52.1673C133.433 52.1568 134.369 52.1523 135.306 52.1523C145.535 52.1523 154.829 53.5863 163.023 56.3372" stroke="#3A3A3A" stroke-width="3" stroke-miterlimit="10" stroke-linecap="round"/>
<path d="M110.953 54.7454C110.228 41.1054 120.65 27.8127 134.542 26.6568C142.103 26.0269 150.381 27.8443 156.12 32.7447C162.904 38.5365 163.914 47.8367 162.538 55.9629" stroke="#3A3A3A" stroke-width="3" stroke-miterlimit="10" stroke-linecap="round"/>
<path d="M138.967 26.2268C142.247 22.069 148.173 16.4966 154.063 18.1426C156.024 18.6913 157.723 20.6424 157.317 22.6372C156.683 25.7608 150.405 27.4248 147.772 28.1509" stroke="#3A3A3A" stroke-width="3" stroke-miterlimit="10" stroke-linecap="round"/>
<path d="M139.032 25.5835C135.636 22.6252 131.626 19.7676 127.238 18.5636C126.344 18.3185 125.407 18.1321 124.493 18.2825C122.703 18.5756 121.706 20.1419 122.063 21.8721C122.665 24.8108 127.985 26.774 130.751 27.2881" stroke="#3A3A3A" stroke-width="3" stroke-miterlimit="10" stroke-linecap="round"/>
<path d="M142.605 26.9588C141.361 35.315 141.267 43.5961 141.903 52.1508" stroke="#3A3A3A" stroke-width="3" stroke-miterlimit="10" stroke-linecap="round"/>
<path d="M134.081 26.7739C131.387 30.5214 129.923 35.04 129.213 39.6006C128.568 43.7449 128.516 47.9539 128.52 52.1523" stroke="#3A3A3A" stroke-width="3" stroke-miterlimit="10" stroke-linecap="round"/>
<path d="M159.079 119.578L192.492 115.73" stroke="#3A3A3A" stroke-width="3" stroke-miterlimit="10" stroke-linecap="round"/>
<path d="M159.079 130.072L195.035 131.888" stroke="#3A3A3A" stroke-width="3" stroke-miterlimit="10" stroke-linecap="round"/>
<path d="M60.292 113.67L78.452 115.73" stroke="#3A3A3A" stroke-width="3" stroke-miterlimit="10" stroke-linecap="round"/>
<path d="M58.1124 135.155L78.452 130.072" stroke="#3A3A3A" stroke-width="3" stroke-miterlimit="10" stroke-linecap="round"/>
<path d="M225.912 148.908C199.098 154.71 172.792 165.496 148.173 184.108C153.954 187.727 160.895 189.306 167.681 190.79C188.198 195.274 211.432 185.606 224.239 169.69" stroke="#3A3A3A" stroke-width="3" stroke-miterlimit="10" stroke-linecap="round"/>
<path d="M95.4592 169.532C114.079 172.618 131.527 175.924 149.168 182.631C150.727 183.223 143.396 187.119 142.977 187.343C138.587 189.682 134.411 192.747 129.833 194.679C128.998 195.031 128.133 195.39 127.226 195.369C125.736 195.334 124.481 194.302 123.346 193.335C112.668 184.244 107.921 175.969 95.4592 169.532Z" stroke="#3A3A3A" stroke-width="3" stroke-miterlimit="10" stroke-linecap="round"/>
<path d="M148.09 183.089C140.871 182.243 133.63 183.697 127.973 188.484C125.984 190.168 124.22 192.281 123.629 194.819C123.04 197.356 123.898 200.352 126.145 201.672C127.999 202.76 130.348 202.528 132.4 201.89C138.523 199.979 143.161 194.918 146.583 189.491C147.712 187.699 148.759 185.827 150.247 184.32C155.89 178.61 167.567 183.218 173.076 186.942C176.974 189.577 180.126 193.545 181.039 198.162C181.318 199.572 181.369 201.105 180.692 202.372C179.345 204.888 175.836 205.231 173.054 204.589C168.358 203.506 164.268 200.601 160.798 197.257C156.406 193.024 152.28 188.269 148.463 183.51" stroke="#3A3A3A" stroke-width="3" stroke-miterlimit="10" stroke-linecap="round"/>
<path d="M139.926 235.289C140.666 217.9 144.096 200.63 150.058 184.278" stroke="#3A3A3A" stroke-width="3" stroke-miterlimit="10" stroke-linecap="round"/>
<path d="M171.666 242.634C162.501 223.259 154.993 203.101 149.249 182.452" stroke="#3A3A3A" stroke-width="3" stroke-miterlimit="10" stroke-linecap="round"/>
<path d="M75.587 188.881C69.8027 193.353 60.6498 200.32 54.8655 204.792C59.7223 204.352 64.4904 206.404 68.5535 209.099C72.6182 211.796 76.2078 215.158 80.2844 217.835C88.08 222.957 97.3967 225.381 106.688 226.19C115.164 226.928 123.691 226.387 132.181 225.735" stroke="#3A3A3A" stroke-width="3" stroke-miterlimit="10" stroke-linecap="round"/>
<path d="M88 187C96.7838 197.628 107.563 206.829 118.962 215.23C156.248 242.712 200.905 262.122 248 271" stroke="#3A3A3A" stroke-width="3" stroke-miterlimit="10" stroke-linecap="round"/>
<path d="M237.856 137.168C227.965 140.809 220.259 154.927 222.214 164.377C224.068 173.327 234.628 183.684 244.237 181.2C253.306 178.855 255.337 168.61 255.105 160.4C254.906 153.327 253.653 138.136 244.92 136.501C242.51 136.048 240.126 136.332 237.856 137.168Z" stroke="#3A3A3A" stroke-width="3" stroke-miterlimit="10" stroke-linecap="round"/>
<path d="M95.4591 169.532C76.6497 164.469 57.7366 159.811 38.7347 155.558" stroke="#3A3A3A" stroke-width="3" stroke-miterlimit="10" stroke-linecap="round"/>
<path d="M94.0928 193.529C62.4882 185.742 34.9934 178.24 3.81573 168.893" stroke="#3A3A3A" stroke-width="3" stroke-miterlimit="10" stroke-linecap="round"/>
<path d="M247.797 179.681V296" stroke="#3A3A3A" stroke-width="3" stroke-miterlimit="10" stroke-linecap="round"/>
<path d="M247.797 1.5V137.669" stroke="#3A3A3A" stroke-width="3" stroke-miterlimit="10" stroke-linecap="round"/>
<path d="M215.779 139.304C215.779 139.304 223.378 146.233 225.91 148.908" stroke="#3A3A3A" stroke-width="3" stroke-miterlimit="10" stroke-linecap="round"/>
<path d="M134.441 116.095C131.361 118.213 125.036 121.325 121.299 121.236C117.479 121.144 113.577 118.987 111.922 115.543C109.518 118.82 109.129 119.829 105.068 119.975C101.006 120.119 95.4742 117.541 95.4742 113.845" stroke="#3A3A3A" stroke-width="3" stroke-miterlimit="10" stroke-linecap="round"/>
<path d="M183.002 163.498C179.187 172.83 173.703 182.133 169.073 191.088" stroke="#3A3A3A" stroke-width="3" stroke-miterlimit="10" stroke-linecap="round"/>
<path d="M202.38 155.558C198.715 167.48 192.714 179.847 187.312 191.089" stroke="#3A3A3A" stroke-width="3" stroke-miterlimit="10" stroke-linecap="round"/>
<path d="M209.909 182.33C211.968 172.322 215.053 161.004 217.112 150.998" stroke="#3A3A3A" stroke-width="3" stroke-miterlimit="10" stroke-linecap="round"/>
<path d="M183.002 163.498L209.909 182.33" stroke="#3A3A3A" stroke-width="3" stroke-miterlimit="10" stroke-linecap="round"/>
<path d="M116.889 186.77C121.015 183.061 126.45 179.632 132.343 177.294" stroke="#3A3A3A" stroke-width="3" stroke-miterlimit="10" stroke-linecap="round"/>
<path d="M110.647 172.206C111.752 174.958 112.968 180.275 112.851 183.235" stroke="#3A3A3A" stroke-width="3" stroke-miterlimit="10" stroke-linecap="round"/>
<path d="M125.092 174.958C126.196 177.711 128.415 192.269 128.299 195.23" stroke="#3A3A3A" stroke-width="3" stroke-miterlimit="10" stroke-linecap="round"/>
<path d="M96.9007 196.988C89.1759 202.187 80.5866 207.705 72.6603 212.095" stroke="#3A3A3A" stroke-width="3" stroke-miterlimit="10" stroke-linecap="round"/>
<path d="M109.066 208.513C104.528 214.115 98.1829 219.039 92.5234 223.507" stroke="#3A3A3A" stroke-width="3" stroke-miterlimit="10" stroke-linecap="round"/>
<path d="M96.9007 196.988C99.0668 205.861 102.245 216.699 103.098 225.793" stroke="#3A3A3A" stroke-width="3" stroke-miterlimit="10" stroke-linecap="round"/>
<path d="M75.2968 189.515C76.9519 198.004 79.366 210.052 81.5576 218.638" stroke="#3A3A3A" stroke-width="3" stroke-miterlimit="10" stroke-linecap="round"/>
<path d="M37.8794 134.215L31.1827 144.236L31.0925 144.387C33.9997 146.114 36.0816 149.287 35.8817 152.642C35.8005 153.993 35.3766 155.301 34.8686 156.556C32.7866 161.714 29.1399 166.321 24.2981 169.055C19.4564 171.791 18.135 173.604 12.9596 171.566L3.66985 185.412C1.73976 188.302 3.05956 192.573 6.61911 194.951C10.1787 197.33 14.6311 196.914 16.5627 194.025L50.7708 142.825L51.082 142.093C68.7445 149.61 89.8101 143.761 100.863 127.217C113.361 108.511 108.328 83.2173 89.6223 70.7183C70.9166 58.2192 45.6224 63.2534 33.1249 81.9591C22.1892 98.3258 24.6754 119.739 37.9997 133.209L37.8794 134.215Z" fill="#EA7434"/>
<path d="M96.1001 116.994C102.948 100.919 95.4675 82.3361 79.3923 75.4884C63.3172 68.6407 44.7346 76.1211 37.8869 92.1962C31.0392 108.271 38.5196 126.854 54.5947 133.702C70.6699 140.549 89.2525 133.069 96.1001 116.994Z" fill="white"/>
<path d="M12.9611 171.569C18.135 173.607 19.4563 171.793 24.2996 169.058C29.1414 166.323 32.7866 161.715 34.87 156.559C35.3766 155.304 35.802 153.998 35.8832 152.645C36.1267 148.567 32.9956 144.755 29.1128 143.488C25.2301 142.22 20.8648 143.184 17.3759 145.307C13.887 147.429 11.1587 150.604 8.79872 153.938C6.26434 157.521 4.32823 161.503 3.17228 165.738C1.863 170.542 4.72357 177.279 6.85059 180.657" fill="white"/>
<path d="M95.3168 116.792C102.164 100.717 94.6841 82.1342 78.6089 75.2865C62.5338 68.4389 43.9512 75.9192 37.1035 91.9944C30.2558 108.07 37.7362 126.652 53.8113 133.5C69.8865 140.347 88.4691 132.867 95.3168 116.792Z" stroke="#3A3A3A" stroke-width="3" stroke-miterlimit="10" stroke-linecap="round"/>
<path d="M103.685 120.357C112.501 99.6599 102.87 75.7348 82.1736 66.9184C61.4769 58.1021 37.5518 67.733 28.7354 88.4298C19.919 109.127 29.55 133.052 50.2467 141.868C70.9435 150.684 94.8686 141.053 103.685 120.357Z" stroke="#3A3A3A" stroke-width="3" stroke-miterlimit="10" stroke-linecap="round"/>
<path d="M12.1779 171.367L2.88818 185.213C0.95808 188.104 2.27788 192.374 5.83743 194.752C9.39699 197.132 13.8494 196.716 15.781 193.826L49.9891 142.626" stroke="#3A3A3A" stroke-width="3" stroke-miterlimit="10" stroke-linecap="round"/>
<path d="M37.0963 134.013L30.3996 144.036" stroke="#3A3A3A" stroke-width="3" stroke-miterlimit="10" stroke-linecap="round"/>
<path d="M7.43983 170.271C12.6138 172.31 18.6732 171.593 23.5149 168.857C28.3567 166.121 32.002 161.514 34.0854 156.358C34.592 155.103 35.0174 153.796 35.0985 152.444C35.342 148.365 32.2109 144.553 28.3282 143.288C24.4454 142.022 20.0802 142.984 16.5913 145.107C13.1008 147.229 10.3741 150.404 8.01405 153.738C5.47967 157.321 3.54357 161.303 2.38761 165.538C1.07833 170.342 3.93891 177.079 6.06592 180.457" stroke="#3A3A3A" stroke-width="3" stroke-miterlimit="10" stroke-linecap="round"/>
<path d="M37.0963 134.013L30.3996 144.036" stroke="#3A3A3A" stroke-width="3" stroke-miterlimit="10" stroke-linecap="round"/>
<path d="M58.1124 98.7677C58.1124 98.7677 70.4611 95.9703 74.0928 103.235C74.0928 103.234 63.1962 108.465 58.1124 98.7677Z" stroke="#3A3A3A" stroke-width="3" stroke-miterlimit="10" stroke-linecap="round"/>
<path d="M66.1019 105.346C67.6128 105.346 68.8377 103.597 68.8377 101.441C68.8377 99.2837 67.6128 97.5352 66.1019 97.5352C64.5909 97.5352 63.3661 99.2837 63.3661 101.441C63.3661 103.597 64.5909 105.346 66.1019 105.346Z" fill="#3A3A3A"/>
<path d="M35.3481 109.251L46.8911 109.879" stroke="#3A3A3A" stroke-width="3" stroke-miterlimit="10" stroke-linecap="round"/>
<path d="M38.7347 120.066L46.8911 117.654" stroke="#3A3A3A" stroke-width="3" stroke-miterlimit="10" stroke-linecap="round"/>
</svg>
