<svg width="42" height="42" viewBox="0 0 42 42" fill="none" xmlns="http://www.w3.org/2000/svg">
<path d="M42 21C42 9.40202 32.598 0 21 0C9.40202 0 0 9.40202 0 21C0 32.598 9.40202 42 21 42C32.598 42 42 32.598 42 21Z" fill="#FEE500"/>
<path d="M21 13C16.0289 13 12 16.0633 12 19.8419C12 22.2717 13.6687 24.4032 16.1764 25.619L15.3282 28.6663C15.3124 28.7113 15.31 28.7596 15.3214 28.8057C15.3328 28.8519 15.3576 28.894 15.3927 28.9272C15.4367 28.9708 15.4961 28.9966 15.5591 28.9996C15.6221 29.0025 15.6839 28.9824 15.732 28.9432L19.3755 26.572C19.9123 26.6468 20.4539 26.6848 20.9963 26.6856C25.9748 26.6856 29.9963 23.6223 29.9963 19.8419C29.9963 16.0616 25.9693 13 21 13Z" fill="black"/>
</svg>
