<svg width="16" height="21" viewBox="0 0 16 21" fill="none" xmlns="http://www.w3.org/2000/svg">
<g clip-path="url(#clip0_438_1207)">
<path d="M8.00986 1.53954C8.87871 1.54109 9.7385 1.72353 10.5388 2.07604C11.339 2.42855 12.0636 2.94404 12.67 3.59232C13.2666 4.21627 13.7377 4.95797 14.0558 5.77397C14.3738 6.58998 14.5324 7.46389 14.5222 8.34453C14.5222 12.7375 10 17.5821 8.06897 19.4604C8.05806 19.4652 8.04633 19.4676 8.03448 19.4676C8.02264 19.4676 8.01093 19.4652 8.00001 19.4604C7.97451 19.4698 7.94669 19.4698 7.92119 19.4604C5.95075 17.6129 1.52711 12.8299 1.4877 8.34453C1.47749 7.46389 1.63604 6.58998 1.95409 5.77397C2.27214 4.95797 2.74327 4.21627 3.3399 3.59232C3.94742 2.9428 4.6736 2.42659 5.47564 2.07403C6.27768 1.72148 7.13935 1.53972 8.00986 1.53954ZM8.00986 -5.04761e-05C6.95782 -0.00548978 5.91519 0.206429 4.94223 0.62334C3.96926 1.04025 3.08527 1.65393 2.34136 2.42893C1.59745 3.20392 1.00838 4.12487 0.608189 5.13849C0.208 6.15211 0.00464255 7.23832 0.00986367 8.33432C0.00986367 13.3739 4.74878 18.4751 6.90642 20.5586C7.1974 20.8428 7.58146 21.0006 7.9803 21C8.38218 21.0012 8.76952 20.8435 9.06405 20.5586C11.2315 18.434 15.9606 13.2815 15.9606 8.33432C15.9658 7.23919 15.7628 6.15382 15.3632 5.14087C14.9636 4.12793 14.3754 3.20742 13.6326 2.43256C12.8897 1.6577 12.0069 1.04381 11.0351 0.626285C10.0632 0.208764 9.02167 -0.00413007 7.97046 -5.04761e-05H8.00986Z" fill="#EA7434"/>
<path d="M7.99997 11.5264C9.83911 11.5264 11.33 9.97318 11.33 8.05719C11.33 6.1412 9.83911 4.58798 7.99997 4.58798C6.16084 4.58798 4.66992 6.1412 4.66992 8.05719C4.66992 9.97318 6.16084 11.5264 7.99997 11.5264Z" fill="#EA7434"/>
</g>
<defs>
<clipPath id="clip0_438_1207">
<rect width="16" height="21" fill="white"/>
</clipPath>
</defs>
</svg>
