<svg width="56" height="56" viewBox="0 0 56 56" fill="none" xmlns="http://www.w3.org/2000/svg">
<circle cx="28" cy="28" r="27.5" stroke="#CFCFCF"/>
<g clip-path="url(#clip0_787_2395)">
<path d="M20.7 28.3C20.7 28.3 14.4 26.3 13.5 26.3" stroke="#CFCFCF" stroke-miterlimit="10"/>
<path d="M34.3 33.2C34.6 33.1 35 32.9 35 32.9C40.7 29.9 41.5 26.3 41.5 26.3C40.6 25.6 39.3 24.6 38.4 23.9C36.5 22.5 34.7 21 32.5 20.6C30.6 20.2 29 21 27.5 22.4C26 21.1 24.5 20.3 22.5 20.6C20.4 21 18.5 22.5 16.6 23.9C15.7 24.6 14.4 25.6 13.5 26.3C13.5 26.3 14.2 29.9 20 32.9C20 32.9 20.4 33.1 20.7 33.2" stroke="#CFCFCF" stroke-miterlimit="10"/>
<path d="M41.8 26.3001C38.7 25.7001 34.6 25.6001 31.6 24.8001C31.3 24.7001 31 24.6001 30.8 24.7001C30.6 24.8001 30.5 24.9001 30.3 25.0001C29.5 25.6001 28.5 25.9001 27.5 25.8001C26.5 25.9001 25.5 25.6001 24.7 25.0001C24.5 24.9001 24.4 24.7001 24.2 24.7001C23.9 24.6001 23.6 24.7001 23.4 24.8001C20.4 25.6001 16.3 25.8001 13.2 26.3001" stroke="#CFCFCF" stroke-miterlimit="10"/>
<path d="M34.2 28.3C34.2 28.3 40.5 26.3 41.4 26.3" stroke="#CFCFCF" stroke-miterlimit="10"/>
<path d="M27.5 38.7C35.2 38.9 34.2 32.9 34.2 32.9V28.3C31.4 27.7 27.5 29 27.5 29C27.5 29 23.6 27.7 20.8 28.4V33C20.7 32.9 19.7 39 27.5 38.7Z" stroke="#CFCFCF" stroke-miterlimit="10"/>
<path d="M27.5 29V35.4" stroke="#CFCFCF" stroke-miterlimit="10"/>
</g>
<defs>
<clipPath id="clip0_787_2395">
<rect width="29" height="19.2" fill="white" transform="translate(13 20)"/>
</clipPath>
</defs>
</svg>
