<svg width="56" height="56" viewBox="0 0 56 56" fill="none" xmlns="http://www.w3.org/2000/svg">
<circle cx="28" cy="28" r="27.5" stroke="#494949"/>
<path d="M23.9 31.0999L21.4 31.4999C20.5 31.6999 19.6 30.9999 19.4 30.0999L18.5 24.8999C18.4 23.8999 19 23.0999 19.9 22.8999L30 21.1999C30.9 20.9999 31.8 21.6999 32 22.5999L32.9 27.8999C33.1 28.7999 32.4 29.6999 31.5 29.8999L30.3 30.0999" fill="#E5E3E6"/>
<path d="M24.3 34.5036C24.1 33.5036 23.4 33.4036 23.4 33.4036C22.8 33.2036 22.3 31.7036 22.3 31.7036L21.8 28.9036C22.2 27.6036 23.5 28.5036 23.5 28.5036L23.6 29.2036L23 26.1036C22.9 25.6036 23.1 25.1036 23.5 24.9036C24.9 23.9036 26.7 25.0036 27.6 25.6036C27.9 25.8036 28.1 26.1036 28.1 26.4036L28.8 30.2036C28.8 30.2036 29.2 32.3036 28.8 34.0036L24.3 34.5036Z" fill="#F3DDBF"/>
<path d="M32 36.8999L31.3 34.1999C31.2 33.6999 30.7 33.3999 30.2 33.4999L26.1 34.3999C25.6 34.4999 25.3 34.9999 25.4 35.5999L26.1 38.2999" fill="#E5E3E6"/>
<path d="M23.7109 30.5001L22.9109 25.8001C22.8109 25.3001 23.0109 24.8001 23.4109 24.6001C24.8109 23.6001 26.6109 24.7001 27.5109 25.3001C27.8109 25.5001 28.0109 25.8001 28.0109 26.1001L28.7109 29.9001C28.7109 29.9001 29.1109 32.0001 28.7109 33.7001" stroke="#494949" stroke-miterlimit="10" stroke-linecap="round" stroke-linejoin="round"/>
<path d="M23.3109 28.3C23.3109 28.3 22.0109 27.5 21.6109 28.7L22.1109 31.5C22.1109 31.5 22.6109 33 23.2109 33.2C23.2109 33.2 23.9109 33.4 24.1109 34.3" stroke="#494949" stroke-miterlimit="10" stroke-linecap="round" stroke-linejoin="round"/>
<path d="M30.5109 37.4001L29.8109 34.7001C29.7109 34.2001 29.2109 33.9001 28.7109 34.0001L24.6109 34.9001C24.1109 35.0001 23.8109 35.5001 23.9109 36.1001L24.6109 38.8001" stroke="#494949" stroke-miterlimit="10" stroke-linecap="round" stroke-linejoin="round"/>
<path d="M22 31.7L19.9109 32.0999C19.0109 32.2999 18.1109 31.5999 17.9109 30.6999L17.0109 25.3999C16.9109 24.3999 17.5109 23.5999 18.4109 23.3999L28.5109 21.6999C29.4109 21.4999 30.3109 22.1999 30.5109 23.0999L31.4109 28.3999C31.6109 29.2999 30.9109 30.1999 30.0109 30.3999L28.8109 30.5999" stroke="#494949" stroke-miterlimit="10" stroke-linecap="round" stroke-linejoin="round"/>
<path d="M21.1109 20.8C22.4109 18 25.3109 16 28.6109 16C31.3109 16 33.7109 17.3 35.2109 19.3" stroke="#494949" stroke-miterlimit="10" stroke-linecap="round" stroke-linejoin="round"/>
<path d="M31.1109 26.6001C32.8109 27.1001 34.2109 28.1001 35.3109 29.5001" stroke="#494949" stroke-miterlimit="10" stroke-linecap="round" stroke-linejoin="round"/>
<path d="M36.6109 18.3999C36.6109 18.3999 36.5109 20.1999 37.6109 20.2999C37.6109 20.2999 36.8109 20.5999 36.6109 21.8999C36.4109 20.5999 35.6109 20.2999 35.6109 20.2999C36.7109 20.1999 36.6109 18.3999 36.6109 18.3999Z" fill="#494949"/>
<path d="M34.0109 20.5C34.0109 20.5 33.8609 23.2 35.5109 23.35C35.5109 23.35 34.3109 23.8 34.0109 25.75C33.7109 23.8 32.5109 23.35 32.5109 23.35C34.1609 23.2 34.0109 20.5 34.0109 20.5Z" fill="#494949"/>
<path d="M38.1109 26.1001C38.1109 26.1001 37.9609 28.8001 39.6109 28.9501C39.6109 28.9501 38.4109 29.4001 38.1109 31.3501C37.8109 29.4001 36.6109 28.9501 36.6109 28.9501C38.2609 28.8001 38.1109 26.1001 38.1109 26.1001Z" fill="#494949"/>
</svg>
