<svg width="56" height="56" viewBox="0 0 56 56" fill="none" xmlns="http://www.w3.org/2000/svg">
<circle cx="28" cy="28" r="27.5" stroke="#CFCFCF"/>
<g clip-path="url(#clip0_787_2397)">
<path d="M24.2 31.0001L23.4 26.3001C23.3 25.8001 23.5 25.3001 23.9 25.1001C25.3 24.1001 27.1 25.2001 28 25.8001C28.3 26.0001 28.5 26.3001 28.5 26.6001L29.2 30.4001C29.2 30.4001 29.6 32.5001 29.2 34.2001" stroke="#CFCFCF" stroke-miterlimit="10"/>
<path d="M23.8 28.8C23.8 28.8 22.5 28 22.1 29.2L22.6 32C22.6 32 23.1 33.5 23.7 33.7C23.7 33.7 24.4 33.9 24.6 34.8" stroke="#CFCFCF" stroke-miterlimit="10"/>
<path d="M31 37.9001L30.3 35.2001C30.2 34.7001 29.7 34.4001 29.2 34.5001L25.1 35.4001C24.6 35.5001 24.3 36.0001 24.4 36.6001L25.1 39.3001" stroke="#CFCFCF" stroke-miterlimit="10"/>
<path d="M22.9 32.0999L20.4 32.4999C19.5 32.6999 18.6 31.9999 18.4 31.0999L17.5 25.8999C17.4 24.8999 18 24.0999 18.9 23.8999L29 22.1999C29.9 21.9999 30.8 22.6999 31 23.5999L31.9 28.8999C32.1 29.7999 31.4 30.6999 30.5 30.8999L29.3 31.0999" stroke="#CFCFCF" stroke-miterlimit="10"/>
<path d="M21.6 21.3C22.9 18.5 25.8 16.5 29.1 16.5C31.8 16.5 34.2 17.8 35.7 19.8" stroke="#CFCFCF" stroke-miterlimit="10"/>
<path d="M31.6 27.1001C33.3 27.6001 34.7 28.6001 35.8 30.0001" stroke="#CFCFCF" stroke-miterlimit="10"/>
<path d="M37.1 18.8999C37.1 18.8999 37 20.6999 38.1 20.7999C38.1 20.7999 37.3 21.0999 37.1 22.3999C36.9 21.0999 36.1 20.7999 36.1 20.7999C37.2 20.6999 37.1 18.8999 37.1 18.8999Z" fill="#CFCFCF"/>
<path d="M35.4 21.5C35.4 21.5 35.25 24.2 36.9 24.35C36.9 24.35 35.7 24.8 35.4 26.75C35.1 24.8 33.9 24.35 33.9 24.35C35.55 24.2 35.4 21.5 35.4 21.5Z" fill="#CFCFCF"/>
<path d="M38.6 26.6001C38.6 26.6001 38.45 29.3001 40.1 29.4501C40.1 29.4501 38.9 29.9001 38.6 31.8501C38.3 29.9001 37.1 29.4501 37.1 29.4501C38.75 29.3001 38.6 26.6001 38.6 26.6001Z" fill="#CFCFCF"/>
</g>
<defs>
<clipPath id="clip0_787_2397">
<rect width="23" height="23" fill="white" transform="translate(17 16)"/>
</clipPath>
</defs>
</svg>
