<svg width="56" height="56" viewBox="0 0 56 56" fill="none" xmlns="http://www.w3.org/2000/svg">
<circle cx="28" cy="28" r="27.5" stroke="#494949"/>
<g clip-path="url(#clip0_787_2405)">
<path d="M34.2 33.2C34.5 33.1 34.9 32.9 34.9 32.9C40.6 29.9 41.4 26.3 41.4 26.3C40.5 25.6 39.2 24.6 38.3 23.9C36.4 22.5 34.6 21 32.4 20.6C30.5 20.2 28.9 21 27.4 22.4C25.9 21.1 24.4 20.3 22.4 20.6C20.3 21 18.5 22.5 16.6 23.9C15.7 24.6 14.4 25.6 13.5 26.3C13.5 26.3 14.2 29.9 20 32.9C20 32.9 20.4 33.1 20.7 33.2" fill="#E5E3E6"/>
<path d="M34.2 28.3001C34.2 28.3001 40.5 26.3001 41.4 26.3001H41.8C38.7 25.7001 34.6 25.6001 31.6 24.8001C31.3 24.7001 31 24.6001 30.8 24.7001C30.6 24.8001 30.5 24.9001 30.3 25.0001C29.5 25.6001 28.5 25.9001 27.5 25.8001C26.5 25.9001 25.5 25.6001 24.7 25.0001C24.5 24.9001 24.4 24.7001 24.2 24.7001C23.9 24.6001 23.6 24.7001 23.4 24.8001C20.4 25.6001 16.3 25.8001 13.2 26.3001H13.6C14.5 26.3001 20.8 28.3001 20.8 28.3001" fill="white"/>
<path d="M27.4 38.7C35.1 38.9 34.1 32.9 34.1 32.9V28.3C31.3 27.7 27.4 29 27.4 29C27.4 29 23.5 27.7 20.7 28.4V33C20.7 32.9 19.7 39 27.4 38.7Z" fill="#E88385"/>
<path d="M20.9 28.3C20.9 28.3 14.8 26.3 13.9 26.3" stroke="#494949" stroke-miterlimit="10" stroke-linecap="round" stroke-linejoin="round"/>
<path d="M34.2 33.2C34.5 33.1 34.9 32.9 34.9 32.9C40.6 29.9 41.4 26.3 41.4 26.3C40.5 25.6 39.2 24.6 38.3 23.9C36.4 22.5 34.6 21 32.4 20.6C30.5 20.2 28.9 21 27.4 22.4C25.9 21.1 24.4 20.3 22.4 20.6C20.3 21 18.5 22.5 16.6 23.9C15.7 24.6 14.4 25.6 13.5 26.3C13.5 26.3 14.2 29.9 20 32.9C20 32.9 20.4 33.1 20.7 33.2" stroke="#494949" stroke-miterlimit="10" stroke-linecap="round" stroke-linejoin="round"/>
<path d="M41.3 26.3001C38.3 25.7001 34.3 25.6001 31.4 24.8001C31.1 24.7001 30.9 24.6001 30.6 24.7001C30.4 24.8001 30.3 24.9001 30.1 25.0001C29.3 25.6001 28.3 25.9001 27.4 25.8001C26.4 25.9001 25.4 25.6001 24.7 25.0001C24.5 24.9001 24.4 24.7001 24.2 24.7001C23.9 24.6001 23.7 24.7001 23.4 24.8001C20.5 25.6001 16.5 25.8001 13.5 26.3001" stroke="#494949" stroke-miterlimit="10" stroke-linecap="round" stroke-linejoin="round"/>
<path d="M34 28.3C34 28.3 40.1 26.3 41 26.3" stroke="#494949" stroke-miterlimit="10" stroke-linecap="round" stroke-linejoin="round"/>
<path d="M27.4 38.7C35.1 38.9 34.1 32.9 34.1 32.9V28.3C31.3 27.7 27.4 29 27.4 29C27.4 29 23.5 27.7 20.7 28.4V33C20.7 32.9 19.7 39 27.4 38.7Z" stroke="#494949" stroke-miterlimit="10" stroke-linecap="round" stroke-linejoin="round"/>
<path d="M27.4 29V35.4" stroke="#494949" stroke-miterlimit="10" stroke-linecap="round" stroke-linejoin="round"/>
</g>
<defs>
<clipPath id="clip0_787_2405">
<rect width="29" height="19.2" fill="white" transform="translate(13 20)"/>
</clipPath>
</defs>
</svg>
