<svg width="25" height="24" viewBox="0 0 25 24" fill="none" xmlns="http://www.w3.org/2000/svg">
<path d="M11.6359 1.48359C12.0216 0.821321 12.9784 0.821321 13.3641 1.48359L16.6425 7.11226C16.7838 7.35487 17.0206 7.52689 17.295 7.58631L23.6613 8.9649C24.4103 9.12711 24.706 10.037 24.1953 10.6085L19.8552 15.4658C19.6681 15.6752 19.5777 15.9536 19.606 16.2329L20.2622 22.7136C20.3394 23.4761 19.5653 24.0385 18.864 23.7294L12.9032 21.1027C12.6463 20.9895 12.3537 20.9895 12.0968 21.1027L6.13601 23.7294C5.43467 24.0385 4.66065 23.4761 4.73785 22.7136L5.39401 16.2329C5.4223 15.9536 5.33186 15.6752 5.14479 15.4658L0.804688 10.6085C0.294034 10.037 0.589686 9.12711 1.33874 8.9649L7.70501 7.58631C7.9794 7.52689 8.21618 7.35487 8.35748 7.11226L11.6359 1.48359Z" fill="#CFCFCF"/>
</svg>
