<svg width="244" height="371" viewBox="0 0 244 371" fill="none" xmlns="http://www.w3.org/2000/svg">
<path d="M234.495 179.826C232.329 177.533 205.575 152.436 205.575 152.436L103.657 178.042C79.0694 171.545 54.3543 165.558 29.5117 160.079L25.9446 177.533C52.3159 185.432 75.6297 191.801 102.511 198.426C109.008 205.56 116.397 211.93 124.041 217.918C156.018 242.506 194.237 259.959 234.495 267.858V179.826Z" fill="white"/>
<path d="M207.486 152.687C207.486 152.687 201.499 162.497 197.677 165.554L216.149 160.586L207.486 152.687Z" fill="#93AF8E"/>
<path d="M23.6515 128.487L21.7406 138.552V138.679C24.5433 139.061 27.2187 140.845 28.2378 143.52C28.62 144.539 28.7474 145.813 28.7474 146.96C28.8748 151.673 27.4735 156.515 24.6707 160.209C21.7406 163.904 21.3584 165.815 16.6447 165.942L13.9693 179.828C13.4597 182.759 15.8803 185.561 19.4474 186.326C23.0145 186.963 26.3269 185.179 26.8365 182.249L36.5187 130.908V130.271C52.8256 130.271 67.2215 118.677 70.4065 102.116C73.9736 83.3883 61.616 65.2979 42.8886 61.8581C24.1611 58.4184 6.07065 70.5212 2.63092 89.2486C-0.554024 105.683 8.61861 121.608 23.3967 127.595L23.6515 128.487Z" fill="#EA7434"/>
<path d="M204.938 107.973C207.104 92.5575 208.378 69.7534 208.378 69.7534C201.626 71.0273 182.516 80.2 172.579 85.0411C165.063 82.4931 156.909 80.837 148.246 80.3274C129.264 79.3082 116.269 81.4739 107.097 86.5698C99.5804 79.4356 89.3886 70.1355 88.242 69.7534C88.242 69.7534 86.968 93.1945 88.879 109.501C86.5858 116.126 85.0571 123.77 83.9105 132.051C79.7064 160.206 87.0954 183.647 148.246 183.647C183.79 183.647 212.582 160.588 212.582 132.051C212.582 123.26 209.779 115.107 204.938 107.973Z" fill="white"/>
<path d="M183.153 89.1185L201.117 80.0733C201.754 79.8185 202.39 80.2007 202.39 80.9651L199.843 100.457C199.715 101.094 199.078 101.349 198.569 101.094L183.026 90.6473C182.516 90.2651 182.516 89.5007 183.153 89.1185Z" fill="#FFC08D"/>
<path d="M120.219 156.639C137.8 158.295 150.157 149.759 148.756 139.568C147.227 128.484 138.692 119.948 123.913 118.547H124.041C109.39 117.146 99.3257 123.77 95.6311 134.472C92.3188 144.154 102.765 154.983 120.346 156.766" fill="#FFF3E5"/>
<path d="M97.4147 125.048C98.6812 125.048 99.7079 123.565 99.7079 121.736C99.7079 119.907 98.6812 118.424 97.4147 118.424C96.1483 118.424 95.1216 119.907 95.1216 121.736C95.1216 123.565 96.1483 125.048 97.4147 125.048Z" fill="#3A3A3A"/>
<path d="M156.018 127.081C157.284 127.081 158.311 125.598 158.311 123.769C158.311 121.939 157.284 120.456 156.018 120.456C154.751 120.456 153.724 121.939 153.724 123.769C153.724 125.598 154.751 127.081 156.018 127.081Z" fill="#3A3A3A"/>
<path d="M122.565 130.832C122.623 129.919 121.304 129.093 119.619 128.986C117.934 128.878 116.521 129.532 116.462 130.444C116.404 131.357 117.724 132.184 119.409 132.291C121.094 132.398 122.507 131.745 122.565 130.832Z" fill="#3A3A3A"/>
<path d="M36.5186 122.498C51.2942 122.498 63.2722 110.52 63.2722 95.7442C63.2722 80.9686 51.2942 68.9907 36.5186 68.9907C21.7431 68.9907 9.76514 80.9686 9.76514 95.7442C9.76514 110.52 21.7431 122.498 36.5186 122.498Z" fill="white"/>
<path d="M16.6447 165.81C21.3584 165.683 21.7406 163.772 24.6707 160.078C27.6008 156.383 28.8748 151.542 28.7474 146.828C28.7474 145.682 28.62 144.535 28.2378 143.388C27.0913 140.076 23.3967 138.165 19.957 138.547C16.5173 138.802 13.4597 141.095 11.4213 143.898C9.38298 146.701 8.3638 150.141 7.59942 153.453C6.83503 157.147 6.58024 160.842 7.08983 164.536C7.72681 168.741 12.1857 173.072 14.8611 174.983" fill="white"/>
<path d="M226.086 150.652C217.678 153.709 211.18 165.685 212.837 173.711C214.365 181.355 223.411 190.018 231.564 187.979C239.208 185.941 240.992 177.278 240.737 170.398C240.609 164.411 239.463 151.544 232.074 150.142C230.035 149.633 227.997 149.887 226.086 150.652Z" fill="white"/>
<path d="M162.26 81.983C163.407 75.1036 162.515 67.2049 156.782 62.3638C151.941 58.1597 144.934 56.6309 138.437 57.1405C126.589 58.1597 117.671 69.6255 118.563 81.346C124.805 79.5625 131.685 78.6707 139.201 78.6707C147.609 78.6707 155.253 79.8173 162.005 81.983" fill="#93AF8E"/>
<path d="M142.386 55.996C139.456 53.448 136.143 51.0275 132.449 50.0083C131.684 49.7535 130.92 49.6261 130.156 49.7535C128.627 50.0083 127.735 51.2823 128.117 52.811C128.627 55.359 133.086 57.0152 135.506 57.3974H135.761C136.78 57.1426 137.672 57.0152 138.819 56.8878C142.513 56.633 146.463 57.0152 150.03 58.1617C152.323 57.5247 157.546 56.1234 158.056 53.448C158.438 51.7919 156.909 50.1357 155.253 49.6261C150.412 48.3521 145.698 52.5562 142.768 55.996H142.386Z" fill="#93AF8E"/>
<path d="M116.015 82.1111C114.358 83.3851 112.957 84.9139 112.702 86.9522C112.447 89.5002 114.358 91.9207 116.779 92.9399C119.2 93.9591 121.875 93.9591 124.423 93.8317C132.958 93.3221 141.622 92.6851 149.902 90.6467C153.979 89.6276 158.438 88.3536 162.133 86.3152C164.808 84.9139 164.426 83.2577 161.75 81.9837C154.998 79.8179 147.482 78.7988 139.201 78.7988C130.665 78.7988 122.894 79.9453 116.015 82.1111Z" fill="#93AF8E"/>
<path d="M105.441 178.042C121.238 180.718 136.016 183.521 150.922 189.126C152.196 189.636 146.081 192.948 145.698 193.075C142.004 195.114 138.437 197.662 134.615 199.318C133.85 199.573 133.213 199.955 132.449 199.955C131.175 199.955 130.156 199.063 129.137 198.171C120.091 190.527 116.015 183.521 105.441 178.042Z" fill="#93AF8E"/>
<path d="M214.875 178.806C213.856 177.15 213.219 175.366 212.837 173.71C211.945 169.761 213.219 164.665 215.64 160.333L215.894 160.588C193.218 165.556 170.923 174.602 150.03 190.399C154.871 193.457 160.859 194.858 166.591 196.004C183.918 199.826 203.537 191.673 214.366 178.296" fill="#93AF8E"/>
<path d="M136.016 225.688C128.755 226.198 121.365 226.708 114.104 226.071C106.205 225.434 98.3065 223.268 91.6818 218.936C88.2421 216.643 85.1845 213.84 81.7448 211.547C78.3051 209.254 74.2283 207.471 70.1516 207.853C74.9927 204.031 82.764 198.171 87.7325 194.349C92.8284 195.623 98.0517 197.024 103.402 198.298C109.9 205.432 117.289 211.802 124.933 217.79C128.245 220.338 131.685 222.886 135.124 225.306" fill="#93AF8E"/>
<path d="M144.042 78.796C143.533 71.5343 143.15 64.1452 145.444 57.2657L145.316 57.5205C142.896 57.1384 140.22 57.011 137.8 57.1384L137.418 57.2657C135.124 60.4507 133.85 64.2726 133.341 68.0946C132.831 71.6617 132.704 75.2288 132.704 78.6686L133.086 78.796C134.87 78.6686 136.653 78.6686 138.437 78.6686C140.475 78.6686 142.513 78.796 144.552 78.9234L144.042 78.796Z" fill="#EDEDD9"/>
<path d="M114.71 83.944C112.149 84.8402 109.845 85.8645 107.668 87.0168C100.114 79.8469 89.8711 70.5003 88.7188 70.1162C88.7188 70.1162 87.4384 93.6747 89.3589 110.063C87.0543 116.721 85.5179 124.403 84.3656 132.725C81.2927 153.083 84.2375 171.008 108.948 179.458" stroke="#3A3A3A" stroke-width="3" stroke-miterlimit="10" stroke-linecap="round" stroke-linejoin="round"/>
<path d="M198.061 166.397C207.792 157.306 213.681 145.527 213.681 132.596C213.681 123.633 210.865 115.567 205.871 108.397C208.048 92.9049 209.328 69.9866 209.328 69.9866C202.542 71.267 183.337 80.4855 173.35 85.3508C170.149 84.1985 166.82 83.3023 163.364 82.6621" stroke="#3A3A3A" stroke-width="3" stroke-miterlimit="10" stroke-linecap="round" stroke-linejoin="round"/>
<path d="M131.227 183.682C136.604 184.194 142.494 184.45 149.023 184.45C153.505 184.45 157.858 184.066 162.083 183.426" stroke="#3A3A3A" stroke-width="3" stroke-miterlimit="10" stroke-linecap="round" stroke-linejoin="round"/>
<path d="M162.595 82.0219C165.284 83.4302 165.668 84.9667 162.979 86.3751C159.266 88.4236 154.785 89.704 150.688 90.7282C142.366 92.7768 133.659 93.545 125.081 93.9291C122.52 94.0572 119.832 94.0571 117.399 93.0329C114.966 92.0086 113.046 89.5759 113.302 87.0152C113.814 82.0219 119.575 81.1256 123.417 80.2294C128.026 79.0771 132.763 78.821 137.5 78.821C138.269 78.821 139.037 78.821 139.933 78.821C148.639 78.821 156.578 80.1013 163.491 82.406" stroke="#3A3A3A" stroke-width="3" stroke-miterlimit="10" stroke-linecap="round" stroke-linejoin="round"/>
<path d="M119.191 80.9984C118.551 69.3472 127.514 58.0801 139.293 57.0558C145.695 56.5437 152.737 58.0801 157.73 62.3052C163.492 67.2986 164.388 75.1087 163.235 82.0226" stroke="#3A3A3A" stroke-width="3" stroke-miterlimit="10" stroke-linecap="round" stroke-linejoin="round"/>
<path d="M143.134 56.6723C145.951 53.0873 150.944 48.35 155.937 49.7584C157.602 50.2705 159.01 51.935 158.754 53.5994C158.242 56.2882 152.864 57.6965 150.688 58.3367" stroke="#3A3A3A" stroke-width="3" stroke-miterlimit="10" stroke-linecap="round" stroke-linejoin="round"/>
<path d="M143.134 56.1575C140.189 53.5968 136.86 51.1641 133.147 50.1399C132.379 49.8838 131.611 49.7558 130.843 49.8838C129.306 50.1399 128.41 51.4202 128.794 52.9566C129.306 55.5173 133.787 57.1818 136.22 57.5659" stroke="#3A3A3A" stroke-width="3" stroke-miterlimit="10" stroke-linecap="round" stroke-linejoin="round"/>
<path d="M146.207 57.309C145.183 64.479 145.055 71.5209 145.567 78.8189" stroke="#3A3A3A" stroke-width="3" stroke-miterlimit="10" stroke-linecap="round" stroke-linejoin="round"/>
<path d="M138.909 57.1831C136.604 60.384 135.324 64.225 134.812 68.0661C134.299 71.6511 134.171 75.236 134.171 78.693" stroke="#3A3A3A" stroke-width="3" stroke-miterlimit="10" stroke-linecap="round" stroke-linejoin="round"/>
<path d="M160.163 136.183L188.714 132.982" stroke="#3A3A3A" stroke-width="3" stroke-miterlimit="10" stroke-linecap="round" stroke-linejoin="round"/>
<path d="M160.163 145.141L190.891 146.678" stroke="#3A3A3A" stroke-width="3" stroke-miterlimit="10" stroke-linecap="round" stroke-linejoin="round"/>
<path d="M76.0435 131.183L91.5357 132.975" stroke="#3A3A3A" stroke-width="3" stroke-miterlimit="10" stroke-linecap="round" stroke-linejoin="round"/>
<path d="M74.251 149.495L91.5357 145.141" stroke="#3A3A3A" stroke-width="3" stroke-miterlimit="10" stroke-linecap="round" stroke-linejoin="round"/>
<path d="M217.138 161.151C194.348 166.145 171.942 175.235 150.944 191.112C155.809 194.184 161.827 195.593 167.589 196.745C185.001 200.586 204.847 192.392 215.73 178.82" stroke="#3A3A3A" stroke-width="3" stroke-miterlimit="10" stroke-linecap="round" stroke-linejoin="round"/>
<path d="M106.004 178.82C121.88 181.509 136.732 184.326 151.712 189.959C152.993 190.471 146.847 193.8 146.463 193.928C142.75 195.977 139.165 198.537 135.324 200.202C134.555 200.458 133.915 200.842 133.147 200.842C131.867 200.842 130.842 199.946 129.818 199.05C120.728 191.239 116.631 184.198 106.004 178.82Z" stroke="#3A3A3A" stroke-width="3" stroke-miterlimit="10" stroke-linecap="round" stroke-linejoin="round"/>
<path d="M150.816 190.342C144.67 189.574 138.525 190.854 133.659 194.951C131.995 196.36 130.458 198.152 129.946 200.329C129.434 202.505 130.202 205.066 132.123 206.219C133.659 207.115 135.708 206.987 137.5 206.347C142.75 204.682 146.719 200.457 149.536 195.848C150.56 194.311 151.328 192.775 152.608 191.494C157.474 186.629 167.332 190.598 172.07 193.671C175.399 195.976 178.087 199.305 178.856 203.274C179.112 204.426 179.112 205.834 178.599 206.859C177.447 209.035 174.502 209.291 172.07 208.779C168.101 207.883 164.644 205.322 161.571 202.506C157.858 198.921 154.273 194.823 151.072 190.854" stroke="#3A3A3A" stroke-width="3" stroke-miterlimit="10" stroke-linecap="round" stroke-linejoin="round"/>
<path d="M143.902 234.765C144.543 219.912 147.487 205.188 152.481 191.361" stroke="#3A3A3A" stroke-width="3" stroke-miterlimit="10" stroke-linecap="round" stroke-linejoin="round"/>
<path d="M170.918 241.042C163.107 224.525 156.706 207.369 151.84 189.828" stroke="#3A3A3A" stroke-width="3" stroke-miterlimit="10" stroke-linecap="round" stroke-linejoin="round"/>
<path d="M89.1029 195.2C84.2376 199.041 76.4274 204.931 71.4341 208.772C75.5312 208.388 79.6283 210.18 83.0853 212.485C86.5422 214.79 89.615 217.606 93.072 219.911C99.7298 224.264 107.668 226.313 115.606 227.081C122.776 227.721 130.074 227.209 137.372 226.697" stroke="#3A3A3A" stroke-width="3" stroke-miterlimit="10" stroke-linecap="round" stroke-linejoin="round"/>
<path d="M99.8579 193.416C107.412 203.018 116.63 211.212 126.489 218.767C158.626 243.477 197.036 261.018 237.496 268.956" stroke="#3A3A3A" stroke-width="3" stroke-miterlimit="10" stroke-linecap="round" stroke-linejoin="round"/>
<path d="M227.253 151.162C218.803 154.235 212.273 166.27 213.937 174.336C215.474 182.019 224.564 190.725 232.758 188.676C240.441 186.628 242.233 177.921 241.977 171.008C241.849 164.99 240.697 152.058 233.271 150.65C231.222 150.266 229.173 150.522 227.253 151.162Z" stroke="#3A3A3A" stroke-width="3" stroke-miterlimit="10" stroke-linecap="round" stroke-linejoin="round"/>
<path d="M106.004 178.816C81.2932 172.286 56.4544 166.14 31.4875 160.763" stroke="#3A3A3A" stroke-width="3" stroke-miterlimit="10" stroke-linecap="round" stroke-linejoin="round"/>
<path d="M104.851 199.174C77.964 192.516 54.5336 186.114 27.9023 178.176" stroke="#3A3A3A" stroke-width="3" stroke-miterlimit="10" stroke-linecap="round" stroke-linejoin="round"/>
<path d="M36.737 122.869C51.5864 122.869 63.6243 110.831 63.6243 95.9816C63.6243 81.1322 51.5864 69.0943 36.737 69.0943C21.8875 69.0943 9.84961 81.1322 9.84961 95.9816C9.84961 110.831 21.8875 122.869 36.737 122.869Z" stroke="#3A3A3A" stroke-width="3" stroke-miterlimit="10" stroke-linecap="round" stroke-linejoin="round"/>
<path d="M36.7368 130.677C55.8997 130.677 71.4343 115.142 71.4343 95.9793C71.4343 76.8165 55.8997 61.2819 36.7368 61.2819C17.5739 61.2819 2.03931 76.8165 2.03931 95.9793C2.03931 115.142 17.5739 130.677 36.7368 130.677Z" stroke="#3A3A3A" stroke-width="3" stroke-miterlimit="10" stroke-linecap="round" stroke-linejoin="round"/>
<path d="M16.7634 166.522L14.0746 180.478C13.5625 183.423 15.9951 186.239 19.5801 187.008C23.1651 187.648 26.494 185.855 27.0062 182.91L36.7368 131.312" stroke="#3A3A3A" stroke-width="3" stroke-miterlimit="10" stroke-linecap="round" stroke-linejoin="round"/>
<path d="M23.8053 128.887L21.8848 139.002" stroke="#3A3A3A" stroke-width="3" stroke-miterlimit="10" stroke-linecap="round" stroke-linejoin="round"/>
<path d="M12.6662 167.293C17.4035 167.165 21.8848 164.604 24.8296 160.763C27.7744 157.05 29.0547 152.185 28.9267 147.447C28.9267 146.295 28.7986 145.143 28.4145 143.991C27.2622 140.662 23.5492 138.741 20.0923 139.125C16.6353 139.509 13.5625 141.686 11.5139 144.503C9.46536 147.319 8.44108 150.776 7.67287 154.105C6.90466 157.818 6.64859 161.531 7.16073 165.244C7.80091 169.469 12.2821 173.823 14.9709 175.743" stroke="#3A3A3A" stroke-width="3" stroke-miterlimit="10" stroke-linecap="round" stroke-linejoin="round"/>
<path d="M23.8053 128.887L21.8848 139.002" stroke="#3A3A3A" stroke-width="3" stroke-miterlimit="10" stroke-linecap="round" stroke-linejoin="round"/>
<path d="M235.831 187.395V368.821" stroke="#3A3A3A" stroke-width="3" stroke-miterlimit="10" stroke-linecap="round" stroke-linejoin="round"/>
<path d="M235.831 2V151.673" stroke="#3A3A3A" stroke-width="3" stroke-miterlimit="10" stroke-linecap="round" stroke-linejoin="round"/>
<path d="M208.56 153.083C208.56 153.083 215.09 158.973 217.138 161.278" stroke="#3A3A3A" stroke-width="3" stroke-miterlimit="10" stroke-linecap="round" stroke-linejoin="round"/>
<path d="M139.165 133.231C136.604 135.024 131.099 137.713 128.026 137.584C124.825 137.456 121.496 135.664 120.088 132.719C118.039 135.536 117.655 136.432 114.198 136.432C110.741 136.56 106.004 134.384 106.004 131.183" stroke="#3A3A3A" stroke-width="3" stroke-miterlimit="10" stroke-linecap="round" stroke-linejoin="round"/>
<path d="M180.52 173.566C177.319 181.504 172.582 189.442 168.613 197.125" stroke="#3A3A3A" stroke-width="3" stroke-miterlimit="10" stroke-linecap="round" stroke-linejoin="round"/>
<path d="M197.037 166.913C193.964 177.027 188.842 187.654 184.233 197.129" stroke="#3A3A3A" stroke-width="3" stroke-miterlimit="10" stroke-linecap="round" stroke-linejoin="round"/>
<path d="M203.438 189.701C205.231 181.122 207.792 171.52 209.584 163.069" stroke="#3A3A3A" stroke-width="3" stroke-miterlimit="10" stroke-linecap="round" stroke-linejoin="round"/>
<path d="M180.52 173.566L203.438 189.699" stroke="#3A3A3A" stroke-width="3" stroke-miterlimit="10" stroke-linecap="round" stroke-linejoin="round"/>
<path d="M124.313 193.41C127.77 190.209 132.507 187.393 137.5 185.344" stroke="#3A3A3A" stroke-width="3" stroke-miterlimit="10" stroke-linecap="round" stroke-linejoin="round"/>
<path d="M118.935 180.993C119.832 183.298 120.856 187.907 120.856 190.34" stroke="#3A3A3A" stroke-width="3" stroke-miterlimit="10" stroke-linecap="round" stroke-linejoin="round"/>
<path d="M131.227 183.426C132.123 185.731 134.043 198.15 133.915 200.711" stroke="#3A3A3A" stroke-width="3" stroke-miterlimit="10" stroke-linecap="round" stroke-linejoin="round"/>
<path d="M107.284 202.117C100.755 206.598 93.3285 211.207 86.6707 214.92" stroke="#3A3A3A" stroke-width="3" stroke-miterlimit="10" stroke-linecap="round" stroke-linejoin="round"/>
<path d="M117.655 211.977C113.814 216.714 108.436 220.939 103.571 224.78" stroke="#3A3A3A" stroke-width="3" stroke-miterlimit="10" stroke-linecap="round" stroke-linejoin="round"/>
<path d="M107.284 202.117C109.076 209.671 111.893 218.889 112.533 226.699" stroke="#3A3A3A" stroke-width="3" stroke-miterlimit="10" stroke-linecap="round" stroke-linejoin="round"/>
<path d="M88.8472 195.841C90.2556 203.011 92.3041 213.382 94.2246 220.68" stroke="#3A3A3A" stroke-width="3" stroke-miterlimit="10" stroke-linecap="round" stroke-linejoin="round"/>
</svg>
