<svg width="240" height="320" viewBox="0 0 240 320" fill="none" xmlns="http://www.w3.org/2000/svg">
<g clip-path="url(#clip0_812_2566)">
<path d="M111.569 37.866C112.974 30.6847 112.292 22.3977 106.343 17.1517C101.343 12.7205 93.9925 10.8724 87.2908 11.3276C74.7713 12.0831 65.1537 23.9946 65.7403 36.2388C72.2957 34.5483 79.5338 33.7541 87.4526 33.944C96.2513 34.1551 104.231 35.4903 111.215 37.9454" fill="#93AF8E"/>
<path d="M91.2798 10.1914C88.3515 7.48159 84.8932 4.84703 80.9591 3.69682C80.1715 3.50196 79.3838 3.30709 78.5018 3.37392C76.9117 3.59974 75.9981 4.98561 76.2262 6.48686C76.6909 9.1376 81.4 11.0103 83.8531 11.5091L84.1191 11.4275C85.1813 11.189 86.2414 11.0384 87.2993 10.9758C91.1792 10.7169 95.304 11.2558 99.0579 12.5777C101.448 12.0191 107.027 10.6571 107.623 7.85585C108.017 6.10557 106.563 4.31098 104.814 3.82909C99.8326 2.30181 94.7098 6.66625 91.6318 10.1999L91.2798 10.1914Z" fill="#93AF8E"/>
<path d="M62.9959 36.8768C61.2045 38.1537 59.6686 39.7886 59.442 41.8948C59.1127 44.6145 61.0773 47.1252 63.5135 48.3275C65.9498 49.5298 68.7674 49.5094 71.4971 49.4868C80.4823 49.2624 89.476 48.6863 98.2394 46.6968C102.576 45.745 107.183 44.5357 111.193 42.5202C113.957 41.0907 113.645 39.4115 110.863 37.937C103.877 35.5698 95.9852 34.2366 87.3625 34.0298C78.4779 33.7287 70.3536 34.7657 62.9959 36.8768Z" fill="#93AF8E"/>
<path d="M83.2659 131.421C71.3715 128.144 59.0913 126.266 46.7731 125.97C45.7173 125.945 44.5734 125.917 43.6788 126.512C42.8743 127.02 42.4154 127.801 41.9564 128.582C39.4774 132.834 37.6059 137.452 36.4341 142.264C36.3376 142.613 36.2391 143.051 36.4066 143.407C36.5742 143.763 36.8339 143.945 37.1816 144.129C39.0041 145.229 41.1974 145.545 43.395 145.686C46.6441 146.028 49.8096 146.192 53.0756 145.83C59.7816 145.199 66.1004 142.359 72.327 139.693L72.5071 139.521C72.1721 138.809 72.1031 138.016 72.2959 137.317C72.5894 136.092 73.4925 135.146 74.4814 134.29C77.2639 132.069 80.7122 131.447 84.2211 131.972L83.2659 131.421Z" fill="#93AF8E"/>
<path d="M144.491 126.114C138.418 126.057 132.345 125.999 126.274 125.853C113.951 125.734 101.189 125.604 90.0578 130.88L89.7811 131.401C92.0604 131.808 94.4966 133.01 95.9691 134.013C97.7873 135.289 99.2367 137.259 99.6239 139.468C99.783 140.176 99.7661 140.879 99.3994 141.486C99.2171 141.746 99.0348 142.005 98.7666 142.175L99.3783 142.366C103.386 144.134 108.156 143.456 112.248 141.706C116.337 140.045 119.922 137.403 123.758 135.296C131.257 130.988 139.597 128.285 147.849 125.579L144.491 126.114Z" fill="#93AF8E"/>
<path d="M106.463 243.368C108.457 263.037 111.652 283.967 115.506 303.152C113.741 306.981 116.181 311.703 119.74 313.812C123.387 315.923 127.784 316.117 131.928 315.864C135.366 315.683 138.988 315.154 142.022 313.467C145.056 311.78 147.507 308.671 147.504 305.151C147.489 302.072 145.533 299.209 142.934 297.475C141.375 296.382 139.542 295.722 137.703 295.326L137.975 294.98C142.623 277.407 144.031 259.051 143.322 240.909C143.224 237.651 143.126 234.393 143.028 231.135L143.732 231.152C151.505 230.107 158.651 225.791 163.984 220.024C169.316 214.257 172.921 207.128 175.478 199.623C179.734 187.319 181.199 173.98 179.659 161.097C179.287 158.272 178.313 154.817 175.51 154.222C172.445 153.533 170.076 156.907 169.036 159.874C166.489 166.94 167.806 174.45 166.577 181.636C165.348 188.821 163.504 195.992 160.176 202.599C156.85 209.118 150.732 214.603 143.494 215.397L142.528 215.286C142.049 198.557 141.306 181.821 139.149 165.316L139.222 165.934C150.335 157.754 159.996 147.691 169.653 137.804C174.709 132.558 179.853 127.315 184.566 121.708C187.648 117.999 190.644 114.199 194.33 111.032L194.422 110.859C194.342 110.505 194.351 110.153 194.449 109.715L199.447 77.5442C193.285 81.1798 189.14 88.8232 186.937 96.2492C181.198 100.599 175.457 105.036 169.807 109.388C163.171 114.42 156.039 121.816 148.471 125.33C140.219 128.036 131.879 130.739 124.38 135.047C120.542 137.242 116.959 139.796 112.87 141.457C108.78 143.119 104.098 143.799 100 142.117L99.5688 141.754C98.7601 142.439 97.4382 142.495 96.3007 142.204C94.0257 141.621 92.1237 140.168 90.4899 138.545C88.6844 136.742 86.9731 134.677 85.3499 132.615L85.264 132.525C84.7192 133.215 84.2624 133.908 83.7155 134.687C81.9805 137.285 79.7239 139.607 76.7971 140.504C75.8229 140.745 74.6749 140.893 73.8077 140.345C73.3741 140.07 73.1185 139.712 72.863 139.354L72.6828 139.526C66.5421 142.282 60.2255 145.034 53.4315 145.663C50.2555 145.939 47.0021 145.773 43.7508 145.519C42.4331 145.399 41.1175 145.192 39.8921 144.898L39.4289 145.855C31.1883 166.422 26.2842 191.029 25.3986 213.268C23.5313 217.711 22.2757 222.344 21.7219 227.082C21.1786 231.38 21.4941 236.579 25.0425 239.128C26.6009 240.221 28.5282 240.619 30.4639 240.665C34.5134 240.675 39.1309 239.026 41.816 229.851C41.9724 234.342 42.3027 238.926 42.635 243.421C41.7253 259.325 42.9647 277.392 46.2889 292.957L45.7483 293.472C44.154 293.874 42.6456 294.365 41.2167 295.211C38.537 296.819 36.4458 299.584 36.284 302.66C36.1117 306.175 38.4114 309.398 41.3607 311.228C44.3101 313.059 47.9049 313.673 51.3279 314.107C55.4549 314.558 59.9422 314.665 63.6003 312.641C67.3443 310.708 69.9197 306.106 68.3407 302.197C73.1098 283.218 77.2193 262.376 80.2391 242.915L80.3208 243.181C88.5852 243.643 96.8581 243.754 105.051 243.51L106.459 243.544L106.463 243.368Z" fill="white"/>
<path d="M209.022 82.0852L210.043 76.2146C212.743 77.4232 214.528 80.1056 215.428 82.9427C216.241 85.7778 216.169 88.7676 215.745 91.749C215.416 94.4687 214.735 97.1799 213.358 99.5225C211.981 101.865 209.645 103.833 206.905 104.295C204.164 104.757 201.114 103.452 200.03 100.963C199.697 100.163 199.456 99.1891 199.389 98.3076C199.038 94.6038 199.746 90.7493 201.76 87.5421C203.407 84.942 206.097 82.8949 209.022 82.0852Z" fill="white"/>
<path d="M83.6133 131.605C71.7188 128.328 59.4386 126.45 47.1205 126.154L47.1226 126.066C27.0107 116.697 25.0084 101.076 26.6789 82.8146C27.5163 73.5961 30.0881 65.475 34.212 58.711C30.1453 22.7149 33.2318 18.8296 33.2318 18.8296C38.1901 21.3241 56.5754 32.9394 63.0774 37.1428L62.9915 37.0527C61.2002 38.3296 59.6643 39.9645 59.4377 42.0707C59.1084 44.7904 61.073 47.3011 63.5092 48.5034C65.9454 49.7057 68.7631 49.6853 71.4928 49.6628C80.478 49.4383 89.4717 48.8622 98.2351 46.8727C102.572 45.9209 107.179 44.7116 111.189 42.6961C113.862 41.3525 113.724 39.7654 111.294 38.2993C117.988 34.5005 136.911 23.6921 141.984 21.4381C141.984 21.4381 144.88 25.467 139.092 61.2267L139.44 61.411C143.147 68.3629 145.329 76.51 145.725 85.6701C146.466 102.493 144.178 117.132 127.507 125.795L127.239 125.964C126.975 125.958 126.799 125.954 126.535 125.948C114.213 125.828 101.451 125.698 90.3193 130.974L89.4289 131.393C87.8472 131.267 86.3451 131.495 85.264 132.525L83.6133 131.605Z" fill="white"/>
<path d="M84.3153 131.71C80.8943 131.188 77.358 131.807 74.5755 134.028C73.5887 134.796 72.7715 135.832 72.39 137.055C72.0965 138.28 72.4147 139.695 73.5438 140.338C74.411 140.887 75.5569 140.826 76.5332 140.498C79.4579 139.688 81.8046 137.281 83.4517 134.681C84.0007 133.814 84.5497 132.947 85.2704 132.261C88.0634 129.6 93.6419 131.934 96.2393 133.756C98.0575 135.031 99.5068 137.002 99.894 139.21C100.053 139.918 100.036 140.622 99.6696 141.229C99.0241 142.445 97.2602 142.579 95.9488 142.195C93.6738 141.613 91.7718 140.159 90.138 138.537C88.0749 136.463 86.106 134.128 84.4011 131.8" fill="white"/>
<path d="M92.468 34.0643C92.1215 26.4892 91.8692 18.6523 94.4178 11.4986L94.3235 11.7603C91.6945 11.2573 89.057 11.106 86.5011 11.2207L86.0591 11.2981C83.6033 14.5827 82.1886 18.5081 81.4735 22.6263C80.769 26.3049 80.6805 29.9982 80.5898 33.7794L81.0255 33.9659C82.8753 33.9222 84.7251 33.8786 86.5729 33.9229C88.7725 33.9757 90.8821 34.1143 92.9037 34.2508L92.468 34.0643Z" fill="#EDEDD9"/>
<path d="M209.311 70.0379C224.424 70.4004 236.969 58.4501 237.331 43.3462C237.693 28.2422 225.736 15.7042 210.623 15.3417C195.51 14.9792 182.965 26.9295 182.603 42.0335C182.241 57.1374 194.198 69.6754 209.311 70.0379Z" fill="#EA7434"/>
<path d="M210.882 70.6035L209.108 82.1752C206.183 82.9849 203.493 85.032 201.846 87.6321C199.834 90.7514 199.126 94.6058 199.475 98.3976C199.542 99.2791 199.695 100.251 200.115 101.053C201.033 103.186 203.381 104.386 205.669 104.441L204.62 111.455C204.301 113.735 201.712 115.257 198.816 114.835C196.009 114.416 193.95 112.167 194.357 109.889L200.707 69.0396L200.982 68.6063C202.553 69.1719 204.216 69.5637 205.882 69.8676C207.723 70.1758 209.659 70.2222 211.421 70.1765" fill="#EA7434"/>
<path d="M85.5746 104.904C103.348 105.33 115.022 95.756 112.885 85.7623C110.509 74.7069 101.278 66.8307 86.4963 66.4761L86.6723 66.4803C71.8025 66.1237 62.2045 73.5483 59.3892 84.4791C56.7731 94.4468 68.0652 104.484 85.7506 104.908" fill="#FFF3E5"/>
<path d="M36.1377 29.8096C36.5201 35.8899 37.2565 41.8906 38.5209 47.904C43.1827 44.4084 47.1026 42.4788 52.3402 40.6687C46.697 37.3658 41.8689 33.1146 36.1377 29.8096Z" fill="#FFC08D"/>
<path d="M138.819 32.2725C138.145 38.3275 137.122 44.286 135.571 50.2319C131.082 46.5168 127.259 44.4014 122.114 42.3423C127.997 39.3159 133.023 35.301 138.819 32.2725Z" fill="#FFC08D"/>
<path d="M209.457 63.9703C221.216 64.2524 230.978 54.9535 231.26 43.2006C231.542 31.4476 222.237 21.6914 210.477 21.4093C198.718 21.1272 188.956 30.4262 188.674 42.1791C188.392 53.932 197.697 63.6883 209.457 63.9703Z" fill="white"/>
<path d="M47.8644 124.5C39.4204 120.515 32.2609 114.36 29.3986 105.228C28.1737 101.24 27.6569 97.0919 27.5801 92.9547C27.4364 87.936 27.8248 82.7541 28.6489 77.7586C29.7749 71.1867 31.9526 64.8159 35.3473 59.0902C36.2631 57.6164 34.0071 56.2425 33.0913 57.7163C27.0374 67.8655 24.907 79.6046 24.8905 91.3064C24.8492 100.368 26.6577 109.386 32.5601 116.567C36.236 121.142 41.2633 124.43 46.4855 126.931C47.9686 127.495 49.3433 125.24 47.8644 124.5Z" fill="#3A3A3A"/>
<path d="M138.378 61.6495C143.35 70.9193 144.773 81.3359 144.612 91.7144C144.506 99.8067 143.162 108.133 138.336 114.792C135.421 118.858 131.386 121.929 127.015 124.287C125.501 125.043 126.766 127.361 128.28 126.605C136.395 122.313 142.545 115.509 145.223 106.599C146.468 102.405 147.016 97.9312 147.207 93.6244C147.418 88.5262 147.19 83.3296 146.518 78.2982C145.612 72.0294 143.732 66.0012 140.697 60.3853C139.853 58.8693 137.62 60.2235 138.378 61.6495Z" fill="#3A3A3A"/>
<path d="M63.8194 35.5768C55.5809 30.364 47.3445 25.0632 38.9237 20.1099C37.2751 19.1025 35.6245 18.1831 33.9738 17.2636C33.2784 16.895 32.6582 17.0561 32.1155 17.659C31.2983 18.6952 31.2541 20.5419 31.1386 21.6829C30.4736 27.3861 30.7722 33.2884 31.1652 38.9289C31.537 45.4488 32.1728 51.9751 32.9846 58.5056C33.0557 59.2112 33.9271 59.584 34.5472 59.4229C35.3433 59.2661 35.6242 58.5689 35.4651 57.8612C34.3731 48.3324 33.4613 38.632 33.4272 29.0407C33.392 26.8402 33.4447 24.6418 33.6734 22.4476C33.6818 22.0959 33.7783 21.7462 33.7867 21.3945C33.7909 21.2186 33.7951 21.0427 33.8852 20.9569C33.8937 20.6052 33.7909 21.2186 33.8894 20.781C33.988 20.3435 34.0844 19.9938 34.1829 19.5563C34.1871 19.3804 34.2772 19.2946 34.2815 19.1187C34.3779 18.7691 34.4595 19.035 34.2815 19.1187L34.3737 18.9449C33.7535 19.106 33.1334 19.2671 32.5154 19.3403C36.0828 21.0976 39.4636 23.2904 42.9346 25.3973C47.5325 28.2352 52.0425 31.071 56.6404 33.9088C58.5487 35.0984 60.5428 36.3781 62.4511 37.5677C63.8315 38.7446 65.2061 36.4899 63.8194 35.5768Z" fill="#3A3A3A"/>
<path d="M111.981 39.0197C120.46 34.2079 128.941 29.3081 137.59 24.7642C139.285 23.837 140.978 22.9978 142.671 22.1585C142.059 21.9679 141.447 21.7772 140.833 21.6745C140.833 21.6745 140.831 21.7625 140.917 21.8525C141.003 21.9425 140.84 21.4107 140.919 21.7646C140.917 21.8525 141.003 21.9425 140.999 22.1184C141.078 22.4723 141.158 22.8261 141.237 23.18C141.235 23.2679 141.231 23.4438 141.317 23.5338C141.397 23.8877 141.319 23.4459 141.315 23.6218C141.306 23.9735 141.386 24.3274 141.378 24.6791C141.773 30.2317 141.108 35.9349 140.535 41.4643C139.853 47.871 138.909 54.1834 137.877 60.4937C137.773 61.1951 138.02 61.9049 138.719 62.0976C139.331 62.2883 140.219 61.9577 140.324 61.2563C141.878 51.527 143.346 41.7077 143.846 31.8652C144.014 28.5258 144.277 24.9246 143.475 21.6499C143.396 21.296 143.32 20.7663 143.063 20.4962C142.637 19.8701 141.938 19.6773 141.225 20.0122C137.578 21.5964 134.096 23.6246 130.528 25.5627C125.799 28.1769 121.158 30.7931 116.43 33.4073C114.467 34.504 112.413 35.6866 110.45 36.7833C109.287 37.5473 110.552 39.8653 111.981 39.0197Z" fill="#3A3A3A"/>
<path d="M68.691 82.0626C71.5397 84.4186 74.8242 86.961 78.7019 86.7901C82.2277 86.6107 85.272 84.484 87.1035 81.5364C86.3116 81.5174 85.6077 81.5005 84.8158 81.4815C86.9332 84.9638 90.4795 87.6005 94.6107 87.8755C98.3019 88.1401 102.312 86.1246 103.89 82.7309C104.63 81.2529 102.376 79.7911 101.634 81.357C100.339 83.9656 97.5733 85.483 94.6739 85.2375C91.5106 84.9856 88.7457 82.8076 87.0492 80.1273C86.5403 79.3232 85.3106 79.2058 84.7616 80.0725C83.3869 82.3271 81.0571 84.031 78.3274 84.0535C75.2457 84.0676 72.6546 81.9817 70.4113 80.0802C69.2885 79.1734 67.3965 80.9757 68.691 82.0626Z" fill="#3A3A3A"/>
<path d="M6.70953 85.8551C18.4829 86.8414 30.2478 88.1795 42.0085 89.6934C43.676 89.9093 43.7393 87.2713 42.0718 87.0553C30.3111 85.5414 18.5462 84.2033 6.7728 83.217C5.10316 83.089 5.03989 85.7271 6.70953 85.8551Z" fill="#3A3A3A"/>
<path d="M6.78986 108.206C18.6645 104.971 30.6186 102.09 42.6502 99.6512C44.3304 99.3396 43.6877 96.7725 42.0075 97.0842C29.9759 99.5232 18.0217 102.404 6.14713 105.639C4.46483 106.038 5.10756 108.605 6.78986 108.206Z" fill="#3A3A3A"/>
<path d="M131.353 90.2527C142.696 87.1812 154.285 84.8196 165.946 83.1636C167.624 82.9399 166.981 80.3729 165.303 80.5966C153.643 82.2526 142.053 84.6142 130.711 87.6857C129.026 88.1732 129.669 90.7402 131.353 90.2527Z" fill="#3A3A3A"/>
<path d="M132.022 99.0673C143.71 99.9636 155.475 101.302 167.049 103.251C167.751 103.356 168.461 103.109 168.654 102.41C168.844 101.798 168.514 100.91 167.812 100.806C155.974 98.85 144.035 97.4198 132.083 96.5172C130.414 96.3892 130.35 99.0273 132.022 99.0673Z" fill="#3A3A3A"/>
<path d="M185.726 95.3403C179.001 100.458 172.101 105.484 165.545 110.87C159.798 115.571 154.298 120.982 147.531 124.164C146.016 124.919 147.281 127.237 148.796 126.482C155.653 123.215 161.329 117.808 167.079 113.018C173.725 107.547 180.714 102.435 187.53 97.2313C188.875 96.2077 187.071 94.3167 185.726 95.3403Z" fill="#3A3A3A"/>
<path d="M187.894 96.7121C189.995 89.8995 193.515 82.5931 199.769 78.7837C201.198 77.9381 199.933 75.6201 198.504 76.4657C191.626 80.612 187.653 88.4355 185.36 95.9474C184.882 97.5197 187.416 98.2844 187.894 96.7121Z" fill="#3A3A3A"/>
<path d="M193.207 110.126C189.434 113.291 186.435 117.178 183.353 120.888C179.91 124.94 176.296 128.813 172.684 132.598C165.641 139.908 158.597 147.306 151.125 154.165C146.983 158.025 142.671 161.617 138.101 164.939C136.756 165.963 138.56 167.854 139.905 166.83C147.971 160.865 155.357 153.915 162.483 146.783C169.791 139.391 177.1 132 183.891 124.156C187.511 120.019 190.789 115.523 195.013 111.929C196.358 110.905 194.466 109.012 193.207 110.126Z" fill="#3A3A3A"/>
<path d="M38.0318 145.381C31.2897 162.201 27.1618 180.139 25.1457 198.128C24.5855 203.13 24.2034 208.048 23.9952 213.058C23.9551 214.729 26.5948 214.793 26.6348 213.122C27.3291 195.189 30.3969 177.401 35.6517 160.194C37.0875 155.389 38.7851 150.679 40.5687 146.058C41.1325 144.576 38.6857 143.813 38.0318 145.381Z" fill="#3A3A3A"/>
<path d="M24.0037 212.707C22.2265 217.063 20.973 221.609 20.3333 226.257C19.809 229.763 19.7161 233.633 21.4858 236.931C24.3466 242.454 32.5167 243.178 37.1806 239.595C40.2291 237.292 41.9036 233.549 42.9579 229.967C43.4379 228.307 40.9032 227.542 40.4232 229.202C39.0838 233.657 36.59 238.525 31.472 239.018C28.472 239.298 25.3214 238.518 23.803 235.754C22.3705 233.08 22.5365 229.829 22.8701 226.933C23.5098 222.285 24.7633 217.74 26.5384 213.471C27.1923 211.903 24.6555 211.227 24.0037 212.707Z" fill="#3A3A3A"/>
<path d="M24.8985 223.111C24.5086 224.685 24.1187 226.259 23.9047 227.838C23.7999 228.539 23.607 229.239 23.5923 229.854C23.5733 230.646 23.7303 231.441 24.0632 232.241C24.6475 233.575 25.7639 234.746 27.2555 234.957C28.6591 235.167 30.09 234.233 30.8214 233.107C31.7329 231.809 31.863 230.053 31.901 228.47C31.9411 226.799 29.3015 226.736 29.2614 228.406C29.2509 228.846 29.2424 229.198 29.2319 229.638C29.2213 230.077 29.2213 230.077 29.1228 230.515C29.1186 230.691 29.0264 230.864 29.0243 230.952C29.0221 231.04 28.8356 231.476 28.9299 231.214C28.8377 231.388 28.8356 231.476 28.7455 231.562C28.6554 231.647 28.5632 231.821 28.7434 231.65C28.6533 231.735 28.5632 231.821 28.471 231.995C28.3809 232.081 28.3809 232.081 28.2908 232.167C28.3809 232.081 28.3809 232.081 28.2908 232.167C28.1127 232.25 28.0227 232.336 27.9347 232.334C28.2007 232.252 27.7566 232.418 27.6686 232.416C28.0227 232.336 27.3188 232.319 27.6686 232.416C27.5806 232.414 27.4926 232.411 27.4947 232.323C27.6686 232.416 27.6686 232.416 27.4947 232.323C27.4067 232.321 27.0611 232.049 27.3209 232.231C27.235 232.141 27.1491 232.051 27.0632 231.961C26.9774 231.871 26.9774 231.871 27.0632 231.961C26.9774 231.871 26.9795 231.783 26.8915 231.781C26.8077 231.603 26.7218 231.513 26.6381 231.335C26.5543 231.157 26.5543 231.157 26.6402 231.247C26.6423 231.159 26.5564 231.069 26.5585 230.981C26.4747 230.803 26.479 230.627 26.4832 230.451C26.4874 230.276 26.4874 230.276 26.4832 230.451C26.4853 230.364 26.4874 230.276 26.4895 230.188C26.4937 230.012 26.4979 229.836 26.5022 229.66C26.5106 229.308 26.607 228.959 26.7056 228.521C26.8083 227.908 26.9111 227.294 27.018 226.505C27.2151 225.63 27.4122 224.755 27.6092 223.88C27.8021 223.18 27.467 222.468 26.7673 222.276C25.8917 222.079 25.0914 222.411 24.8985 223.111Z" fill="#3A3A3A"/>
<path d="M42.9198 154.473C40.3456 177.376 39.4368 200.583 40.1159 223.652C40.3118 230.167 40.6836 236.687 41.1435 243.209C41.2794 244.884 43.919 244.947 43.7831 243.272C42.1339 220.268 42.1607 197.129 43.7713 174.027C44.2793 167.528 44.8754 161.031 45.5594 154.537C45.7754 152.87 43.1358 152.807 42.9198 154.473Z" fill="#3A3A3A"/>
<path d="M41.1435 243.209C40.2169 259.816 41.3936 276.826 44.7889 293.097C45.1008 294.776 47.6693 294.134 47.3574 292.455C43.9578 276.36 42.8607 259.704 43.7831 243.273C43.9111 241.604 41.2715 241.541 41.1435 243.209Z" fill="#3A3A3A"/>
<path d="M79.2572 239.812C76.8432 256.032 73.8134 272.237 70.1719 288.251C69.1845 292.714 68.1069 297.264 66.9435 301.723C66.5515 303.386 69.0862 304.15 69.4783 302.488C73.5639 286.308 76.9499 269.936 79.72 253.549C80.4456 248.991 81.1691 244.521 81.8947 239.963C82.1149 238.121 79.4732 238.146 79.2572 239.812Z" fill="#3A3A3A"/>
<path d="M80.2055 244.322C88.4699 244.784 96.7428 244.895 104.936 244.651C106.61 244.604 106.673 241.965 104.999 242.013C96.7181 242.255 88.5332 242.146 80.2687 241.684C78.5111 241.554 78.4478 244.192 80.2055 244.322Z" fill="#3A3A3A"/>
<path d="M49.9363 291.373C45.0864 291.696 40.1275 292.897 37.039 296.871C34.0447 300.582 34.2806 305.427 37.0977 309.102C40.0866 312.957 44.9822 314.394 49.6328 315.034C54.3715 315.675 59.7345 315.98 64.1049 313.621C68.2071 311.432 71.2351 306.313 69.4971 301.696C68.9191 300.099 66.3506 300.741 66.9286 302.339C68.0845 305.534 66.3283 309.011 63.6444 310.795C60.244 313.089 55.8446 312.983 51.9796 312.627C48.0265 312.268 43.7299 311.549 40.6235 308.923C37.8628 306.569 36.4577 302.752 38.4757 299.369C40.8604 295.378 45.6433 294.173 49.9631 293.925C51.6369 293.877 51.7002 291.239 49.9363 291.373Z" fill="#3A3A3A"/>
<path d="M104.597 240.42C106.225 257 108.47 273.508 111.421 289.944C112.193 294.45 113.051 299.046 114 303.556C114.312 305.235 116.88 304.593 116.568 302.913C113.345 286.823 110.829 270.573 108.842 254.336C108.247 249.746 107.741 245.159 107.325 240.485C107.101 238.808 104.464 238.657 104.597 240.42Z" fill="#3A3A3A"/>
<path d="M133.988 296.029C137.851 296.473 142.049 297.63 144.525 300.857C146.827 303.991 146.294 307.85 143.589 310.513C140.702 313.435 136.46 314.125 132.578 314.472C128.61 314.729 124.204 314.887 120.555 312.864C117.34 311.115 114.969 307.187 116.553 303.529C117.207 301.961 114.672 301.196 114.018 302.764C112.338 306.772 114.254 311.305 117.448 313.933C121.246 317.104 126.609 317.408 131.368 317.171C136.128 316.933 141.252 316.176 144.94 312.921C148.357 309.923 149.703 305.204 147.691 301.021C145.173 295.857 139.408 293.959 134.052 293.391C132.296 293.172 132.233 295.811 133.988 296.029Z" fill="#3A3A3A"/>
<path d="M143.638 216.72C148.406 216.131 152.779 213.684 156.119 210.244C159.819 206.462 162.135 201.678 164.013 196.796C165.991 191.388 167.364 185.526 168.031 179.735C168.703 173.768 167.968 167.679 169.603 161.911C170.182 159.814 171.123 157.284 173.09 156.012C175.058 154.739 176.696 156.186 177.443 158.052C178.356 160.362 178.465 163.18 178.582 165.646C178.774 168.642 178.788 171.722 178.716 174.712C178.26 186.403 175.509 198.303 170.155 208.645C164.709 219.161 155.513 228.179 143.322 229.91C141.644 230.134 142.286 232.701 143.965 232.477C155.093 230.985 164.346 223.288 170.205 213.926C176.703 203.611 179.992 191.284 181.16 179.258C181.75 173.025 181.726 166.689 180.906 160.511C180.604 158.392 179.96 155.913 178.324 154.378C176.69 152.755 174.233 152.432 172.182 153.526C167.365 156.138 166.49 163.244 166.11 168.075C165.858 171.236 165.956 174.494 165.704 177.655C165.454 180.729 164.941 183.796 164.251 186.859C161.781 198.062 156.414 212.627 143.169 214.245C141.317 214.377 141.96 216.944 143.638 216.72Z" fill="#3A3A3A"/>
<path d="M136.052 154.948C139.139 173.059 140.194 191.473 140.811 209.789C141.12 218.947 141.342 228.015 141.651 237.173C141.961 246.243 142.098 255.221 141.441 264.268C140.669 274.456 139.104 284.625 136.488 294.593C136.096 296.255 138.631 297.02 139.023 295.357C143.674 277.608 145.085 259.164 144.378 240.934C143.679 222.352 143.508 203.783 142.191 185.274C141.472 174.875 140.311 164.552 138.62 154.305C138.394 152.716 135.826 153.358 136.052 154.948Z" fill="#3A3A3A"/>
<path d="M110.314 38.8037C110.662 38.988 111.969 39.5472 111.954 40.1628C111.948 40.4266 111.053 41.021 110.697 41.1885C109.002 42.1157 107.138 42.7748 105.275 43.3461C101.46 44.5744 97.4774 45.4467 93.587 46.1452C89.4326 46.8375 85.1966 47.2638 80.9627 47.6022C76.9068 47.8568 72.6708 48.2831 68.5397 48.0081C65.4622 47.8463 61.1825 46.4238 60.8312 42.72C60.5404 40.1614 62.6943 38.4533 64.915 37.6267C67.5799 36.6348 70.5841 36.1789 73.3244 35.7167C77.5646 35.1146 81.7922 35.04 86.0156 35.1413C94.7284 35.2623 103.416 36.4385 111.707 39.453C113.278 40.0186 114.043 37.4853 112.472 36.9197C104.093 33.9032 95.2295 32.7227 86.3428 32.5095C81.5035 32.3935 76.6579 32.5412 71.8856 33.3066C68.7913 33.8483 65.521 34.3857 62.6717 35.7252C59.9103 37.0667 57.9092 39.7463 58.2732 42.9226C58.7062 46.8923 62.3405 49.5311 66.0212 50.2353C68.3004 50.6419 70.5902 50.6089 72.882 50.4879C75.2619 50.369 77.6397 50.338 80.0216 50.1312C84.8715 49.8076 89.6354 49.394 94.4099 48.5406C99.4483 47.6936 104.495 46.4949 109.205 44.6721C110.984 43.9229 113.732 43.109 114.485 41.1034C115.239 39.0098 113.427 37.4705 111.777 36.5511C110.212 35.7217 108.749 37.9742 110.314 38.8037Z" fill="#3A3A3A"/>
<path d="M67.0792 35.479C66.8608 26.2352 72.5374 17.1327 81.2466 13.7342C85.8683 11.9093 91.1496 11.948 95.9636 13.1193C100.954 14.2949 105.82 16.9632 108.44 21.5134C111.231 26.2436 111.356 32.0537 110.35 37.3088C110.046 38.9732 112.58 39.7379 112.885 38.0735C113.891 32.8184 113.85 27.1863 111.768 22.2091C109.519 16.876 104.676 13.2403 99.2634 11.3508C94.0243 9.55336 87.8736 9.05388 82.4664 10.5959C77.5011 12.0606 73.2018 15.125 70.0232 19.1841C66.3919 23.7603 64.4007 29.6956 64.5255 35.5057C64.4854 37.1765 67.125 37.2398 67.0792 35.479Z" fill="#3A3A3A"/>
<path d="M92.124 11.7074C94.5713 8.77455 97.9992 5.33731 101.971 4.90467C103.559 4.76678 106.19 5.18184 106.318 7.20859C106.462 8.53185 104.683 9.28107 103.527 9.78125C101.926 10.4467 100.242 10.9343 98.6476 11.336C96.9653 11.7355 97.6081 14.3026 99.2904 13.903C101.151 13.4197 103.011 12.9364 104.792 12.0992C106.571 11.35 108.45 10.0753 108.85 8.06122C109.358 5.25782 106.949 2.91239 104.32 2.40939C101.691 1.9064 99.1204 2.63662 96.799 3.98872C94.2995 5.42454 92.1372 7.48435 90.2346 9.72637C89.7821 10.2434 89.6751 11.0327 90.1903 11.573C90.7056 12.1133 91.6714 12.2245 92.124 11.7074Z" fill="#3A3A3A"/>
<path d="M92.2708 9.24733C90.3752 7.53012 88.4753 5.98878 86.3073 4.61697C84.2251 3.33522 81.6172 1.95286 79.1514 1.98171C76.8617 2.01477 74.8859 3.63912 75.0049 6.01762C75.0465 7.95432 76.4205 9.39506 77.9811 10.4003C79.6275 11.4957 81.6344 12.2477 83.5595 12.7338C85.2228 13.1257 85.9879 10.5924 84.3246 10.2006C82.5733 9.8066 80.9163 9.15095 79.4416 8.23572C78.4885 7.59695 76.8463 6.32574 77.9317 5.11997C78.5666 4.34332 79.8779 4.72672 80.6656 4.92158C81.889 5.30287 83.0223 5.76999 84.1513 6.41298C86.4094 7.69896 88.4832 9.33246 90.3788 11.0497C91.5832 12.2224 93.5632 10.4222 92.2708 9.24733Z" fill="#3A3A3A"/>
<path d="M93.1943 11.1172C91.869 18.6523 91.5997 26.2126 91.9462 33.7878C91.9941 35.4607 94.6337 35.524 94.5858 33.8511C94.2329 26.5398 94.4122 19.0652 95.729 11.8819C96.033 10.2174 93.4983 9.45274 93.1943 11.1172Z" fill="#3A3A3A"/>
<path d="M85.7281 10.4102C80.8144 17.0673 80.2599 25.5007 80.068 33.5029C80.0279 35.1736 82.6675 35.237 82.7076 33.5662C82.889 26.0037 83.3428 18.0958 87.9841 11.7841C88.9836 10.4883 86.7276 9.11434 85.7281 10.4102Z" fill="#3A3A3A"/>
<path d="M84.3491 130.303C81.8038 129.978 79.1578 130.178 76.7569 131.177C74.622 132.093 72.3822 133.711 71.4496 135.889C70.6092 137.892 71.164 140.457 73.2525 141.475C75.4268 142.583 78.2719 141.419 80.1513 140.145C82.2109 138.698 83.7551 136.712 85.1256 134.633C85.6746 133.766 86.3116 132.902 87.29 132.485C88.1783 132.154 89.2341 132.18 90.1098 132.377C92.0392 132.687 93.9538 133.613 95.5122 134.706C96.4653 135.345 97.3241 136.245 97.9168 137.227C98.3399 137.941 99.2634 139.811 98.5405 140.586C97.8177 141.36 96.1586 140.793 95.461 140.512C94.0659 139.95 92.8551 139.042 91.8225 138.049C89.4975 135.882 87.447 133.281 85.5703 130.772C84.5461 129.428 82.6541 131.23 83.6783 132.574C85.4712 134.905 87.3521 137.238 89.4152 139.311C91.2208 141.114 93.4683 142.84 96.0953 143.431C98.2844 143.923 100.765 143.279 101.44 140.831C102.025 138.47 100.506 135.706 98.9627 133.997C96.3026 131.117 91.2521 128.797 87.2695 129.669C84.7031 130.223 83.5945 132.396 82.2283 134.299C80.86 136.29 78.9659 138.181 76.6592 138.917C75.4169 139.327 73.9211 139.291 73.8732 137.618C73.8168 136.297 75.0761 135.184 76.0629 134.415C78.5708 132.628 81.5729 132.26 84.5561 132.683C85.9533 133.157 86.0166 130.519 84.3491 130.303Z" fill="#3A3A3A"/>
<path d="M81.3132 157.77C81.8634 149.512 83.7292 141.462 86.7304 133.791C87.3843 132.223 84.8495 131.459 84.1957 133.027C81.1001 140.959 79.228 149.273 78.6736 157.707C78.6335 159.377 81.2731 159.441 81.3132 157.77Z" fill="#3A3A3A"/>
<path d="M96.3795 160.947C92.2896 151.61 88.9099 142.026 86.4186 132.112C86.0187 130.431 83.4502 131.073 83.8501 132.754C86.4252 142.847 89.7985 152.694 94.0602 162.211C94.7261 163.811 97.0454 162.546 96.3795 160.947Z" fill="#3A3A3A"/>
<path d="M84.0057 129.943C77.1828 128.107 70.2634 126.621 63.2414 125.749C59.9063 125.317 56.4811 124.971 53.0539 124.713C51.3842 124.585 49.6245 124.543 47.9549 124.415C46.3711 124.377 44.7015 124.249 43.2726 125.094C42.0239 125.768 41.3763 127.072 40.6429 128.287C39.8152 129.763 39.0733 131.329 38.3314 132.894C37.03 135.767 35.8124 138.817 35.2085 141.97C34.6004 145.299 39.0688 146.198 41.5261 146.521C44.7711 147.039 48.1125 147.207 51.3743 147.021C59.0418 146.677 66.0708 143.59 72.9217 140.587C74.4344 139.92 73.1694 137.602 71.6568 138.269C66.2284 140.691 60.712 143.11 54.7916 144.024C51.7874 144.48 48.7938 144.496 45.8064 144.248C44.4007 144.126 42.9929 144.093 41.5915 143.795C40.9777 143.692 40.3639 143.59 39.7522 143.399C39.4024 143.303 37.915 142.915 37.7496 142.471C37.67 142.117 38.1353 141.073 38.2317 140.723C38.4246 140.024 38.6174 139.324 38.8982 138.627C39.374 137.143 39.9357 135.749 40.4974 134.354C41.0548 133.136 41.6123 131.917 42.2577 130.701C42.8109 129.658 43.469 127.915 44.6276 127.326C45.6982 126.736 47.4516 127.042 48.5955 127.07C50.1792 127.108 51.6729 127.231 53.2546 127.357C56.3299 127.607 59.4932 127.859 62.5643 128.285C69.4984 129.155 76.3297 130.638 83.0646 132.472C84.9039 132.868 85.669 130.335 84.0057 129.943Z" fill="#3A3A3A"/>
<path d="M99.3528 143.421C105.805 146.039 112.735 143.39 118.361 140.093C121.397 138.318 124.349 136.365 127.556 134.771C130.676 133.174 133.877 131.843 137.164 130.602C140.896 129.196 144.711 127.967 148.526 126.739C150.122 126.249 149.479 123.682 147.883 124.172C141.407 126.216 134.929 128.349 128.787 131.193C125.671 132.614 122.725 134.303 119.866 136.082C117.006 137.861 114.058 139.638 110.861 140.793C107.4 141.942 103.606 142.291 100.118 140.888C98.5489 140.234 97.7838 142.767 99.3528 143.421Z" fill="#3A3A3A"/>
<path d="M55.6849 125.128C50.2249 128.868 44.6769 132.607 39.2169 136.347C38.4123 136.856 37.6057 137.452 36.8891 137.963C35.4582 138.897 36.7231 141.215 38.1541 140.281C43.6141 136.541 49.1621 132.802 54.6221 129.062C55.4267 128.553 56.2333 127.957 56.9498 127.446C58.3829 126.424 57.118 124.106 55.6849 125.128Z" fill="#3A3A3A"/>
<path d="M66.3018 126.614C59.3981 131.816 52.4945 137.018 45.5908 142.219C44.604 142.987 43.6192 143.668 42.6324 144.436C41.2873 145.459 43.0907 147.35 44.4358 146.327C51.3395 141.125 58.2431 135.924 65.1468 130.722C66.1336 129.954 67.1184 129.274 68.1052 128.505C69.4482 127.57 67.6448 125.679 66.3018 126.614Z" fill="#3A3A3A"/>
<path d="M75.5906 128.421C69.9356 132.949 64.2806 137.476 58.6257 142.004C57.819 142.601 57.0103 143.285 56.2916 143.884C56.8216 143.808 57.3517 143.733 57.8796 143.746C52.4877 140.977 47.0958 138.208 41.7898 135.529C41.0063 135.158 40.225 134.7 39.4415 134.329C37.9626 133.59 36.5 135.842 38.0669 136.584C43.4588 139.353 48.8507 142.121 54.1567 144.8C54.9402 145.171 55.7215 145.63 56.505 146C57.1145 146.279 57.6446 146.204 58.0929 145.863C63.7479 141.335 69.4029 136.807 75.0578 132.28C75.8645 131.683 76.6732 130.999 77.3919 130.4C78.7391 129.288 76.9357 127.397 75.5906 128.421Z" fill="#3A3A3A"/>
<path d="M74.4982 133.586C69.012 131.079 63.4356 128.657 57.9494 126.15C57.166 125.779 56.3825 125.409 55.597 125.126C54.8994 124.845 54.1934 124.916 53.7387 125.521C53.3741 126.04 53.5269 127.012 54.1343 127.378C59.6206 129.886 65.1969 132.307 70.6831 134.814C71.4665 135.185 72.25 135.556 73.0355 135.839C73.7331 136.119 74.4391 136.048 74.8938 135.443C75.2584 134.924 75.1078 133.865 74.4982 133.586Z" fill="#3A3A3A"/>
<path d="M68.8824 140.138C61.314 136.349 53.7456 132.56 46.1773 128.771C45.0461 128.216 44.0029 127.663 42.8717 127.108C41.3928 126.369 39.9302 128.621 41.4971 129.363C49.0655 133.152 56.6338 136.941 64.2022 140.73C65.3334 141.285 66.3766 141.838 67.5077 142.393C69.0746 143.134 70.4493 140.88 68.8824 140.138Z" fill="#3A3A3A"/>
<path d="M98.0384 135.822C101.973 133.277 105.908 130.732 109.842 128.187C110.379 127.848 110.915 127.509 111.542 127.084C112.168 126.659 112.449 125.962 112.026 125.248C111.689 124.624 110.815 124.339 110.189 124.764C106.254 127.309 102.319 129.854 98.3846 132.399C97.8482 132.738 97.3119 133.077 96.6854 133.502C96.059 133.927 95.7781 134.624 96.2012 135.338C96.5405 135.875 97.414 136.159 98.0384 135.822Z" fill="#3A3A3A"/>
<path d="M103.474 144.136C110.463 139.024 117.363 133.998 124.352 128.887C125.337 128.207 126.324 127.438 127.308 126.758C127.847 126.331 128.216 125.636 127.793 124.922C127.453 124.386 126.582 124.013 125.955 124.438C118.966 129.549 112.066 134.575 105.077 139.687C104.092 140.367 103.105 141.135 102.121 141.815C101.582 142.243 101.213 142.938 101.636 143.652C101.976 144.188 102.935 144.563 103.474 144.136Z" fill="#3A3A3A"/>
<path d="M91.0043 131.782C105.071 125.257 121.224 127.14 136.287 126.797C140.251 126.717 144.214 126.636 148.176 126.643C149.848 126.683 149.911 124.045 148.239 124.005C141.198 123.924 134.056 124.368 127.015 124.287C118.918 124.181 110.821 124.075 102.777 125.466C98.2683 126.237 93.9232 127.541 89.7393 129.464C88.2245 130.22 89.4895 132.538 91.0043 131.782Z" fill="#3A3A3A"/>
<path d="M110.484 127.146C115.362 129.287 120.153 131.426 125.032 133.566C125.73 133.847 126.425 134.216 127.123 134.496C127.732 134.775 128.537 134.266 128.727 133.655C128.922 132.868 128.495 132.33 127.886 132.051C123.007 129.91 118.216 127.772 113.337 125.631C112.64 125.35 111.944 124.982 111.247 124.701C110.637 124.422 109.833 124.931 109.642 125.542C109.361 126.24 109.786 126.866 110.484 127.146Z" fill="#3A3A3A"/>
<path d="M96.2547 129.445C102.164 132.666 107.985 135.885 113.897 139.018C114.678 139.477 115.547 139.938 116.329 140.397C117.805 141.224 119.18 138.969 117.703 138.142C111.794 134.921 105.973 131.701 100.061 128.568C99.28 128.109 98.4107 127.649 97.6294 127.19C96.1526 126.363 94.7779 128.617 96.2547 129.445Z" fill="#3A3A3A"/>
<path d="M55.1111 79.633C56.4297 79.6647 57.5426 77.8578 57.5968 75.5974C57.6511 73.3369 56.6261 71.4788 55.3075 71.4472C53.9889 71.4155 52.876 73.2224 52.8217 75.4828C52.7675 77.7433 53.7925 79.6014 55.1111 79.633Z" fill="black"/>
<path d="M117.187 81.122C118.506 81.1536 119.619 79.3468 119.673 77.0863C119.727 74.8259 118.702 72.9677 117.384 72.9361C116.065 72.9045 114.952 74.7113 114.898 76.9718C114.844 79.2322 115.869 81.0904 117.187 81.122Z" fill="black"/>
<path d="M86.339 80.3742C88.0398 80.415 89.4365 79.7 89.4586 78.7773C89.4807 77.8545 88.1199 77.0734 86.4191 77.0326C84.7184 76.9918 83.3217 77.7068 83.2995 78.6295C83.2774 79.5523 84.6382 80.3334 86.339 80.3742Z" fill="black"/>
<path d="M229.619 45.5368C228.277 53.7754 222.041 60.4888 213.812 62.2271C205.585 63.8775 196.963 59.9752 192.735 52.7469C188.504 45.6065 189.255 36.2979 194.603 29.9152C200.04 23.4466 209.076 21.1117 216.929 24.0277C225.83 27.3207 230.978 36.5948 229.611 45.8886C229.395 47.5551 232.034 47.6185 232.25 45.9519C233.616 36.746 228.912 27.3066 220.744 22.7994C212.401 18.2879 201.895 19.5317 194.788 25.8722C187.771 32.1269 185.498 42.4548 188.987 51.1612C192.476 59.8676 201.493 65.627 210.837 65.1473C221.412 64.697 230.407 56.73 232.156 46.2136C232.261 45.5122 232.014 44.8024 231.314 44.6096C230.612 44.5048 229.724 44.8355 229.619 45.5368Z" fill="#4F4F4F"/>
<path d="M235.671 46.4739C233.918 57.1662 225.872 65.9478 215.167 68.1547C204.461 70.3615 193.135 65.4265 187.551 55.966C181.965 46.5934 182.877 34.2972 189.944 25.932C197.012 17.5668 208.796 14.418 219.094 18.1845C229.129 21.9446 236.021 31.8765 236.028 42.611C235.994 44.018 235.875 45.3349 235.665 46.7377C235.449 48.4042 238.088 48.4675 238.304 46.801C240.083 35.0534 234.118 23.1202 223.691 17.4149C213.087 11.7054 199.845 13.2354 190.85 21.2024C181.855 29.1694 178.899 42.2965 183.387 53.4025C187.874 64.5085 199.234 71.7319 211.219 71.2275C223.029 70.7189 233.521 62.6998 237.223 51.5263C237.696 50.1299 237.996 48.6413 238.294 47.2407C238.399 46.5393 238.152 45.8295 237.452 45.6367C236.664 45.4418 235.776 45.7725 235.671 46.4739Z" fill="#4F4F4F"/>
<path d="M204.263 104.32C203.953 106.248 203.64 108.264 203.33 110.192C203.219 111.157 203.204 111.773 202.483 112.46C201.31 113.663 199.284 113.703 197.801 113.139C196.056 112.481 195.298 111.055 195.606 109.215C195.811 107.988 196.017 106.761 196.134 105.532C197.594 96.0649 199.054 86.5973 200.513 77.1298C200.933 74.3243 201.35 71.6067 201.77 68.8012C201.874 68.0998 201.097 67.4652 200.481 67.4505C199.689 67.4315 199.235 68.0365 199.13 68.7379C197.886 76.5388 196.731 84.3419 195.489 92.055C194.76 96.7887 194.032 101.435 193.302 106.168C193.101 107.219 192.985 108.36 192.784 109.411C192.365 112.217 194.331 114.64 196.95 115.582C200.616 116.902 205.059 115.161 205.684 111.129C206.003 108.849 206.41 106.571 206.729 104.291C206.834 103.589 206.056 102.955 205.441 102.94C204.823 103.013 204.368 103.618 204.263 104.32Z" fill="#4F4F4F"/>
<path d="M209.476 70.4817C208.956 73.8127 208.434 77.2317 207.914 80.5627C207.816 81.0003 207.803 81.5279 207.704 81.9655C207.6 82.6668 208.377 83.3014 208.993 83.3162C209.784 83.3352 210.239 82.7302 210.344 82.0288C210.864 78.6978 211.386 75.2788 211.906 71.9478C212.005 71.5102 212.018 70.9826 212.116 70.545C212.221 69.8437 211.444 69.2091 210.828 69.1943C210.036 69.1754 209.581 69.7804 209.476 70.4817Z" fill="#4F4F4F"/>
<path d="M210.558 80.4503C205.966 81.044 201.93 84.1147 199.895 88.2013C198.695 90.5481 198.106 93.0856 197.954 95.7216C197.897 98.0959 198.008 100.826 199.545 102.799C202.362 106.474 207.734 106.427 211.231 103.783C215.442 100.716 216.717 95.2918 217.187 90.3758C217.672 84.8443 216.501 78.5691 211.382 75.4548C209.907 74.5396 208.533 76.7942 210.007 77.7095C213.564 79.9065 214.783 84.1591 214.688 88.1162C214.591 92.1612 213.947 96.9851 211.227 100.263C209.052 102.851 205.055 104.339 202.21 101.807C200.744 100.54 200.621 98.3372 200.663 96.5784C200.626 94.4659 201.028 92.3638 201.869 90.3603C203.547 86.4412 207.048 83.6216 211.286 83.1073C212.879 82.7936 212.236 80.2266 210.558 80.4503Z" fill="#3A3A3A"/>
<path d="M209.476 70.4818C209.155 72.8498 208.749 75.1277 208.428 77.4956C208.419 77.8473 208.323 78.197 208.317 78.4608C208.212 79.1622 208.989 79.7967 209.605 79.8115C210.397 79.8305 210.851 79.2255 210.956 78.5241C211.277 76.1562 211.684 73.8783 212.005 71.5103C212.013 71.1586 212.11 70.8089 212.116 70.5451C212.221 69.8438 211.444 69.2092 210.828 69.1944C210.034 69.2634 209.581 69.7804 209.476 70.4818Z" fill="#4F4F4F"/>
</g>
<defs>
<clipPath id="clip0_812_2566">
<rect width="232" height="314.286" fill="white" transform="translate(7.53638) rotate(1.37406)"/>
</clipPath>
</defs>
</svg>
