<svg width="233" height="316" viewBox="0 0 233 316" fill="none" xmlns="http://www.w3.org/2000/svg">
<g clip-path="url(#clip0_812_2566)">
<path d="M105.645 36.0969C106.877 28.8841 105.997 20.6157 99.9244 15.514C94.8197 11.2039 87.4267 9.5326 80.7378 10.1483C68.24 11.2039 58.9108 23.3425 59.7909 35.5691C66.3038 33.722 73.5208 32.7544 81.4419 32.7544C90.2431 32.7544 98.2522 33.8979 105.293 36.1849" fill="#93AF8E"/>
<path d="M84.6987 8.9169C81.7062 6.27806 78.1858 3.72718 74.2252 2.67164C73.4331 2.49572 72.641 2.3198 71.7609 2.40776C70.1766 2.67164 69.2965 4.07902 69.5606 5.57437C70.0886 8.21321 74.8413 9.97243 77.3056 10.4122L77.5697 10.3243C78.6258 10.0604 79.682 9.88447 80.7381 9.79651C84.6106 9.44466 88.7472 9.88447 92.5317 11.1159C94.9081 10.5002 100.453 9.00486 100.981 6.1901C101.333 4.43087 99.8367 2.67164 98.0765 2.23184C93.0598 0.824456 88.0431 5.31048 85.0507 8.9169H84.6987Z" fill="#93AF8E"/>
<path d="M57.0629 36.2729C55.3026 37.5923 53.8064 39.2635 53.6304 41.3746C53.3664 44.1014 55.3906 46.5643 57.855 47.7078C60.3193 48.8513 63.1357 48.7634 65.8641 48.6754C74.8413 48.2356 83.8186 47.4439 92.5318 45.2449C96.8444 44.1894 101.421 42.8699 105.382 40.7589C108.11 39.2635 107.758 37.5923 104.941 36.1849C97.9005 33.9859 89.9794 32.8424 81.3542 32.8424C72.465 32.7544 64.3679 33.9859 57.0629 36.2729Z" fill="#93AF8E"/>
<path d="M79.5936 130.303C67.624 127.313 55.3023 125.729 42.9806 125.729C41.9244 125.729 40.7803 125.729 39.9002 126.345C39.1081 126.873 38.668 127.665 38.2279 128.456C35.8516 132.766 34.0914 137.428 33.0352 142.266C32.9472 142.618 32.8592 143.058 33.0352 143.41C33.2112 143.762 33.4753 143.937 33.8273 144.113C35.6756 145.169 37.8759 145.433 40.0762 145.521C43.3326 145.785 46.5011 145.873 49.7575 145.433C56.4464 144.641 62.6953 141.65 68.8562 138.836L69.0322 138.66C68.6801 137.956 68.5921 137.164 68.7682 136.461C69.0322 135.229 69.9123 134.262 70.8804 133.382C73.6088 131.095 77.0413 130.391 80.5618 130.831L79.5936 130.303Z" fill="#93AF8E"/>
<path d="M140.674 123.53C134.601 123.618 128.529 123.706 122.456 123.706C110.134 123.882 97.3722 124.058 86.3707 129.6L86.1067 130.128C88.395 130.479 90.8593 131.623 92.3555 132.59C94.2038 133.822 95.7 135.757 96.1401 137.956C96.3161 138.66 96.3161 139.363 95.964 139.979C95.788 140.243 95.612 140.507 95.348 140.683L95.964 140.859C100.013 142.53 104.765 141.738 108.814 139.891C112.862 138.132 116.383 135.405 120.167 133.206C127.56 128.72 135.834 125.817 144.019 122.915L140.674 123.53Z" fill="#93AF8E"/>
<path d="M105.469 241.662C107.934 261.278 111.63 282.125 115.943 301.212C114.271 305.083 116.823 309.745 120.431 311.768C124.128 313.791 128.528 313.879 132.665 313.527C136.098 313.263 139.706 312.647 142.698 310.888C145.691 309.129 148.067 305.962 147.979 302.444C147.891 299.365 145.867 296.55 143.226 294.879C141.642 293.824 139.794 293.208 137.946 292.856L138.21 292.504C142.434 274.824 143.403 256.44 142.258 238.32C142.082 235.065 141.906 231.811 141.73 228.556H142.434C150.179 227.325 157.22 222.839 162.413 216.945C167.606 211.052 171.038 203.839 173.415 196.274C177.375 183.872 178.519 170.502 176.671 157.659C176.231 154.845 175.175 151.414 172.359 150.886C169.278 150.271 166.99 153.701 166.022 156.692C163.645 163.817 165.142 171.293 164.085 178.506C163.029 185.719 161.357 192.932 158.189 199.617C155.02 206.214 149.035 211.844 141.818 212.811L140.85 212.723C139.97 196.011 138.826 179.298 136.274 162.849L136.362 163.465C147.275 155.021 156.692 144.729 166.11 134.614C171.038 129.248 176.055 123.882 180.632 118.165C183.624 114.382 186.528 110.512 190.137 107.258L190.225 107.082C190.137 106.73 190.137 106.378 190.225 105.938L194.45 73.6564C188.377 77.4387 184.416 85.1793 182.392 92.656C176.759 97.142 171.126 101.716 165.582 106.202C159.069 111.392 152.116 118.956 144.635 122.651C136.45 125.554 128.176 128.456 120.783 132.942C116.999 135.229 113.478 137.868 109.43 139.627C105.381 141.387 100.717 142.178 96.5801 140.595L96.14 140.243C95.3479 140.947 94.0277 141.035 92.8836 140.771C90.5952 140.243 88.659 138.836 86.9867 137.252C85.1385 135.493 83.3782 133.47 81.706 131.447L81.618 131.359C81.0899 132.063 80.6499 132.766 80.1218 133.558C78.4496 136.197 76.2493 138.572 73.3449 139.539C72.3767 139.803 71.2326 139.979 70.3524 139.451C69.9124 139.188 69.6484 138.836 69.3843 138.484L69.2083 138.66C63.1355 141.562 56.8866 144.465 50.1097 145.257C46.9412 145.609 43.6848 145.521 40.4283 145.345C39.1081 145.257 37.788 145.081 36.5558 144.817L36.1157 145.785C28.3707 166.543 24.0581 191.261 23.706 213.515C21.9458 218.001 20.8016 222.663 20.3616 227.413C19.9215 231.723 20.3616 236.913 23.9701 239.375C25.5543 240.431 27.4905 240.783 29.4268 240.783C33.4754 240.695 38.052 238.936 40.5163 229.7C40.7804 234.186 41.2204 238.76 41.6605 243.246C41.1324 259.167 42.8047 277.199 46.5012 292.68L45.9731 293.208C44.3889 293.648 42.8927 294.175 41.4845 295.055C38.8441 296.726 36.8198 299.541 36.7318 302.62C36.6438 306.138 39.0201 309.305 42.0125 311.064C45.005 312.823 48.6135 313.351 52.0459 313.703C56.1825 314.055 60.6711 314.055 64.2796 311.944C67.9761 309.92 70.4405 305.258 68.7682 301.388C73.0808 282.301 76.6893 261.366 79.2417 241.838L79.3297 242.102C87.6028 242.366 95.876 242.278 104.061 241.838H105.469V241.662Z" fill="white"/>
<path d="M204.131 77.9665L205.011 72.0731C207.739 73.2166 209.588 75.8555 210.556 78.6702C211.436 81.485 211.436 84.4757 211.084 87.4663C210.82 90.1931 210.204 92.92 208.884 95.2949C207.563 97.6699 205.275 99.693 202.547 100.221C199.818 100.749 196.738 99.517 195.594 97.0541C195.242 96.2625 194.978 95.2949 194.89 94.4153C194.45 90.7209 195.066 86.8506 197.002 83.596C198.586 80.9572 201.226 78.8461 204.131 77.9665Z" fill="white"/>
<path d="M79.9458 130.479C67.9761 127.489 55.6544 125.905 43.3327 125.905V125.817C23.0019 116.933 20.6256 101.364 21.8577 83.0682C22.4738 73.8323 24.8502 65.6519 28.8107 58.7909C23.882 22.9027 26.8744 18.9445 26.8744 18.9445C31.8911 21.3194 50.5497 32.4905 57.1506 36.5367L57.0626 36.4488C55.3024 37.7682 53.8062 39.4394 53.6301 41.5505C53.3661 44.2773 55.3904 46.7402 57.8547 47.8837C60.3191 49.0272 63.1354 48.9393 65.8638 48.8513C74.8411 48.4115 83.8183 47.6198 92.5315 45.4208C96.8441 44.3653 101.421 43.0459 105.381 40.9348C108.022 39.5274 107.846 37.9441 105.381 36.5367C111.982 32.5785 130.641 21.3194 135.657 18.9445C135.657 18.9445 138.65 22.9027 133.721 58.7909L134.073 58.9668C137.946 65.8278 140.322 73.9203 140.938 83.0682C142.082 99.8689 140.146 114.558 123.688 123.618L123.424 123.794C123.16 123.794 122.984 123.794 122.72 123.794C110.398 123.97 97.6362 124.146 86.6347 129.688L85.7546 130.128C84.1703 130.04 82.6741 130.303 81.618 131.359L79.9458 130.479Z" fill="white"/>
<path d="M80.6498 130.567C77.2173 130.128 73.6968 130.831 70.9685 133.118C70.0003 133.91 69.2082 134.965 68.8562 136.197C68.5921 137.428 68.9442 138.836 70.0883 139.451C70.9685 139.979 72.1126 139.891 73.0807 139.539C75.9851 138.66 78.2735 136.197 79.8577 133.558C80.3857 132.678 80.9138 131.799 81.6179 131.095C84.3463 128.368 89.9791 130.567 92.6194 132.327C94.4677 133.558 95.9639 135.493 96.404 137.692C96.58 138.396 96.58 139.1 96.2279 139.715C95.6118 140.947 93.8516 141.123 92.5314 140.771C90.2431 140.243 88.3068 138.836 86.6346 137.252C84.5223 135.229 82.498 132.942 80.7378 130.655" fill="white"/>
<path d="M86.4588 32.7544C85.9307 25.1897 85.4907 17.3611 87.867 10.1483L87.779 10.4122C85.1386 9.97239 82.4982 9.88443 79.9459 10.0604L79.5058 10.1483C77.1295 13.4908 75.8093 17.4491 75.1932 21.5833C74.5771 25.2777 74.5771 28.972 74.5771 32.7544L75.0172 32.9303C76.8655 32.8423 78.7137 32.7544 80.562 32.7544C82.7623 32.7544 84.8746 32.8423 86.8988 32.9303L86.4588 32.7544Z" fill="#EDEDD9"/>
<path d="M204.131 65.9158C219.248 65.9158 231.503 53.6681 231.503 38.5598C231.503 23.4515 219.248 11.2039 204.131 11.2039C189.014 11.2039 176.759 23.4515 176.759 38.5598C176.759 53.6681 189.014 65.9158 204.131 65.9158Z" fill="#EA7434"/>
<path d="M205.715 66.4436L204.219 78.0544C201.314 78.9341 198.674 81.0451 197.09 83.684C195.154 86.8506 194.538 90.7209 194.978 94.5032C195.066 95.3828 195.242 96.3504 195.682 97.142C196.65 99.2531 199.026 100.397 201.314 100.397L200.434 107.434C200.17 109.721 197.618 111.304 194.714 110.952C191.897 110.6 189.785 108.401 190.137 106.114L195.506 65.1241L195.77 64.6843C197.354 65.2121 199.026 65.5639 200.698 65.8278C202.547 66.0917 204.483 66.0917 206.243 66.0037" fill="#EA7434"/>
<path d="M81.2661 103.739C99.0445 103.739 110.486 93.8875 108.11 83.9478C105.469 72.9527 96.0521 65.3 81.2661 65.3H81.4421C66.568 65.3 57.1507 72.9527 54.5984 83.9478C52.2221 93.9754 63.7517 103.739 81.4421 103.739" fill="#FFF3E5"/>
<path d="M30.0427 29.8517C30.5708 35.921 31.4509 41.9024 32.8591 47.8838C37.4357 44.2773 41.3083 42.2542 46.501 40.3191C40.7802 37.1525 35.8515 33.0183 30.0427 29.8517Z" fill="#FFC08D"/>
<path d="M132.753 29.8517C132.225 35.921 131.345 41.9024 129.937 47.8838C125.36 44.2773 121.487 42.2542 116.295 40.3191C122.103 37.1525 127.032 33.0183 132.753 29.8517Z" fill="#FFC08D"/>
<path d="M204.131 59.8465C215.894 59.8465 225.43 50.3161 225.43 38.5598C225.43 26.8035 215.894 17.2732 204.131 17.2732C192.368 17.2732 182.832 26.8035 182.832 38.5598C182.832 50.3161 192.368 59.8465 204.131 59.8465Z" fill="white"/>
<path d="M44.0366 124.234C35.4994 120.452 28.1944 114.47 25.114 105.41C23.7938 101.452 23.1777 97.3179 23.0017 93.1838C22.7377 88.17 23.0017 82.9803 23.7058 77.9665C24.6739 71.3694 26.6982 64.9482 29.9547 59.1427C30.8348 57.6474 28.5465 56.328 27.6664 57.8233C21.8576 68.1148 20.0093 79.9016 20.2733 91.6005C20.4494 100.66 22.4736 109.633 28.5465 116.669C32.331 121.155 37.4357 124.322 42.7164 126.697C44.2126 127.225 45.5328 124.938 44.0366 124.234Z" fill="#3A3A3A"/>
<path d="M133.017 59.2307C138.21 68.3787 139.882 78.7581 139.97 89.1375C140.058 97.23 138.914 105.586 134.249 112.359C131.433 116.494 127.472 119.66 123.16 122.123C121.664 122.915 122.984 125.202 124.48 124.41C132.489 119.924 138.474 112.975 140.938 104.003C142.082 99.7809 142.523 95.2948 142.611 90.9847C142.699 85.883 142.347 80.6933 141.554 75.6795C140.498 69.4342 138.474 63.4528 135.306 57.9113C134.425 56.4159 132.225 57.8233 133.017 59.2307Z" fill="#3A3A3A"/>
<path d="M57.8547 34.9534C49.4936 29.9396 41.1324 24.8379 32.5953 20.0879C30.923 19.1204 29.2508 18.2408 27.5786 17.3611C26.8745 17.0093 26.2584 17.1852 25.7303 17.801C24.9382 18.8565 24.9382 20.7037 24.8502 21.8472C24.3221 27.5647 24.7622 33.4581 25.2903 39.0876C25.8183 45.5967 26.6104 52.1059 27.5786 58.615C27.6666 59.3187 28.5467 59.6705 29.1628 59.4946C29.9549 59.3187 30.2189 58.615 30.0429 57.9113C28.7227 48.4115 27.5786 38.7357 27.3145 29.148C27.2265 26.9489 27.2265 24.7499 27.4025 22.5509C27.4025 22.199 27.4906 21.8472 27.4906 21.4953C27.4906 21.3194 27.4906 21.1435 27.5786 21.0555C27.5786 20.7037 27.4906 21.3194 27.5786 20.8796C27.6666 20.4398 27.7546 20.0879 27.8426 19.6481C27.8426 19.4722 27.9306 19.3843 27.9306 19.2083C28.0186 18.8565 28.1066 19.1204 27.9306 19.2083L28.0186 19.0324C27.4025 19.2083 26.7865 19.3843 26.1704 19.4722C29.7789 21.1435 33.2114 23.2546 36.7318 25.2777C41.3965 28.0045 45.9731 30.7313 50.6378 33.4581C52.574 34.6016 54.5983 35.833 56.5346 36.9765C57.9428 38.12 59.2629 35.833 57.8547 34.9534Z" fill="#3A3A3A"/>
<path d="M106.085 37.2404C114.446 32.2266 122.808 27.1248 131.345 22.3749C133.017 21.4073 134.689 20.5277 136.361 19.6481C135.745 19.4722 135.129 19.2963 134.513 19.2083C134.513 19.2083 134.513 19.2963 134.601 19.3842C134.689 19.4722 134.513 18.9444 134.601 19.2963C134.601 19.3842 134.689 19.4722 134.689 19.6481C134.777 20 134.865 20.3518 134.953 20.7037C134.953 20.7916 134.953 20.9675 135.041 21.0555C135.129 21.4073 135.041 20.9675 135.041 21.1435C135.041 21.4953 135.129 21.8472 135.129 22.199C135.657 27.7406 135.129 33.458 134.689 38.9996C134.161 45.4208 133.369 51.754 132.489 58.0872C132.401 58.7909 132.665 59.4946 133.369 59.6705C133.985 59.8464 134.865 59.4946 134.953 58.7909C136.273 49.0272 137.506 39.1755 137.77 29.3239C137.858 25.9813 138.034 22.3749 137.154 19.1204C137.066 18.7685 136.978 18.2407 136.714 17.9769C136.273 17.3611 135.569 17.1852 134.865 17.5371C131.257 19.2083 127.824 21.3194 124.304 23.3425C119.639 26.0693 115.063 28.7961 110.398 31.5229C108.462 32.6664 106.437 33.8979 104.501 35.0413C103.357 35.833 104.677 38.12 106.085 37.2404Z" fill="#3A3A3A"/>
<path d="M63.8398 81.309C66.7442 83.596 70.0886 86.0589 73.9612 85.795C77.4817 85.5311 80.4741 83.3321 82.2343 80.3414C81.4422 80.3414 80.7381 80.3414 79.946 80.3414C82.1463 83.7719 85.7548 86.3228 89.8914 86.4987C93.5879 86.6746 97.5484 84.5636 99.0446 81.1331C99.7487 79.6377 97.4604 78.2304 96.7563 79.8137C95.5242 82.4525 92.7958 84.0358 89.8914 83.8599C86.7229 83.684 83.9066 81.5729 82.1463 78.934C81.6182 78.1424 80.3861 78.0544 79.858 78.934C78.5378 81.221 76.2495 82.9803 73.5211 83.0682C70.4407 83.1562 67.8003 81.1331 65.512 79.2859C64.3679 78.4063 62.5196 80.2535 63.8398 81.309Z" fill="#3A3A3A"/>
<path d="M1.96706 86.5867C13.7607 87.2904 25.5543 88.3459 37.3479 89.5774C39.0202 89.7533 39.0202 87.1144 37.3479 86.9385C25.5543 85.7071 13.7607 84.6515 1.96706 83.9478C0.294833 83.8599 0.294833 86.4987 1.96706 86.5867Z" fill="#3A3A3A"/>
<path d="M2.58336 108.929C14.377 105.41 26.2586 102.244 38.2283 99.517C39.9005 99.1651 39.1964 96.6142 37.5242 96.9661C25.5545 99.6929 13.6729 102.859 1.87926 106.378C0.207034 106.818 0.911131 109.369 2.58336 108.929Z" fill="#3A3A3A"/>
<path d="M126.68 87.9941C137.946 84.6515 149.475 82.0127 161.093 80.0776C162.765 79.8137 162.061 77.2628 160.389 77.5267C148.771 79.4618 137.242 82.1007 125.976 85.4432C124.304 85.971 125.008 88.5218 126.68 87.9941Z" fill="#3A3A3A"/>
<path d="M127.56 96.7902C139.266 97.4059 151.06 98.4615 162.677 100.133C163.381 100.221 164.085 99.9568 164.261 99.2531C164.437 98.6374 164.085 97.7578 163.381 97.6698C151.5 95.9986 139.53 94.8551 127.56 94.2393C125.888 94.1514 125.888 96.7902 127.56 96.7902Z" fill="#3A3A3A"/>
<path d="M181.16 91.7764C174.559 97.054 167.782 102.244 161.357 107.785C155.724 112.623 150.356 118.165 143.667 121.507C142.171 122.299 143.491 124.586 144.987 123.794C151.764 120.364 157.309 114.822 162.941 109.896C169.454 104.267 176.319 98.9892 183.008 93.6235C184.328 92.568 182.48 90.7208 181.16 91.7764Z" fill="#3A3A3A"/>
<path d="M183.36 93.0958C185.296 86.2349 188.641 78.8461 194.802 74.8879C196.21 74.0082 194.89 71.7212 193.481 72.6009C186.705 76.911 182.92 84.8275 180.808 92.3921C180.368 93.9755 182.92 94.6791 183.36 93.0958Z" fill="#3A3A3A"/>
<path d="M188.993 106.378C185.296 109.633 182.392 113.591 179.399 117.373C176.055 121.507 172.535 125.466 169.014 129.336C162.149 136.813 155.284 144.377 147.979 151.414C143.931 155.372 139.706 159.067 135.217 162.497C133.897 163.553 135.745 165.4 137.066 164.344C144.987 158.187 152.204 151.062 159.157 143.762C166.286 136.197 173.415 128.632 180.016 120.628C183.536 116.406 186.704 111.832 190.841 108.137C192.161 107.082 190.225 105.234 188.993 106.378Z" fill="#3A3A3A"/>
<path d="M34.7076 145.345C28.3707 162.321 24.6742 180.353 23.09 198.385C22.6499 203.399 22.3859 208.325 22.2979 213.339C22.2979 215.01 24.9382 215.01 24.9382 213.339C25.2023 195.395 27.8426 177.539 32.6833 160.21C34.0035 155.372 35.5877 150.623 37.2599 145.961C37.788 144.465 35.3236 143.762 34.7076 145.345Z" fill="#3A3A3A"/>
<path d="M22.2979 212.987C20.6257 217.385 19.4815 221.959 18.9535 226.621C18.5134 230.14 18.5134 234.01 20.3616 237.264C23.3541 242.718 31.5392 243.246 36.1158 239.551C39.1082 237.177 40.6925 233.394 41.6606 229.788C42.1006 228.116 39.5483 227.413 39.1082 229.084C37.8761 233.57 35.4997 238.496 30.395 239.112C27.4026 239.463 24.2342 238.76 22.65 236.033C21.1538 233.394 21.2418 230.14 21.5058 227.237C22.0339 222.575 23.178 218.001 24.8503 213.691C25.4664 212.108 22.914 211.492 22.2979 212.987Z" fill="#3A3A3A"/>
<path d="M23.442 223.367C23.09 224.95 22.7379 226.533 22.5619 228.116C22.4739 228.82 22.2979 229.524 22.2979 230.14C22.2979 230.931 22.4739 231.723 22.8259 232.514C23.442 233.834 24.5862 234.977 26.0824 235.153C27.4906 235.329 28.8988 234.362 29.6029 233.218C30.483 231.899 30.571 230.14 30.571 228.556C30.571 226.885 27.9306 226.885 27.9306 228.556C27.9306 228.996 27.9306 229.348 27.9306 229.788C27.9306 230.227 27.9306 230.227 27.8426 230.667C27.8426 230.843 27.7546 231.019 27.7546 231.107C27.7546 231.195 27.5786 231.635 27.6666 231.371C27.5786 231.547 27.5786 231.635 27.4906 231.723C27.4026 231.811 27.3145 231.987 27.4906 231.811C27.4026 231.899 27.3145 231.987 27.2265 232.163C27.1385 232.251 27.1385 232.251 27.0505 232.339C27.1385 232.251 27.1385 232.251 27.0505 232.339C26.8745 232.427 26.7865 232.514 26.6985 232.514C26.9625 232.427 26.5224 232.602 26.4344 232.602C26.7865 232.514 26.0824 232.514 26.4344 232.602C26.3464 232.602 26.2584 232.602 26.2584 232.514C26.4344 232.602 26.4344 232.602 26.2584 232.514C26.1704 232.514 25.8183 232.251 26.0824 232.427C25.9944 232.339 25.9063 232.251 25.8183 232.163C25.7303 232.075 25.7303 232.075 25.8183 232.163C25.7303 232.075 25.7303 231.987 25.6423 231.987C25.5543 231.811 25.4663 231.723 25.3783 231.547C25.2903 231.371 25.2903 231.371 25.3783 231.459C25.3783 231.371 25.2903 231.283 25.2903 231.195C25.2023 231.019 25.2023 230.843 25.2023 230.667C25.2023 230.491 25.2023 230.491 25.2023 230.667C25.2023 230.579 25.2023 230.491 25.2023 230.403C25.2023 230.228 25.2023 230.052 25.2023 229.876C25.2023 229.524 25.2903 229.172 25.3783 228.732C25.4663 228.116 25.5543 227.501 25.6423 226.709C25.8183 225.829 25.9944 224.95 26.1704 224.07C26.3464 223.367 25.9944 222.663 25.2903 222.487C24.4101 222.311 23.618 222.663 23.442 223.367Z" fill="#3A3A3A"/>
<path d="M39.8124 154.317C37.7881 177.275 37.4361 200.497 38.6683 223.542C39.0203 230.052 39.5484 236.561 40.1645 243.07C40.3405 244.741 42.9809 244.741 42.8048 243.07C40.6045 220.112 40.0765 196.978 41.1326 173.844C41.4847 167.335 41.9247 160.826 42.4528 154.317C42.6288 152.646 39.9884 152.646 39.8124 154.317Z" fill="#3A3A3A"/>
<path d="M40.1643 243.07C39.6362 259.695 41.2204 276.671 45.0049 292.856C45.357 294.527 47.9093 293.824 47.5573 292.152C43.7728 276.143 42.2766 259.519 42.8046 243.07C42.8926 241.399 40.2523 241.399 40.1643 243.07Z" fill="#3A3A3A"/>
<path d="M78.1854 238.76C76.1611 255.033 73.5208 271.305 70.2643 287.402C69.3842 291.888 68.416 296.462 67.3599 300.948C67.0079 302.62 69.5602 303.323 69.9123 301.652C73.6088 285.379 76.6012 268.931 78.9775 252.482C79.5936 247.908 80.2097 243.422 80.8258 238.848C81.0018 237.001 78.3614 237.089 78.1854 238.76Z" fill="#3A3A3A"/>
<path d="M79.2418 243.246C87.515 243.51 95.7881 243.422 103.973 242.982C105.645 242.894 105.645 240.255 103.973 240.343C95.7001 240.783 87.515 240.871 79.2418 240.607C77.4816 240.519 77.4816 243.158 79.2418 243.246Z" fill="#3A3A3A"/>
<path d="M50.1097 291.009C45.269 291.449 40.3403 292.768 37.3479 296.814C34.4435 300.597 34.7956 305.434 37.7 309.041C40.7804 312.823 45.7091 314.143 50.3737 314.67C55.1264 315.198 60.4951 315.374 64.8077 312.911C68.8563 310.624 71.7606 305.434 69.9124 300.86C69.2963 299.277 66.744 299.981 67.36 301.564C68.5922 304.731 66.92 308.249 64.2796 310.096C60.9352 312.471 56.5345 312.471 52.662 312.207C48.7015 311.944 44.3889 311.328 41.2204 308.777C38.4041 306.49 36.9078 302.708 38.8441 299.277C41.1324 295.231 45.8851 293.911 50.1977 293.56C51.8699 293.472 51.8699 290.833 50.1097 291.009Z" fill="#3A3A3A"/>
<path d="M103.533 238.76C105.557 255.296 108.198 271.745 111.542 288.106C112.422 292.592 113.39 297.166 114.447 301.652C114.799 303.323 117.351 302.62 116.999 300.948C113.39 284.939 110.486 268.754 108.11 252.57C107.406 247.996 106.79 243.422 106.261 238.76C105.997 237.088 103.357 237 103.533 238.76Z" fill="#3A3A3A"/>
<path d="M134.249 293.648C138.122 293.999 142.346 295.055 144.899 298.222C147.275 301.3 146.835 305.171 144.195 307.897C141.378 310.888 137.154 311.68 133.281 312.119C129.321 312.471 124.92 312.735 121.223 310.8C117.967 309.129 115.503 305.259 116.999 301.564C117.615 299.981 115.063 299.277 114.446 300.86C112.862 304.907 114.887 309.393 118.143 311.944C122.015 315.022 127.384 315.198 132.137 314.846C136.89 314.494 141.994 313.615 145.603 310.272C148.947 307.194 150.179 302.444 148.067 298.31C145.427 293.208 139.618 291.449 134.249 291.009C132.489 290.833 132.489 293.472 134.249 293.648Z" fill="#3A3A3A"/>
<path d="M141.994 214.131C146.747 213.427 151.06 210.876 154.316 207.358C157.924 203.487 160.125 198.649 161.885 193.724C163.733 188.27 164.965 182.377 165.493 176.571C166.022 170.59 165.141 164.52 166.638 158.715C167.166 156.604 168.046 154.053 169.982 152.734C171.918 151.414 173.591 152.822 174.383 154.669C175.351 156.956 175.527 159.77 175.703 162.233C175.967 165.224 176.055 168.303 176.055 171.293C175.879 182.992 173.415 194.955 168.31 205.422C163.117 216.066 154.14 225.302 141.994 227.325C140.322 227.589 141.026 230.14 142.698 229.876C153.788 228.116 162.853 220.2 168.486 210.7C174.735 200.233 177.727 187.83 178.607 175.779C179.047 169.534 178.871 163.201 177.903 157.044C177.551 154.933 176.847 152.47 175.175 150.974C173.503 149.391 171.038 149.127 169.014 150.271C164.261 152.997 163.557 160.122 163.293 164.96C163.117 168.127 163.293 171.381 163.117 174.548C162.941 177.627 162.501 180.705 161.885 183.784C159.685 195.043 154.668 209.732 141.466 211.668C139.618 211.844 140.322 214.394 141.994 214.131Z" fill="#3A3A3A"/>
<path d="M132.929 152.558C136.45 170.59 137.946 188.974 139.002 207.27C139.53 216.418 139.97 225.478 140.498 234.626C141.026 243.686 141.378 252.658 140.938 261.718C140.41 271.921 139.09 282.125 136.714 292.152C136.362 293.824 138.914 294.527 139.266 292.856C143.49 275 144.459 256.528 143.314 238.32C142.17 219.76 141.554 201.2 139.794 182.728C138.826 172.349 137.418 162.058 135.481 151.854C135.217 150.271 132.665 150.974 132.929 152.558Z" fill="#3A3A3A"/>
<path d="M104.413 37.0645C104.765 37.2404 106.085 37.7682 106.085 38.3839C106.085 38.6478 105.205 39.2635 104.853 39.4394C103.181 40.407 101.333 41.1107 99.4845 41.7264C95.7 43.0458 91.7394 44.0134 87.8669 44.8051C83.7303 45.5967 79.5057 46.1245 75.2812 46.5643C71.2326 46.9161 67.008 47.4439 62.8715 47.268C59.791 47.18 55.4784 45.8606 55.0384 42.1662C54.6863 39.6153 56.7986 37.8561 58.9989 36.9765C61.6393 35.921 64.6317 35.3932 67.3601 34.8654C71.5847 34.1617 75.8092 33.9858 80.0338 33.9858C88.747 33.8979 97.4602 34.8654 105.821 37.6802C107.406 38.208 108.11 35.6571 106.525 35.1293C98.0763 32.3146 89.1871 31.347 80.2979 31.347C75.4572 31.347 70.6165 31.6109 65.8639 32.4905C62.7834 33.1062 59.527 33.7219 56.7106 35.1293C53.9822 36.5367 52.046 39.2635 52.486 42.4301C53.0141 46.3884 56.7106 48.9392 60.4071 49.555C62.6954 49.9068 64.9837 49.8189 67.2721 49.6429C69.6484 49.467 72.0247 49.3791 74.401 49.1152C79.2417 48.6754 83.9944 48.1476 88.747 47.18C93.7637 46.2124 98.7804 44.893 103.445 42.9579C105.205 42.1662 107.934 41.2866 108.638 39.2635C109.342 37.1524 107.494 35.6571 105.821 34.7775C104.237 33.9858 102.829 36.2728 104.413 37.0645Z" fill="#3A3A3A"/>
<path d="M61.1112 34.7775C60.6711 25.5416 66.1278 16.3056 74.753 12.6992C79.3297 10.7641 84.6104 10.6761 89.4511 11.7316C94.4678 12.7872 99.3964 15.338 102.125 19.8241C105.029 24.486 105.293 30.2915 104.413 35.5691C104.149 37.2404 106.701 37.9441 106.965 36.2728C107.846 30.9952 107.67 25.3656 105.469 20.4398C103.093 15.1621 98.1643 11.6437 92.7075 9.88444C87.4268 8.21318 81.2659 7.86133 75.8972 9.5326C70.9685 11.1159 66.7439 14.2825 63.6635 18.4167C60.143 23.0786 58.2948 29.06 58.5588 34.8655C58.5588 36.5367 61.1992 36.5367 61.1112 34.7775Z" fill="#3A3A3A"/>
<path d="M85.5786 10.4122C87.955 7.42149 91.2994 3.90304 95.26 3.37527C96.8442 3.19934 99.4846 3.55119 99.6606 5.5743C99.8366 6.89372 98.0764 7.68537 96.9322 8.21314C95.348 8.91683 93.6758 9.4446 92.0915 9.8844C90.4193 10.3242 91.1234 12.8751 92.7956 12.4353C94.6439 11.9075 96.4921 11.3797 98.2524 10.5001C100.013 9.70848 101.861 8.38906 102.213 6.36595C102.653 3.55119 100.189 1.2642 97.5483 0.824389C94.9079 0.384583 92.3556 1.17623 90.0672 2.58362C87.6029 4.07896 85.4906 6.19003 83.6424 8.47702C83.2023 9.00479 83.1143 9.79644 83.6424 10.3242C84.1704 10.852 85.1386 10.9399 85.5786 10.4122Z" fill="#3A3A3A"/>
<path d="M85.6667 7.94933C83.7304 6.27806 81.7941 4.78272 79.5938 3.4633C77.4815 2.23184 74.8412 0.912425 72.3768 1.00039C70.0885 1.08835 68.1522 2.75961 68.3283 5.13457C68.4163 7.06972 69.8245 8.4771 71.4087 9.44467C73.0809 10.5002 75.1052 11.2039 77.0415 11.6437C78.7137 11.9955 79.4178 9.44467 77.7456 9.09283C75.9853 8.74098 74.3131 8.12525 72.8169 7.24564C71.8488 6.62991 70.1765 5.39845 71.2327 4.16699C71.8488 3.37534 73.1689 3.72719 73.961 3.90311C75.1932 4.25495 76.3374 4.69476 77.4815 5.31049C79.7698 6.54195 81.8821 8.12525 83.8184 9.79652C85.0506 10.94 86.9868 9.09283 85.6667 7.94933Z" fill="#3A3A3A"/>
<path d="M86.6347 9.7965C85.4905 17.3612 85.4025 24.9258 85.9306 32.4905C86.0186 34.1618 88.659 34.1618 88.571 32.4905C88.0429 25.1897 88.0429 17.713 89.1871 10.5002C89.4511 8.82892 86.8987 8.12523 86.6347 9.7965Z" fill="#3A3A3A"/>
<path d="M79.1538 9.26863C74.4011 16.0416 74.0491 24.4859 74.0491 32.4904C74.0491 34.1617 76.6894 34.1617 76.6894 32.4904C76.6894 24.9257 76.9535 17.0092 81.4421 10.588C82.4102 9.26863 80.1219 7.94921 79.1538 9.26863Z" fill="#3A3A3A"/>
<path d="M80.6499 129.16C78.0976 128.896 75.4572 129.16 73.0809 130.216C70.9686 131.183 68.7683 132.854 67.8881 135.053C67.096 137.077 67.7121 139.627 69.8244 140.595C72.0247 141.651 74.8411 140.419 76.6894 139.1C78.7136 137.604 80.2098 135.581 81.53 133.47C82.0581 132.591 82.6742 131.711 83.6423 131.271C84.5224 130.919 85.5786 130.919 86.4587 131.095C88.395 131.359 90.3312 132.239 91.9155 133.294C92.8836 133.91 93.7637 134.79 94.3798 135.757C94.8199 136.461 95.788 138.308 95.0839 139.1C94.3798 139.891 92.7076 139.364 92.0035 139.1C90.5953 138.572 89.3631 137.692 88.307 136.725C85.9306 134.614 83.8183 132.063 81.8821 129.6C80.8259 128.28 78.9777 130.128 80.0338 131.447C81.8821 133.734 83.8183 136.021 85.9306 138.044C87.7789 139.803 90.0672 141.475 92.7076 142.002C94.9079 142.442 97.3722 141.739 97.9883 139.276C98.5164 136.901 96.9321 134.174 95.3479 132.503C92.6196 129.688 87.5149 127.489 83.5543 128.456C81.002 129.072 79.9458 131.271 78.6256 133.206C77.3054 135.229 75.4572 137.165 73.1689 137.956C71.9367 138.396 70.4405 138.396 70.3525 136.725C70.2645 135.405 71.4966 134.262 72.4648 133.47C74.9291 131.623 77.9215 131.183 80.9139 131.535C82.3221 131.975 82.3221 129.336 80.6499 129.16Z" fill="#3A3A3A"/>
<path d="M78.2737 156.692C78.6257 148.423 80.2979 140.331 83.1143 132.59C83.7304 131.007 81.1781 130.303 80.562 131.887C77.6576 139.891 75.9853 148.248 75.6333 156.692C75.6333 158.363 78.2737 158.363 78.2737 156.692Z" fill="#3A3A3A"/>
<path d="M93.4118 159.507C89.0992 150.271 85.4907 140.771 82.7623 130.919C82.3223 129.248 79.7699 129.952 80.21 131.623C83.0264 141.65 86.6348 151.414 91.1235 160.826C91.8276 162.409 94.1159 161.09 93.4118 159.507Z" fill="#3A3A3A"/>
<path d="M80.298 128.808C73.433 127.137 66.4801 125.817 59.4391 125.114C56.0946 124.762 52.6622 124.498 49.2297 124.322C47.5574 124.234 45.7972 124.234 44.125 124.146C42.5408 124.146 40.8685 124.058 39.4603 124.938C38.2282 125.642 37.6121 126.961 36.908 128.192C36.1159 129.688 35.4118 131.271 34.7077 132.854C33.4755 135.757 32.3313 138.836 31.8033 142.002C31.2752 145.345 35.7638 146.137 38.2282 146.4C41.4846 146.84 44.8291 146.928 48.0855 146.664C55.7426 146.136 62.6955 142.882 69.4725 139.715C70.9687 139.012 69.6485 136.725 68.1523 137.428C62.7835 139.979 57.3268 142.53 51.43 143.586C48.4376 144.113 45.4452 144.201 42.4527 144.025C41.0446 143.937 39.6364 143.937 38.2282 143.674C37.6121 143.586 36.996 143.498 36.3799 143.322C36.0279 143.234 34.5317 142.882 34.3556 142.442C34.2676 142.09 34.7077 141.035 34.7957 140.683C34.9717 139.979 35.1477 139.276 35.4118 138.572C35.8518 137.076 36.3799 135.669 36.908 134.262C37.4361 133.03 37.9641 131.799 38.5802 130.567C39.1083 129.512 39.7244 127.753 40.8685 127.137C41.9247 126.521 43.6849 126.785 44.8291 126.785C46.4133 126.785 47.9095 126.873 49.4937 126.961C52.5741 127.137 55.7426 127.313 58.823 127.665C65.776 128.368 72.6409 129.688 79.4178 131.359C81.2661 131.711 81.9702 129.16 80.298 128.808Z" fill="#3A3A3A"/>
<path d="M95.964 141.914C102.477 144.377 109.342 141.562 114.887 138.132C117.879 136.285 120.783 134.262 123.952 132.59C127.032 130.919 130.201 129.512 133.457 128.192C137.154 126.697 140.938 125.378 144.723 124.058C146.307 123.53 145.603 120.98 144.019 121.507C137.594 123.706 131.169 125.993 125.096 128.984C122.016 130.479 119.111 132.239 116.295 134.086C113.478 135.933 110.574 137.78 107.406 139.012C103.973 140.243 100.189 140.683 96.6681 139.363C95.0839 138.748 94.3798 141.299 95.964 141.914Z" fill="#3A3A3A"/>
<path d="M51.87 124.674C46.5012 128.544 41.0445 132.415 35.6758 136.285C34.8836 136.813 34.0915 137.428 33.3874 137.956C31.9792 138.924 33.2994 141.211 34.7076 140.243C40.0764 136.373 45.5331 132.502 50.9019 128.632C51.694 128.104 52.4861 127.489 53.1902 126.961C54.5984 125.905 53.2782 123.618 51.87 124.674Z" fill="#3A3A3A"/>
<path d="M62.5192 125.905C55.7423 131.271 48.9653 136.637 42.1884 142.002C41.2203 142.794 40.2521 143.498 39.284 144.289C37.9638 145.345 39.8121 147.192 41.1323 146.137C47.9092 140.771 54.6861 135.405 61.4631 130.04C62.4312 129.248 63.3993 128.544 64.3675 127.753C65.6877 126.785 63.8394 124.938 62.5192 125.905Z" fill="#3A3A3A"/>
<path d="M71.8488 127.489C66.304 132.151 60.7592 136.813 55.2145 141.475C54.4224 142.09 53.6303 142.794 52.9262 143.41C53.4542 143.322 53.9823 143.234 54.5104 143.234C49.0536 140.595 43.5969 137.956 38.2281 135.405C37.436 135.053 36.6439 134.614 35.8518 134.262C34.3556 133.558 32.9474 135.845 34.5316 136.549C39.9884 139.188 45.4451 141.826 50.8139 144.377C51.606 144.729 52.3981 145.169 53.1902 145.521C53.8063 145.785 54.3344 145.697 54.7744 145.345C60.3192 140.683 65.864 136.021 71.4087 131.359C72.2008 130.743 72.9929 130.04 73.697 129.424C75.0172 128.28 73.169 126.433 71.8488 127.489Z" fill="#3A3A3A"/>
<path d="M70.8807 132.678C65.3359 130.303 59.7032 128.016 54.1584 125.642C53.3663 125.29 52.5742 124.938 51.7821 124.674C51.078 124.41 50.3739 124.498 49.9338 125.114C49.5818 125.642 49.7578 126.609 50.3739 126.961C55.9186 129.336 61.5514 131.623 67.0962 133.998C67.8883 134.35 68.6804 134.702 69.4725 134.965C70.1766 135.229 70.8807 135.141 71.3208 134.526C71.6728 133.998 71.4968 132.942 70.8807 132.678Z" fill="#3A3A3A"/>
<path d="M65.4238 139.363C57.7667 135.757 50.1097 132.151 42.4526 128.544C41.3085 128.016 40.2523 127.489 39.1082 126.961C37.612 126.257 36.2038 128.544 37.788 129.248C45.445 132.854 53.1021 136.461 60.7591 140.067C61.9033 140.595 62.9594 141.123 64.1036 141.65C65.6878 142.354 67.008 140.067 65.4238 139.363Z" fill="#3A3A3A"/>
<path d="M94.4677 134.35C98.3402 131.711 102.213 129.072 106.085 126.433C106.613 126.081 107.141 125.73 107.757 125.29C108.374 124.85 108.638 124.146 108.198 123.443C107.845 122.827 106.965 122.563 106.349 123.003C102.477 125.642 98.6042 128.28 94.7317 130.919C94.2036 131.271 93.6755 131.623 93.0595 132.063C92.4434 132.503 92.1793 133.206 92.6194 133.91C92.9715 134.438 93.8516 134.702 94.4677 134.35Z" fill="#3A3A3A"/>
<path d="M100.101 142.53C106.966 137.252 113.743 132.063 120.608 126.785C121.576 126.081 122.544 125.29 123.512 124.586C124.04 124.146 124.392 123.443 123.952 122.739C123.6 122.211 122.72 121.859 122.104 122.299C115.239 127.577 108.462 132.766 101.597 138.044C100.629 138.748 99.6607 139.539 98.6926 140.243C98.1645 140.683 97.8125 141.387 98.2526 142.09C98.6046 142.618 99.5727 142.97 100.101 142.53Z" fill="#3A3A3A"/>
<path d="M87.3387 130.479C101.245 123.618 117.439 125.114 132.489 124.41C136.449 124.234 140.41 124.058 144.371 123.97C146.043 123.97 146.043 121.331 144.371 121.331C137.33 121.419 130.201 122.035 123.16 122.123C115.063 122.211 106.965 122.299 98.9563 123.882C94.4677 124.762 90.1551 126.169 86.0185 128.192C84.5223 128.984 85.8425 131.271 87.3387 130.479Z" fill="#3A3A3A"/>
<path d="M106.701 125.378C111.63 127.401 116.471 129.424 121.4 131.447C122.104 131.711 122.808 132.063 123.512 132.327C124.128 132.591 124.92 132.063 125.096 131.447C125.272 130.655 124.832 130.128 124.216 129.864C119.287 127.841 114.447 125.817 109.518 123.794C108.814 123.53 108.11 123.179 107.406 122.915C106.789 122.651 105.997 123.179 105.821 123.794C105.557 124.498 105.997 125.114 106.701 125.378Z" fill="#3A3A3A"/>
<path d="M92.5317 128.016C98.5165 131.095 104.413 134.174 110.398 137.164C111.19 137.604 112.07 138.044 112.863 138.484C114.359 139.275 115.679 136.988 114.183 136.197C108.198 133.118 102.301 130.04 96.3162 127.049C95.5241 126.609 94.644 126.169 93.8519 125.729C92.3557 124.938 91.0355 127.225 92.5317 128.016Z" fill="#3A3A3A"/>
<path d="M50.2054 79.2058C51.5244 79.2058 52.5936 77.3728 52.5936 75.1117C52.5936 72.8506 51.5244 71.0176 50.2054 71.0176C48.8864 71.0176 47.8171 72.8506 47.8171 75.1117C47.8171 77.3728 48.8864 79.2058 50.2054 79.2058Z" fill="black"/>
<path d="M112.299 79.2058C113.618 79.2058 114.688 77.3727 114.688 75.1116C114.688 72.8505 113.618 71.0175 112.299 71.0175C110.98 71.0175 109.911 72.8505 109.911 75.1116C109.911 77.3727 110.98 79.2058 112.299 79.2058Z" fill="black"/>
<path d="M81.442 79.1979C83.1433 79.1979 84.5224 78.4496 84.5224 77.5266C84.5224 76.6036 83.1433 75.8553 81.442 75.8553C79.7407 75.8553 78.3616 76.6036 78.3616 77.5266C78.3616 78.4496 79.7407 79.1979 81.442 79.1979Z" fill="black"/>
<path d="M223.846 40.9348C222.702 49.2031 216.629 56.0641 208.444 57.9993C200.259 59.8464 191.545 56.1521 187.145 49.0272C182.744 41.9903 183.272 32.6664 188.465 26.1573C193.746 19.5602 202.723 17.0093 210.644 19.7361C219.621 22.8147 224.99 31.9627 223.846 41.2866C223.67 42.9579 226.31 42.9579 226.486 41.2866C227.63 32.0507 222.702 22.7268 214.428 18.4167C205.979 14.1066 195.506 15.6019 188.553 22.111C181.688 28.5322 179.664 38.9117 183.36 47.5319C187.057 56.1521 196.21 61.6936 205.539 60.9899C216.101 60.2862 224.902 52.1058 226.398 41.5505C226.486 40.8468 226.222 40.1431 225.518 39.9672C224.814 39.8792 223.934 40.2311 223.846 40.9348Z" fill="#4F4F4F"/>
<path d="M229.918 41.7264C228.422 52.4577 220.589 61.4297 209.94 63.8927C199.29 66.3556 187.849 61.6936 182.04 52.3697C176.231 43.1338 176.847 30.8192 183.712 22.287C190.577 13.7547 202.283 10.3242 212.668 13.8427C222.79 17.3611 229.919 27.1248 230.183 37.8561C230.183 39.2635 230.095 40.5829 229.918 41.9903C229.742 43.6616 232.383 43.6616 232.559 41.9903C234.055 30.2035 227.806 18.4167 217.245 12.9631C206.507 7.50946 193.305 9.35665 184.504 17.537C175.703 25.7175 173.063 38.9116 177.815 49.9068C182.568 60.902 194.098 67.8509 206.067 67.0593C217.861 66.2676 228.158 57.9992 231.591 46.7402C232.031 45.3328 232.295 43.8375 232.559 42.4301C232.647 41.7264 232.383 41.0227 231.679 40.8468C230.887 40.6709 230.007 41.0227 229.918 41.7264Z" fill="#4F4F4F"/>
<path d="M199.906 100.309C199.642 102.244 199.378 104.267 199.114 106.202C199.026 107.17 199.026 107.785 198.322 108.489C197.178 109.721 195.154 109.808 193.658 109.281C191.897 108.665 191.105 107.258 191.369 105.41C191.545 104.179 191.721 102.947 191.809 101.716C193.042 92.2162 194.274 82.7164 195.506 73.2166C195.858 70.4018 196.21 67.675 196.562 64.8603C196.65 64.1566 195.858 63.5408 195.242 63.5408C194.45 63.5408 194.01 64.1566 193.922 64.8603C192.866 72.6888 191.897 80.5174 190.841 88.258C190.225 93.0079 189.609 97.6698 188.993 102.42C188.817 103.475 188.729 104.619 188.553 105.674C188.201 108.489 190.225 110.864 192.866 111.744C196.562 112.975 200.963 111.128 201.491 107.082C201.755 104.795 202.107 102.508 202.371 100.221C202.459 99.517 201.667 98.9013 201.051 98.9013C200.435 98.9892 199.995 99.605 199.906 100.309Z" fill="#4F4F4F"/>
<path d="M204.307 66.3556C203.867 69.6981 203.427 73.1286 202.987 76.4711C202.899 76.9109 202.899 77.4387 202.811 77.8785C202.723 78.5822 203.515 79.1979 204.131 79.1979C204.923 79.1979 205.363 78.5822 205.451 77.8785C205.891 74.536 206.331 71.1055 206.771 67.7629C206.859 67.3231 206.859 66.7954 206.947 66.3556C207.035 65.6519 206.243 65.0361 205.627 65.0361C204.835 65.0361 204.395 65.6519 204.307 66.3556Z" fill="#4F4F4F"/>
<path d="M205.627 76.2952C201.05 76.9989 197.09 80.1655 195.154 84.2997C194.01 86.6746 193.481 89.2255 193.393 91.8643C193.393 94.2393 193.569 96.9661 195.154 98.9012C198.058 102.508 203.427 102.332 206.859 99.6049C210.996 96.4383 212.14 90.9847 212.492 86.0589C212.844 80.5173 211.524 74.2721 206.331 71.2814C204.835 70.4018 203.515 72.6888 205.011 73.5684C208.62 75.6795 209.94 79.9016 209.94 83.8599C209.94 87.9061 209.412 92.744 206.771 96.0865C204.659 98.7253 200.698 100.309 197.794 97.8457C196.298 96.6143 196.122 94.4152 196.122 92.656C196.034 90.5449 196.386 88.4339 197.178 86.4107C198.762 82.4525 202.195 79.5498 206.419 78.934C208.003 78.5822 207.299 76.0313 205.627 76.2952Z" fill="#3A3A3A"/>
<path d="M204.307 66.3556C204.043 68.7306 203.691 71.0176 203.427 73.3925C203.427 73.7444 203.339 74.0962 203.339 74.3601C203.251 75.0638 204.043 75.6795 204.659 75.6795C205.451 75.6795 205.891 75.0638 205.979 74.3601C206.243 71.9851 206.595 69.6981 206.859 67.3232C206.859 66.9713 206.947 66.6195 206.947 66.3556C207.035 65.6519 206.243 65.0362 205.627 65.0362C204.835 65.1242 204.395 65.6519 204.307 66.3556Z" fill="#4F4F4F"/>
</g>
<defs>
<clipPath id="clip0_812_2566">
<rect width="232" height="314.286" fill="white" transform="translate(0.734863 0.73645)"/>
</clipPath>
</defs>
</svg>
