<svg width="257" height="279" viewBox="0 0 257 279" fill="none" xmlns="http://www.w3.org/2000/svg">
<path d="M223.179 183.928L223.049 183.667C223.701 183.406 224.223 183.145 224.875 182.884C218.876 171.278 211.573 161.105 202.574 152.89C204.4 151.716 205.965 150.542 207.53 149.108C212.746 144.152 215.746 137.631 217.832 130.98C221.745 118.982 223.049 103.072 224.353 90.5524C229.439 73.7292 236.742 57.8189 241.176 40.7349C224.614 42.4302 208.182 45.1689 191.88 48.9509L145.584 28.9978C138.542 19.0864 135.281 11.2617 128.891 2.13281C120.675 15.5653 106.591 43.8648 106.591 43.8648C93.9407 57.0364 83.1165 72.6859 78.552 89.9003C75.4221 101.768 76.0742 114.809 81.2907 125.764L83.6381 130.198C85.0726 132.415 86.6376 134.501 88.4634 136.588L92.8974 140.761C96.6793 143.761 100.983 146.238 105.547 148.195C97.8531 153.542 91.8541 160.323 87.4201 167.104C86.768 168.148 87.5505 169.452 88.8546 169.452L87.9417 169.843C85.5943 173.886 80.2474 175.451 75.683 174.799C71.1185 174.147 65.6412 170.104 61.8592 167.235C67.2062 163.322 70.5969 156.671 71.2489 149.76C71.3793 147.934 71.3793 145.978 70.7273 144.152C69.8144 141.804 67.9886 139.979 65.902 138.675C58.8598 133.719 49.4701 132.676 41.6453 136.066C33.8206 139.457 26.6479 147.021 26.3871 156.019C25.8654 175.581 36.0376 196.708 51.8175 207.271C65.6412 216.531 83.6381 218.748 96.6793 207.141C95.8969 214.966 95.5056 222.921 95.2448 230.746V241.179H154.191H161.103C161.494 242.483 162.016 243.526 162.668 244.439C166.32 249.786 170.493 249.786 176.753 249.916C183.143 250.177 189.272 248.091 195.141 245.613C208.834 239.744 221.223 230.746 231.135 219.4C232.699 217.704 234.134 215.879 234.916 213.662C236.742 208.706 234.525 203.098 232.178 198.403C229.439 193.448 226.44 188.492 223.179 183.928Z" fill="white"/>
<path d="M117.937 250.046C134.499 252.915 145.193 257.61 145.193 262.826C145.193 271.564 115.589 276.65 78.1608 276.65C40.7324 276.65 9.82471 271.564 9.82471 262.826C9.82471 256.827 24.0397 251.611 45.036 248.872" fill="white"/>
<path d="M192.011 50.905C196.054 43.9931 198.401 35.1251 194.228 27.4308C190.707 20.9101 183.795 16.4761 176.622 14.3895C163.32 10.6076 148.975 19.3452 145.193 32.3864C152.626 33.0385 160.451 34.8643 168.537 37.9942C177.535 41.3849 185.36 45.8189 191.75 50.905" fill="#93AF8E"/>
<path d="M181.187 14.7801C179.1 10.8677 176.492 6.8249 172.84 4.21665C172.058 3.695 171.275 3.17335 170.493 3.04294C168.798 2.6517 167.363 3.82542 166.972 5.52078C166.45 8.38985 170.623 12.0414 172.971 13.4759H173.232C174.405 13.6063 175.579 13.8672 176.622 14.128C180.795 15.3017 184.838 17.3883 188.229 20.127C190.837 20.3878 197.227 21.0398 198.923 18.4316C199.966 16.7362 199.053 14.3888 197.488 13.2151C192.924 9.82438 185.882 12.4326 181.448 15.0409L181.187 14.7801Z" fill="#93AF8E"/>
<path d="M142.063 32.126C139.716 32.7781 137.629 33.9518 136.586 36.0384C135.282 38.7771 136.325 42.0374 138.542 44.2544C140.628 46.341 143.628 47.5147 146.367 48.4276C155.756 51.4271 165.276 54.1657 175.188 55.3394C180.013 55.8611 185.36 56.3827 190.185 55.7307C193.576 55.3394 193.967 53.3833 191.489 50.775C185.099 45.6889 177.405 41.3853 168.537 37.9946C159.277 34.4735 150.409 32.5173 142.063 32.126Z" fill="#93AF8E"/>
<path d="M173.623 39.9518C175.97 31.8663 178.709 23.7807 183.925 17.2601L183.664 17.5209C181.187 16.0864 178.448 14.9127 175.709 14.1302H175.188C171.406 16.608 168.537 20.2596 166.32 24.1719C164.233 27.6931 162.798 31.6054 161.364 35.3874L161.755 35.7786C163.711 36.4307 165.668 37.0828 167.493 37.7348C169.71 38.5173 171.927 39.4302 173.883 40.4735L173.623 39.9518Z" fill="#EDEDD9"/>
<path d="M121.719 116.241C140.628 119.762 154.582 112.589 153.8 102.547C153.018 91.4622 144.28 82.3334 128.5 79.3339L126.283 79.0731C110.503 76.0736 100.461 79.3339 97.4618 90.0277C94.2015 101.765 102.939 112.85 121.849 116.371" fill="#FFF3E5"/>
<path d="M205.574 57.5597L231.656 50.5174C232.569 50.2566 233.352 51.1695 232.96 51.952L224.353 76.9912C224.092 77.7736 223.049 78.0344 222.527 77.3824L205.052 59.5159C204.4 58.8638 204.661 57.8205 205.574 57.5597Z" fill="#FFC08D"/>
<path d="M121.458 91.4632C120.284 90.8112 119.241 89.8983 118.719 89.1158C118.328 88.5942 118.067 88.0725 118.197 87.4204C118.328 86.7684 118.849 86.3771 119.371 86.1163C119.893 85.8555 120.545 85.9859 121.197 85.9859C122.24 85.9859 123.283 86.1163 124.196 86.5076C125.109 86.8988 126.022 87.6813 126.283 88.7246C126.544 89.7679 126.153 91.072 125.109 91.5936C124.066 92.3761 122.631 92.1153 121.458 91.4632Z" fill="#3A3A3A"/>
<path d="M98.7659 269.089C109.426 269.089 118.067 260.448 118.067 249.788C118.067 239.128 109.426 230.487 98.7659 230.487C88.1062 230.487 79.4648 239.128 79.4648 249.788C79.4648 260.448 88.1062 269.089 98.7659 269.089Z" fill="#FFC08D"/>
<path d="M81.5515 258.263C78.4216 264.653 71.901 268.957 64.337 268.957C53.7736 268.957 45.036 260.349 45.036 249.656C45.036 238.962 53.6432 230.354 64.337 230.354C71.7705 230.354 78.2912 234.658 81.4211 240.787" fill="#FFC08D"/>
<path d="M171.823 210.089C185.228 208.787 195.672 203.372 195.149 197.996C194.627 192.619 183.336 189.317 169.931 190.619C156.525 191.922 146.082 197.337 146.604 202.713C147.127 208.09 158.418 211.392 171.823 210.089Z" fill="#EAF1F4"/>
<path d="M146.497 202.186L156.147 251.221C156.93 252.917 166.841 254.482 177.274 253.438C179.1 253.308 195.01 250.309 195.01 247.44C195.01 247.44 195.01 246.657 195.01 245.483C189.142 247.961 183.012 249.917 176.622 249.787C170.232 249.526 166.059 249.526 162.538 244.31C159.017 239.093 159.277 226.313 163.842 221.748C168.928 216.793 174.014 219.531 181.056 218.749C186.012 218.227 190.707 216.532 195.01 214.184C195.01 205.055 195.01 197.492 195.01 197.492V198.013C195.532 203.36 185.099 208.837 171.667 210.142C158.234 211.446 147.019 208.185 146.497 202.708" fill="#EAF1F4"/>
<path d="M162.538 244.179C159.016 239.093 159.277 227.225 163.32 222.27C158.886 221.487 154.452 220.835 150.018 220.053L156.147 251.091C156.93 252.786 166.841 254.351 177.274 253.308C179.1 253.178 195.01 250.178 195.01 247.309C195.01 247.309 195.01 246.657 195.01 245.353C189.142 247.831 183.012 249.787 176.622 249.656C170.362 249.526 166.189 249.526 162.538 244.179Z" fill="white"/>
<path d="M131.891 169.061C131.108 168.409 130.978 168.409 130.587 168.018C126.674 164.106 122.11 159.411 119.893 154.064C119.762 153.542 121.197 153.281 120.675 153.281C120.023 153.151 119.502 154.977 119.241 155.498C116.893 163.453 100.722 169.322 88.8547 168.67C88.2026 168.67 87.2897 168.409 87.1593 167.757C87.0289 167.366 87.2897 166.975 87.5506 166.583C91.2021 160.976 95.6361 155.89 100.722 151.456C101.896 150.412 103.2 149.369 104.635 148.978C107.112 148.326 109.721 149.369 112.198 150.412C124.979 155.498 138.672 157.324 152.366 158.759C169.319 160.324 187.316 160.976 202.444 153.02C211.703 161.367 219.397 171.539 224.614 182.885C212.225 187.319 198.792 187.058 185.751 185.363C173.753 183.798 161.886 180.929 150.54 177.016C144.28 174.669 137.759 172.322 131.891 169.061Z" fill="#93AF8E"/>
<path d="M26.5176 162.02L20.5187 164.498C19.0841 165.15 18.4321 166.715 18.9537 168.15C19.6058 169.584 21.1707 170.236 22.6052 169.715L27.3001 167.758C26.9089 165.802 26.648 163.716 26.5176 161.759" fill="white"/>
<path d="M70.597 143.759L120.154 123.153C121.588 122.501 123.284 123.284 123.805 124.718C124.457 126.153 123.675 127.848 122.24 128.37L71.1187 149.627C71.2491 147.801 71.2491 145.845 70.597 144.019" fill="white"/>
<path d="M27.1697 151.062L17.3888 155.626C16.0846 156.278 15.563 157.713 16.215 159.017C16.8671 160.321 18.3016 160.842 19.6058 160.19L26.5176 156.93C26.5176 156.539 26.5176 156.148 26.5176 155.756C26.3872 154.061 26.648 152.496 27.1697 151.062Z" fill="white"/>
<path d="M65.9023 138.414L101.244 121.721C100.722 120.025 100.462 118.33 100.462 116.635L60.2946 135.544C62.2507 136.197 64.0765 137.24 65.9023 138.414Z" fill="white"/>
<path d="M113.372 132.154C115.72 132.545 118.328 132.545 120.806 131.763C129.413 129.154 133.977 119.895 131.108 111.549C130.847 110.636 130.326 109.723 129.935 108.941C129.282 107.897 127.848 107.897 127.196 108.941C126.022 110.766 124.196 112.201 121.849 112.723C118.458 113.375 114.937 111.549 113.372 108.419C112.198 105.941 112.329 103.333 113.503 101.246C112.72 101.377 111.807 101.637 111.025 101.898C102.678 104.767 98.2444 114.157 101.505 122.503C102.548 125.112 104.243 127.329 106.2 128.894L120.154 123.155C121.588 122.503 123.284 123.286 123.805 124.72C124.457 126.155 123.675 127.85 122.24 128.372L113.111 132.154" fill="#FFC08D"/>
<path d="M191.75 50.3853C194.097 52.9935 193.837 54.8193 190.446 55.341C185.621 55.993 180.274 55.4714 175.448 54.9497C165.667 53.776 156.017 51.0374 146.627 48.0379C143.758 47.125 140.889 46.0817 138.802 43.8647C136.716 41.7781 135.542 38.3874 136.846 35.6487C139.324 30.5626 145.975 31.8667 150.54 32.5188C155.887 33.1709 161.103 34.8662 166.189 36.692C167.102 36.9528 167.884 37.3441 168.797 37.6049C178.187 41.126 186.142 45.6905 192.663 51.0374" stroke="#3A3A3A" stroke-width="3" stroke-miterlimit="10" stroke-linecap="round" stroke-linejoin="round"/>
<path d="M145.584 31.6052C149.627 18.8248 163.842 10.348 176.883 14.13C184.056 16.2166 190.967 20.781 194.489 27.1712C198.662 34.8656 196.314 43.7336 192.271 50.6454" stroke="#3A3A3A" stroke-width="3" stroke-miterlimit="10" stroke-linecap="round" stroke-linejoin="round"/>
<path d="M181.056 15.1738C185.49 12.5655 192.793 9.43563 197.618 13.0872C199.183 14.2609 200.096 16.6083 199.053 18.3037C197.358 20.9119 191.098 20.2599 188.359 19.999" stroke="#3A3A3A" stroke-width="3" stroke-miterlimit="10" stroke-linecap="round" stroke-linejoin="round"/>
<path d="M181.447 14.6539C179.361 10.7415 176.752 6.69874 173.101 4.09049C172.318 3.56884 171.536 3.04719 170.753 2.91678C169.058 2.52554 167.624 3.69926 167.232 5.39462C166.711 8.26369 170.884 11.9152 173.231 13.3498" stroke="#3A3A3A" stroke-width="3" stroke-miterlimit="10" stroke-linecap="round" stroke-linejoin="round"/>
<path d="M184.186 17.1306C180.143 24.3032 177.144 31.8672 174.797 39.9527" stroke="#3A3A3A" stroke-width="3" stroke-miterlimit="10" stroke-linecap="round" stroke-linejoin="round"/>
<path d="M176.492 14.0027C172.71 16.4805 169.841 20.1321 167.624 24.0444C165.537 27.5656 164.103 31.4779 162.668 35.2599" stroke="#3A3A3A" stroke-width="3" stroke-miterlimit="10" stroke-linecap="round" stroke-linejoin="round"/>
<path d="M99.2877 79.7254C101.635 79.2037 104.113 78.9429 106.591 79.0733" stroke="#3A3A3A" stroke-width="3" stroke-miterlimit="10" stroke-linecap="round" stroke-linejoin="round"/>
<path d="M165.407 88.2046C168.145 88.8567 170.754 90.1608 172.971 91.9866" stroke="#3A3A3A" stroke-width="3" stroke-miterlimit="10" stroke-linecap="round" stroke-linejoin="round"/>
<path d="M100.853 89.901C101.766 91.9876 103.722 93.4221 105.939 94.0742C108.025 94.7263 110.373 94.7263 112.59 94.7263C115.85 94.7263 119.502 94.4654 121.849 92.118C122.371 96.1608 125.892 99.2907 129.804 100.595C133.717 101.899 137.89 101.769 141.933 101.638" stroke="#3A3A3A" stroke-width="3" stroke-miterlimit="10" stroke-linecap="round" stroke-linejoin="round"/>
<path d="M142.454 95.8969C142.063 97.3314 141.933 98.8964 142.063 100.461C142.063 101.244 142.063 101.896 142.193 102.678C142.585 104.895 144.15 106.852 146.236 107.634" stroke="#3A3A3A" stroke-width="3" stroke-miterlimit="10" stroke-linecap="round" stroke-linejoin="round"/>
<path d="M120.414 153.935C116.893 151.979 112.329 150.283 108.547 151.587C107.112 151.979 105.808 152.761 104.895 153.935C103.982 155.108 103.852 156.804 104.765 157.977C105.547 158.89 106.721 159.282 107.895 159.412C111.416 159.803 114.937 158.108 117.937 156.152C118.849 155.5 119.893 154.717 120.936 154.326C125.109 152.631 130.065 157.586 132.152 160.586C133.586 162.803 134.369 165.541 133.847 168.15C133.716 168.932 133.325 169.715 132.804 170.236C131.499 171.28 129.674 170.627 128.37 169.715C126.153 168.15 124.718 165.802 123.675 163.194C122.24 160.064 121.458 157.195 120.414 153.935Z" stroke="#3A3A3A" stroke-width="3" stroke-miterlimit="10" stroke-linecap="round" stroke-linejoin="round"/>
<path d="M110.894 193.971C111.416 180.799 115.98 162.542 120.936 154.195" stroke="#3A3A3A" stroke-width="3" stroke-miterlimit="10" stroke-linecap="round" stroke-linejoin="round"/>
<path d="M123.153 213.533C121.197 200.622 121.458 166.193 120.415 154.195" stroke="#3A3A3A" stroke-width="3" stroke-miterlimit="10" stroke-linecap="round" stroke-linejoin="round"/>
<path d="M82.3339 125.631C77.1174 114.546 76.4654 101.505 79.5953 89.7675C84.1597 72.5531 94.8535 56.9036 107.634 43.732C107.634 43.732 121.718 15.4325 129.934 2C136.325 11.1289 139.715 18.9536 146.758 28.8649" stroke="#3A3A3A" stroke-width="3" stroke-miterlimit="10" stroke-linecap="round" stroke-linejoin="round"/>
<path d="M89.5065 136.459C87.6808 134.503 86.1158 132.416 84.6813 130.069" stroke="#3A3A3A" stroke-width="3" stroke-miterlimit="10" stroke-linecap="round" stroke-linejoin="round"/>
<path d="M192.924 48.8201C209.095 45.0381 225.657 42.2995 242.22 40.6041C237.786 57.5577 230.483 73.5985 225.397 90.4216C224.092 102.941 222.788 118.852 218.876 130.849C216.789 137.501 213.659 144.021 208.573 148.977C198.532 158.627 182.621 160.453 168.146 160.062C153.018 159.671 137.89 157.584 123.284 153.802C112.72 151.063 102.287 147.281 94.0713 140.761" stroke="#3A3A3A" stroke-width="3" stroke-miterlimit="10" stroke-linecap="round" stroke-linejoin="round"/>
<path d="M132.934 169.189C155.104 180.143 179.882 186.012 204.53 186.273C211.833 186.403 219.267 185.881 225.787 182.752C219.788 171.145 212.485 160.842 203.357 152.626" stroke="#3A3A3A" stroke-width="3" stroke-miterlimit="10" stroke-linecap="round" stroke-linejoin="round"/>
<path d="M210.399 200.489C204.4 210.53 193.576 217.442 182.1 218.746C175.188 219.529 169.971 216.79 164.885 221.746C160.321 226.18 159.93 238.96 163.581 244.307C167.233 249.654 171.406 249.654 177.666 249.785C184.056 250.045 190.185 247.959 196.054 245.481C209.747 239.612 222.136 230.614 232.048 219.268C233.613 217.573 235.047 215.747 235.83 213.53C237.655 208.574 235.438 202.966 233.091 198.272C230.483 193.186 227.483 188.36 224.092 183.665" stroke="#3A3A3A" stroke-width="3" stroke-miterlimit="10" stroke-linecap="round" stroke-linejoin="round"/>
<path d="M172.871 210.216C186.277 208.914 196.72 203.499 196.198 198.123C195.675 192.746 184.385 189.444 170.979 190.746C157.574 192.049 147.13 197.464 147.653 202.84C148.175 208.217 159.466 211.519 172.871 210.216Z" stroke="#3A3A3A" stroke-width="3" stroke-miterlimit="10" stroke-linecap="round" stroke-linejoin="round"/>
<path d="M196.054 245.48C196.054 246.784 196.054 247.436 196.054 247.436C196.054 250.305 180.143 253.305 178.318 253.435C167.754 254.478 157.973 252.913 157.191 251.218L147.54 202.183" stroke="#3A3A3A" stroke-width="3" stroke-miterlimit="10" stroke-linecap="round" stroke-linejoin="round"/>
<path d="M196.054 197.491C196.054 197.491 196.054 204.925 196.054 214.184" stroke="#3A3A3A" stroke-width="3" stroke-miterlimit="10" stroke-linecap="round" stroke-linejoin="round"/>
<path d="M106.46 148.062C98.766 153.409 92.767 160.19 88.333 166.972C87.6809 168.015 88.4634 169.319 89.7676 169.319C100.592 168.537 108.156 166.189 118.067 160.06" stroke="#3A3A3A" stroke-width="3" stroke-miterlimit="10" stroke-linecap="round" stroke-linejoin="round"/>
<path d="M88.8548 169.712C86.5074 173.755 81.1605 175.32 76.5961 174.668C72.0316 174.016 66.5543 169.973 62.7723 167.104" stroke="#3A3A3A" stroke-width="3" stroke-miterlimit="10" stroke-linecap="round" stroke-linejoin="round"/>
<path d="M99.8093 188.882C97.8532 202.706 96.6794 216.66 96.2882 230.614" stroke="#3A3A3A" stroke-width="3" stroke-miterlimit="10" stroke-linecap="round" stroke-linejoin="round"/>
<path d="M43.9929 169.582C50.1222 172.19 57.2949 171.017 62.6418 167.104C67.9887 163.192 71.3795 156.541 72.0315 149.629C72.1619 147.803 72.1619 145.847 71.5099 144.021C70.597 141.674 68.7712 139.848 66.6846 138.544C59.6423 133.588 50.2527 132.545 42.4279 135.936C34.6032 139.327 27.4305 146.891 27.1697 155.889C26.648 175.451 36.8202 196.578 52.6001 207.141C66.4238 216.4 84.5511 218.617 97.5924 206.88" stroke="#3A3A3A" stroke-width="3" stroke-miterlimit="10" stroke-linecap="round" stroke-linejoin="round"/>
<path d="M28.3434 167.886L23.6485 169.842C22.214 170.494 20.5186 169.711 19.997 168.277C19.3449 166.842 20.1274 165.147 21.5619 164.625L27.5609 162.147" stroke="#3A3A3A" stroke-width="3" stroke-miterlimit="10" stroke-linecap="round" stroke-linejoin="round"/>
<path d="M71.5099 143.759L121.067 123.154C122.501 122.502 124.196 123.285 124.718 124.719C125.37 126.154 124.588 127.849 123.153 128.371L72.0315 149.628" stroke="#3A3A3A" stroke-width="3" stroke-miterlimit="10" stroke-linecap="round" stroke-linejoin="round"/>
<path d="M27.2998 157.063L20.388 160.324C19.0839 160.976 17.6493 160.324 16.9973 159.15C16.3452 157.846 16.9973 156.411 18.171 155.759L27.9519 151.195" stroke="#3A3A3A" stroke-width="3" stroke-miterlimit="10" stroke-linecap="round" stroke-linejoin="round"/>
<path d="M102.287 121.852L66.8149 138.414" stroke="#3A3A3A" stroke-width="3" stroke-miterlimit="10" stroke-linecap="round" stroke-linejoin="round"/>
<path d="M61.3376 135.545L101.374 116.635" stroke="#3A3A3A" stroke-width="3" stroke-miterlimit="10" stroke-linecap="round" stroke-linejoin="round"/>
<path d="M205.443 240.787H255" stroke="#3A3A3A" stroke-width="3" stroke-miterlimit="10" stroke-linecap="round" stroke-linejoin="round"/>
<path d="M116.893 240.92H155.104" stroke="#3A3A3A" stroke-width="3" stroke-miterlimit="10" stroke-linecap="round" stroke-linejoin="round"/>
<path d="M2 240.92H47.6443" stroke="#3A3A3A" stroke-width="3" stroke-miterlimit="10" stroke-linecap="round" stroke-linejoin="round"/>
<path d="M114.416 132.286C116.763 132.677 119.371 132.677 121.849 131.895C130.456 129.287 135.021 120.027 132.152 111.681C131.891 110.768 131.369 109.855 130.978 109.073C130.326 108.029 128.891 108.029 128.239 109.073C127.066 110.898 125.24 112.333 122.892 112.855C119.502 113.507 115.981 111.681 114.416 108.551C113.242 106.073 113.372 103.465 114.546 101.378C113.764 101.509 112.851 101.77 112.068 102.03C103.722 104.899 99.2878 114.289 102.548 122.636C103.591 125.244 105.287 127.461 107.243 129.026" stroke="#3A3A3A" stroke-width="3" stroke-miterlimit="10" stroke-linecap="round" stroke-linejoin="round"/>
<path d="M118.98 250.178C135.542 253.047 146.236 257.742 146.236 262.958C146.236 271.696 116.633 276.782 79.2043 276.782C41.7759 276.782 10.8682 271.696 10.8682 262.958C10.8682 256.959 25.0831 251.743 46.0795 249.004" stroke="#3A3A3A" stroke-width="3" stroke-miterlimit="10" stroke-linecap="round" stroke-linejoin="round"/>
<path d="M99.8092 269.089C110.469 269.089 119.11 260.447 119.11 249.788C119.11 239.128 110.469 230.487 99.8092 230.487C89.1495 230.487 80.5082 239.128 80.5082 249.788C80.5082 260.447 89.1495 269.089 99.8092 269.089Z" stroke="#3A3A3A" stroke-width="3" stroke-miterlimit="10" stroke-linecap="round" stroke-linejoin="round"/>
<path d="M82.5949 258.395C79.465 264.785 72.9444 269.089 65.3805 269.089C54.8171 269.089 46.0795 260.481 46.0795 249.788C46.0795 239.094 54.6867 230.487 65.3805 230.487C72.814 230.487 79.3346 234.79 82.4645 240.92" stroke="#3A3A3A" stroke-width="3" stroke-miterlimit="10" stroke-linecap="round" stroke-linejoin="round"/>
</svg>
