<svg width="230" height="292" viewBox="0 0 230 292" fill="none" xmlns="http://www.w3.org/2000/svg">
<path d="M67.8462 146.379C50.7804 148.438 6 165.672 6 165.672C18.8863 167.746 34.2455 216.594 34.2455 216.594L34.2443 216.592C29.4041 219.221 27.792 225.726 27.5241 231.181C27.2514 236.715 27.3023 248.652 33.9255 250.446C34.8394 250.694 35.7606 250.798 36.6758 250.775L37.0431 250.888L35.871 286.623C43.9196 289.549 54.4289 289.917 65.6668 288.822L66.0946 289.389H205.825C208.844 275.459 200.105 234.659 200.105 234.659C205.664 233.905 208.369 231.555 208.369 231.555C220.377 220.716 215.105 204.313 215.105 204.313L209.501 183.981V183.98C209.951 183.786 210.394 183.574 210.825 183.334C211.38 183.025 211.945 182.64 212.191 182.054C212.442 181.455 212.31 180.772 212.168 180.139C210.3 171.819 207.246 163.765 203.127 156.299C202.376 154.936 201.541 153.543 200.232 152.704C218.388 115.74 204.562 79.8243 204.562 79.8243L218.327 45.406C218.913 40.5724 215.105 42.4625 215.105 42.4625L173.008 51.4132L108.273 46.6754C108.273 46.6754 93.6225 35.1957 77.2222 25.7807C77.2222 25.7807 73.7081 23.2675 73.3178 30.5573C73.3178 30.5573 72.9675 60.7761 74.53 66.3941C74.53 66.3941 47.0009 108.067 67.9335 146.193L67.8462 146.379C68.5614 146.293 69.2329 146.23 69.845 146.2L67.8462 146.379Z" fill="white"/>
<path d="M36.677 250.939C37.5934 250.916 38.505 250.766 39.4032 250.508C47.2361 248.252 54.018 237.685 53.081 230.191C52.1925 223.092 44.6881 214.378 37.1413 215.748C36.0661 215.943 35.1049 216.289 34.2443 216.756L34.2455 216.758C34.2455 216.758 18.8863 167.909 6 165.836C6 165.836 54.6156 147.125 69.845 146.363C69.845 146.363 98.5463 146.035 116.704 151.384C116.704 151.384 132.888 259.253 139.733 269.212C139.733 269.212 68.0886 298.504 35.8734 286.787L37.0443 251.053" fill="#EDEDED"/>
<path d="M167.362 183.775L174.548 175.401C176.209 173.466 175.373 170.42 172.933 169.682C172.885 169.667 172.836 169.652 172.788 169.639C171.149 169.191 169.4 169.822 168.264 171.085L159.727 180.576V180.573C162.795 180.854 165.439 181.853 167.445 183.854" fill="#EA7434"/>
<path d="M127.466 216.832C128.138 220.572 128.82 224.278 129.502 227.891L145.028 209.799C142.124 208.738 139.682 206.834 138.135 204.153L138.347 204.344L127.047 216.906" fill="#EA7434"/>
<path d="M93.9628 96.8159C94.022 94.5972 92.8104 92.7649 91.2566 92.7234C89.7027 92.6819 88.3951 94.4469 88.3358 96.6656C88.2766 98.8843 89.4882 100.717 91.042 100.758C92.5958 100.8 93.9035 99.0346 93.9628 96.8159Z" fill="#3A3A3A"/>
<path d="M160.139 102.66C160.198 100.441 158.986 98.6088 157.431 98.5673C155.877 98.5257 154.569 100.291 154.509 102.509C154.45 104.728 155.662 106.56 157.217 106.602C158.771 106.643 160.08 104.878 160.139 102.66Z" fill="#3A3A3A"/>
<path d="M186.383 58.5816L208.735 53.2291C209.487 53.0497 210.135 53.7807 209.865 54.5057L201.997 75.5883C201.745 76.2636 200.871 76.4345 200.381 75.9047L185.898 60.1746C185.398 59.6339 185.667 58.7538 186.383 58.5816Z" fill="#FFC08D"/>
<path d="M118.236 132.352C135.941 133.963 148.228 125.189 146.763 115.075C145.13 103.886 136.445 95.4111 121.719 94.071L121.895 94.087C107.082 92.7389 97.0098 99.5066 93.4715 110.225C90.1961 119.996 100.793 130.765 118.411 132.368" fill="#FFF3E5"/>
<path d="M95.2079 52.8303L79.7882 61.7095C79.2682 62.0089 78.6172 61.6549 78.5845 61.056L77.5918 42.3557C77.5578 41.7132 78.2548 41.2937 78.8063 41.6235L95.22 51.4446C95.7461 51.7598 95.74 52.5248 95.2079 52.8303Z" fill="#FFC08D"/>
<path d="M170.297 47.8172C171.943 38.1004 170.736 26.9796 162.625 20.0547C155.763 14.1955 145.867 12.0217 136.827 12.7746C119.995 14.1761 107.424 30.4808 108.665 47.0171L108.664 47.0123C117.436 44.5403 127.171 43.2589 137.742 43.2589C149.547 43.2589 160.311 44.8567 169.856 47.9251" fill="#93AF8E"/>
<path d="M142.194 11.2471C138.135 7.70949 133.34 4.29311 128.095 2.85286C127.026 2.55947 125.906 2.33761 124.813 2.51704C122.673 2.8674 121.481 4.74047 121.905 6.80872C122.627 10.3233 128.986 12.6704 132.294 13.285L132.603 13.2074C133.976 12.8789 135.385 12.6486 136.826 12.5297C142.062 12.0933 147.588 12.6389 152.644 14.3167V14.3204C155.792 13.4523 163.298 11.4629 164.057 7.72767C164.542 5.343 162.511 3.00804 160.166 2.35337C153.418 0.468186 146.628 6.50927 142.623 11.3926L142.194 11.2471Z" fill="#93AF8E"/>
<path d="M105.011 48.0318C102.676 49.763 100.664 52.058 100.389 54.8948C100.036 58.5294 102.791 61.907 106.127 63.3933C109.463 64.8797 113.253 64.8675 116.899 64.6736C128.958 64.0298 141.079 63.043 152.826 60.097C158.608 58.647 164.84 56.9098 170.112 54.0571C173.809 52.0568 173.348 49.7521 169.509 47.8633C160.053 44.8664 149.406 43.3073 137.742 43.3073C125.718 43.3073 114.773 44.9658 105.099 48.1482L105.011 48.0318Z" fill="#93AF8E"/>
<path d="M145.783 43.3037C145.022 33.074 144.513 22.6151 147.678 12.891L147.552 13.2862C144.049 12.6691 140.451 12.5273 136.981 12.817L136.43 12.9589C133.209 17.4397 131.459 22.8431 130.61 28.2962C129.839 33.2522 129.779 38.2846 129.781 43.3049L130.393 43.528C132.844 43.3801 135.345 43.3049 137.894 43.3049C140.807 43.3049 143.658 43.4019 146.441 43.5947L145.783 43.3037Z" fill="#EDEDD9"/>
<path d="M119.294 169.092L128.382 161.503L129.919 160.924C131.77 163.746 150.335 174.423 150.335 174.423C153.899 176.108 157.488 177.801 161.124 179.36L160.871 179.132L168.108 171.088C169.245 169.825 170.993 169.193 172.631 169.641C172.68 169.655 172.728 169.668 172.777 169.684C175.217 170.422 176.052 173.469 174.391 175.404L168.502 182.267C173.303 183.965 178.208 185.279 183.269 185.899C188.797 186.577 194.394 186.406 199.948 185.993C203.638 185.72 207.439 185.302 210.671 183.501C211.226 183.192 211.791 182.807 212.037 182.221C212.288 181.622 212.156 180.939 212.014 180.306C210.146 171.986 207.091 163.933 202.973 156.466C202.222 155.103 201.387 153.71 200.078 152.871C198.513 151.869 196.542 151.826 194.684 151.835C173.368 151.93 152.935 154.944 132.257 160.121L127.389 160.425C124.684 158.727 117.463 157.38 117.463 157.38L119.294 169.092Z" fill="#93AF8E"/>
<path d="M123.563 107.228C123.693 105.793 121.675 104.438 119.057 104.201C116.439 103.964 114.211 104.935 114.082 106.37C113.952 107.805 115.969 109.16 118.587 109.397C121.205 109.634 123.433 108.663 123.563 107.228Z" fill="#3A3A3A"/>
<path d="M209.504 184.147L215.108 204.479C215.108 204.479 220.379 220.882 208.372 231.72C208.372 231.72 190.36 247.396 151.701 210.781" stroke="#3A3A3A" stroke-width="3" stroke-miterlimit="10" stroke-linecap="round"/>
<path d="M173.01 51.5803L215.106 42.6296C215.106 42.6296 218.914 40.7396 218.328 45.5732L204.563 79.9915C204.563 79.9915 218.389 115.907 200.233 152.871" stroke="#3A3A3A" stroke-width="3" stroke-miterlimit="10" stroke-linecap="round"/>
<path d="M169.23 186.198C173.298 193.246 169.635 202.978 161.048 207.937C152.461 212.895 142.202 211.202 138.134 204.154C134.066 197.107 136.788 185.135 146.316 182.416C156.266 179.575 165.161 179.151 169.23 186.198Z" stroke="#3A3A3A" stroke-width="3" stroke-miterlimit="10" stroke-linecap="round"/>
<path d="M145.027 209.799L129.501 227.891" stroke="#3A3A3A" stroke-width="3" stroke-miterlimit="10" stroke-linecap="round"/>
<path d="M159.727 180.577L168.264 171.087C169.401 169.823 171.149 169.192 172.788 169.64C172.836 169.654 172.885 169.667 172.933 169.683C175.373 170.421 176.209 173.468 174.548 175.403L167.362 183.776" stroke="#3A3A3A" stroke-width="3" stroke-miterlimit="10" stroke-linecap="round"/>
<path d="M127.046 216.907L138.346 204.345" stroke="#3A3A3A" stroke-width="3" stroke-miterlimit="10" stroke-linecap="round"/>
<path d="M34.2455 216.758C34.2455 216.758 18.8863 167.909 6 165.836C6 165.836 54.6156 147.125 69.845 146.363C69.845 146.363 98.5463 146.035 116.704 151.384C116.704 151.384 132.888 259.253 139.733 269.212C139.733 269.212 68.0886 298.503 35.8734 286.787L37.0443 251.052" stroke="#3A3A3A" stroke-width="3" stroke-miterlimit="10" stroke-linecap="round"/>
<path d="M39.403 250.508C47.2359 248.252 54.0179 237.685 53.0809 230.191C52.1924 223.092 44.688 214.378 37.1412 215.748C30.0198 217.04 27.8391 224.919 27.524 231.343C27.2513 236.878 27.3022 248.814 33.9265 250.609C35.7545 251.106 37.6066 251.025 39.403 250.508Z" stroke="#3A3A3A" stroke-width="3" stroke-miterlimit="10" stroke-linecap="round"/>
<path d="M174.042 116.414L228 111.871" stroke="#3A3A3A" stroke-width="3" stroke-miterlimit="10" stroke-linecap="round"/>
<path d="M176.993 126.601L226.033 131.609" stroke="#3A3A3A" stroke-width="3" stroke-miterlimit="10" stroke-linecap="round"/>
<path d="M42.8602 104.737L79.8138 108.464" stroke="#3A3A3A" stroke-width="3" stroke-miterlimit="10" stroke-linecap="round"/>
<path d="M47.6409 122.297L79.8816 117.924" stroke="#3A3A3A" stroke-width="3" stroke-miterlimit="10" stroke-linecap="round"/>
<path d="M108.275 46.8425C108.275 46.8425 93.6249 35.3629 77.2245 25.9479C77.2245 25.9479 73.7105 23.4347 73.3202 30.7245C73.3202 30.7245 72.9699 60.9432 74.5323 66.5612C74.5323 66.5612 47.0033 108.234 67.9358 146.36" stroke="#3A3A3A" stroke-width="3" stroke-miterlimit="10" stroke-linecap="round"/>
<path d="M91.9982 112.978C98.4407 120.984 112.898 121.787 118.337 110.267C118.841 114.52 121.023 118.211 124.63 120.595C131.091 124.864 140.074 123.507 146.711 120.371" stroke="#3A3A3A" stroke-width="3" stroke-miterlimit="10" stroke-linecap="round"/>
<path d="M118.035 159.883C121.93 158.878 125.98 158.915 128.537 161.503C129.774 162.753 130.643 164.31 131.581 165.797C134.421 170.302 138.273 174.505 143.357 176.092C145.06 176.623 147.012 176.815 148.55 175.912C150.415 174.816 151.129 172.328 150.64 170.221C150.15 168.114 148.683 166.358 147.032 164.961C144.659 162.951 141.813 161.576 138.788 160.875C136.411 160.325 133.605 159.565 131.137 160.427C130.755 160.56 130.403 160.728 130.075 160.924C127.92 162.215 126.839 164.719 125.184 166.584C123.452 168.536 121.659 170.434 119.781 172.246" stroke="#3A3A3A" stroke-width="3" stroke-miterlimit="10" stroke-linecap="round"/>
<path d="M128.687 162.203C131.523 176.374 132.165 190.981 130.584 205.347" stroke="#3A3A3A" stroke-width="3" stroke-miterlimit="10" stroke-linecap="round"/>
<path d="M128.926 161.948C126.845 169.432 124.484 176.838 121.852 184.146" stroke="#3A3A3A" stroke-width="3" stroke-miterlimit="10" stroke-linecap="round"/>
<path d="M168.658 182.264C173.459 183.963 178.365 185.277 183.426 185.897C188.953 186.574 194.551 186.403 200.105 185.991C203.795 185.717 207.596 185.3 210.828 183.499C211.383 183.189 211.948 182.805 212.194 182.218C212.445 181.619 212.312 180.937 212.171 180.304C210.303 171.984 207.248 163.93 203.129 156.463C202.379 155.101 201.544 153.708 200.235 152.869C198.67 151.866 196.699 151.824 194.841 151.832C173.525 151.928 153.092 154.942 132.414 160.119" stroke="#3A3A3A" stroke-width="3" stroke-miterlimit="10" stroke-linecap="round"/>
<path d="M130.074 160.924C131.925 163.746 150.49 174.423 150.49 174.423C154.054 176.108 157.643 177.8 161.28 179.36" stroke="#3A3A3A" stroke-width="3" stroke-miterlimit="10" stroke-linecap="round"/>
<path d="M210.917 175.419L178.886 152.385" stroke="#3A3A3A" stroke-width="3" stroke-miterlimit="10" stroke-linecap="round"/>
<path d="M200.106 185.99L160.491 154.607" stroke="#3A3A3A" stroke-width="3" stroke-miterlimit="10" stroke-linecap="round"/>
<path d="M164.713 174.597L144.327 157.377" stroke="#3A3A3A" stroke-width="3" stroke-miterlimit="10" stroke-linecap="round"/>
<path d="M208.87 169.092L176.608 184.645L170.816 179.752" stroke="#3A3A3A" stroke-width="3" stroke-miterlimit="10" stroke-linecap="round"/>
<path d="M179.559 152.87L148.45 166.328" stroke="#3A3A3A" stroke-width="3" stroke-miterlimit="10" stroke-linecap="round"/>
<path d="M164.822 174.468L157.741 177.796" stroke="#3A3A3A" stroke-width="3" stroke-miterlimit="10" stroke-linecap="round"/>
<path d="M203.132 156.462L174.042 170.134" stroke="#3A3A3A" stroke-width="3" stroke-miterlimit="10" stroke-linecap="round"/>
<path d="M117.618 157.377C117.618 157.377 128.102 159.334 128.537 161.503L119.45 169.092" stroke="#3A3A3A" stroke-width="3" stroke-miterlimit="10" stroke-linecap="round"/>
<path d="M200.106 234.824C200.106 234.824 208.845 275.624 205.826 289.554" stroke="#3A3A3A" stroke-width="3" stroke-miterlimit="10" stroke-linecap="round"/>
<path d="M169.763 47.7166C173.602 49.6054 174.063 51.9101 170.366 53.9104C165.097 56.7631 158.864 58.4991 153.081 59.9503C141.335 62.8987 129.212 63.8843 117.154 64.5269C113.508 64.7209 109.717 64.7354 106.381 63.2467C103.046 61.7603 100.293 58.3828 100.643 54.7482C101.317 47.7796 109.443 46.5164 114.879 45.2131C121.358 43.6601 127.994 43.2552 134.638 43.1764C135.758 43.1643 136.877 43.1582 137.997 43.1582C150.226 43.1582 161.338 44.8725 171.134 48.1627" stroke="#3A3A3A" stroke-width="3" stroke-miterlimit="10" stroke-linecap="round"/>
<path d="M108.88 46.2606C108.013 29.951 120.473 14.056 137.082 12.6739C146.122 11.9211 156.018 14.0936 162.88 19.954C170.99 26.8801 172.198 37.9997 170.552 47.7166" stroke="#3A3A3A" stroke-width="3" stroke-miterlimit="10" stroke-linecap="round"/>
<path d="M142.373 12.1599C146.294 7.18813 153.379 0.525114 160.42 2.49395C162.763 3.14983 164.796 5.48358 164.311 7.86825C163.552 11.6035 156.048 13.5929 152.899 14.4609" stroke="#3A3A3A" stroke-width="3" stroke-miterlimit="10" stroke-linecap="round"/>
<path d="M142.45 11.3925C138.391 7.85489 133.596 4.43852 128.349 2.99826C127.28 2.70488 126.16 2.48302 125.068 2.66244C122.927 3.01281 121.736 4.88587 122.16 6.95412C122.881 10.4687 129.24 12.8158 132.548 13.4304" stroke="#3A3A3A" stroke-width="3" stroke-miterlimit="10" stroke-linecap="round"/>
<path d="M146.722 13.0377C145.233 23.0298 145.122 32.9322 145.883 43.1607" stroke="#3A3A3A" stroke-width="3" stroke-miterlimit="10" stroke-linecap="round"/>
<path d="M136.53 12.8158C133.309 17.2966 131.559 22.7 130.711 28.1531C129.94 33.1091 129.879 38.1416 129.882 43.1618" stroke="#3A3A3A" stroke-width="3" stroke-miterlimit="10" stroke-linecap="round"/>
</svg>
