<svg width="75" height="25" viewBox="0 0 75 25" fill="none" xmlns="http://www.w3.org/2000/svg">
<g clip-path="url(#clip0_310_407)">
<path d="M27.413 0C22.2163 0 18.8578 3.39173 18.8578 8.53549C18.8578 13.6792 22.2163 17.071 27.413 17.071C32.6097 17.071 35.9682 13.6792 35.9682 8.53549C35.9682 3.39173 32.6097 0 27.413 0ZM27.413 12.8706C24.9849 12.8706 23.0333 10.9389 23.0333 8.53549C23.0333 6.13208 24.9849 4.20036 27.413 4.20036C29.8411 4.20036 31.7927 6.13208 31.7927 8.53549C31.7927 10.9389 29.8411 12.8706 27.413 12.8706Z" fill="#EA7434"/>
<path d="M66.4447 0C61.2481 0 57.8895 3.39173 57.8895 8.53549C57.8895 13.6792 61.2481 17.071 66.4447 17.071C71.6414 17.071 75 13.6792 75 8.53549C75 3.39173 71.6414 0 66.4447 0ZM66.4447 12.8706C64.0166 12.8706 62.065 10.9389 62.065 8.53549C62.065 6.13208 64.0166 4.20036 66.4447 4.20036C68.8729 4.20036 70.8245 6.13208 70.8245 8.53549C70.8245 10.9389 68.8729 12.8706 66.4447 12.8706Z" fill="#EA7434"/>
<path d="M42.0271 1.48313C42.05 1.48313 42.0729 1.46002 42.0729 1.46002C42.05 1.46002 42.05 1.46002 42.0271 1.48313Z" fill="#EA7434"/>
<path d="M43.7064 0.831102C42.1633 1.34772 40.779 2.29112 39.8486 3.70621C38.9409 5.09885 38.4871 6.73856 38.4871 8.37827C38.4871 12.8706 41.9364 16.4645 46.4523 16.4645C48.2677 16.4645 50.1512 15.8805 50.9454 14.6002V16.8239C50.9454 19.0926 49.1981 20.6649 47.1557 20.6649C45.9076 20.6649 44.8411 20.3055 43.593 19.7664C42.3902 19.2723 41.074 19.3621 40.3933 20.5301C39.7579 21.6307 40.416 22.9785 41.6414 23.5849C43.4114 24.4834 45.5445 24.7529 47.5188 24.7529C52.6928 24.7529 55.5521 21.1815 55.5521 16.0602C55.5521 14.0162 55.5521 11.9946 55.5521 9.9506C55.5521 9.41152 55.5294 8.87243 55.484 8.35581C55.3479 6.76102 54.9394 5.21116 53.9182 3.86345C51.5355 0.696331 47.3827 -0.404298 43.7064 0.831102ZM46.6111 12.6909C44.183 12.6909 42.2314 10.7592 42.2314 8.35581C42.2314 5.9524 44.183 4.02068 46.6111 4.02068C49.0392 4.02068 50.9908 5.9524 50.9908 8.35581C50.9908 10.7368 49.0392 12.6909 46.6111 12.6909Z" fill="#EA7434"/>
<path d="M15.295 0.471715C13.888 -0.157216 12.5038 0.494177 11.9364 1.90927L8.41903 10.1752L4.90163 1.88681C4.33431 0.494177 2.95005 -0.157216 1.54309 0.471715C0.136127 1.10065 -0.363117 2.29112 0.294977 3.79606L6.03628 16.2174C5.51434 17.9919 4.0393 21.9901 3.97123 22.5741C3.85776 23.6748 4.76548 24.8877 5.87743 24.9776C7.21631 25.0899 8.37365 24.5508 8.96366 23.4726C9.28136 22.8886 11.0514 18.5984 11.7322 16.7565C12.5718 14.5103 13.3888 12.2866 14.2284 10.0404C14.8638 8.33335 15.4992 6.62625 16.1119 4.94162C16.2481 4.55976 16.3842 4.17791 16.5431 3.79606C17.2239 2.29112 16.7019 1.10065 15.295 0.471715Z" fill="#EA7434"/>
</g>
<defs>
<clipPath id="clip0_310_407">
<rect width="75" height="25" fill="white"/>
</clipPath>
</defs>
</svg>
